<svg xmlns="http://www.w3.org/2000/svg" viewBox="-69 103 1171 584">
    <g stroke-linecap="square">
        <path fill="none" stroke="#000" stroke-width="2.8" d="M300 294v6M720 294v6M100 440H80M100 420H90M100 400H90M100 380H90M100 360H90M100 340H90M100 320H90M100 300H90M380 660v-20M400 640v10M420 640v10M440 640v10M460 640v10M480 640v10M500 640v10M520 640v10M340 500v-20M360 500v-10M380 480v10M420 480v10M460 480v10M500 480v10M540 480v10M580 480v10M620 480v10"/>
        <path fill="none" stroke="#0000b2" stroke-width="2.8" d="M100 320h20M100 420h20M300 580h40v-80M100 360h20M360 500v20h20M100 300h20M100 400h20M60 240h20M60 180h20M100 340h20M340 580v80h40M60 120h20M60 440h20M100 440h20M100 380h20M960 440v40M960 280v40M580 300v20M580 440v40M840 440v40M840 280v40M520 620v20M460 300v20M460 440v40M460 620v20M720 300v20M720 440v20M1040 440v20M1040 300v20M400 620v20M660 440v20M660 300v20M340 300v20M340 440v40M920 440v20M920 300v20M540 300v20M540 440v40M480 620v20M800 440v40M800 280v40M420 620v20M420 300v20M420 440v40M1000 440v40M1000 280v40M300 300v20M300 440v20M620 300v20M620 440v40M880 440v20M880 300v20M500 620v20M500 300v20M500 440v40M440 620v20M1080 440v20M1080 300v20M760 440v20M760 300v20M380 620v20M380 300v20M380 440v40"/>
        <path fill="none" stroke="#000" stroke-width="4.2" d="M650 460h20M1070 460h20M290 460h20"/>
        <circle cx="340" cy="580" r="4" fill="#0000b2" stroke="#0000b2" stroke-width="2.8"/>
        <path fill="none" stroke="#000" stroke-width="2.8" d="M710 430v8h20v-8"/>
        <text x="720" y="431.75" fill="gray" font-size="18" transform="rotate(-90 720 425)">
            <tspan text-decoration="overline">E</tspan>
        </text>
        <path fill="none" stroke="#000" stroke-width="2.8" d="M710 330v-8h20v8"/>
        <text x="720" y="341.75" fill="gray" font-size="18" text-anchor="end" transform="rotate(-90 720 335)">VCC</text>
        <path fill="none" stroke="#000" stroke-width="2.8" d="M750 430v8h20v-8"/>
        <text x="760" y="431.75" fill="gray" font-size="18" transform="rotate(-90 760 425)">Q0</text>
        <path fill="none" stroke="#000" stroke-width="2.8" d="M750 330v-8h20v8"/>
        <text x="760" y="341.75" fill="gray" font-size="18" text-anchor="end" transform="rotate(-90 760 335)">Q7</text>
        <path fill="none" stroke="#000" stroke-width="2.8" d="M790 430v8h20v-8"/>
        <text x="800" y="431.75" fill="gray" font-size="18" transform="rotate(-90 800 425)">D0</text>
        <path fill="none" stroke="#000" stroke-width="2.8" d="M790 330v-8h20v8"/>
        <text x="800" y="341.75" fill="gray" font-size="18" text-anchor="end" transform="rotate(-90 800 335)">D7</text>
        <path fill="none" stroke="#000" stroke-width="2.8" d="M830 430v8h20v-8"/>
        <text x="840" y="431.75" fill="gray" font-size="18" transform="rotate(-90 840 425)">D1</text>
        <path fill="none" stroke="#000" stroke-width="2.8" d="M830 330v-8h20v8"/>
        <text x="840" y="341.75" fill="gray" font-size="18" text-anchor="end" transform="rotate(-90 840 335)">D6</text>
        <path fill="none" stroke="#000" stroke-width="2.8" d="M870 430v8h20v-8"/>
        <text x="880" y="431.75" fill="gray" font-size="18" transform="rotate(-90 880 425)">Q1</text>
        <path fill="none" stroke="#000" stroke-width="2.8" d="M870 330v-8h20v8"/>
        <text x="880" y="341.75" fill="gray" font-size="18" text-anchor="end" transform="rotate(-90 880 335)">Q6</text>
        <path fill="none" stroke="#000" stroke-width="2.8" d="M910 430v8h20v-8"/>
        <text x="920" y="431.75" fill="gray" font-size="18" transform="rotate(-90 920 425)">Q2</text>
        <path fill="none" stroke="#000" stroke-width="2.8" d="M910 330v-8h20v8"/>
        <text x="920" y="341.75" fill="gray" font-size="18" text-anchor="end" transform="rotate(-90 920 335)">Q5</text>
        <path fill="none" stroke="#000" stroke-width="2.8" d="M950 430v8h20v-8"/>
        <text x="960" y="431.75" fill="gray" font-size="18" transform="rotate(-90 960 425)">D2</text>
        <path fill="none" stroke="#000" stroke-width="2.8" d="M950 330v-8h20v8"/>
        <text x="960" y="341.75" fill="gray" font-size="18" text-anchor="end" transform="rotate(-90 960 335)">D5</text>
        <path fill="none" stroke="#000" stroke-width="2.8" d="M990 430v8h20v-8"/>
        <text x="1000" y="431.75" fill="gray" font-size="18" transform="rotate(-90 1000 425)">D3</text>
        <path fill="none" stroke="#000" stroke-width="2.8" d="M990 330v-8h20v8"/>
        <text x="1000" y="341.75" fill="gray" font-size="18" text-anchor="end" transform="rotate(-90 1000 335)">D4</text>
        <path fill="none" stroke="#000" stroke-width="2.8" d="M1030 430v8h20v-8"/>
        <text x="1040" y="431.75" fill="gray" font-size="18" transform="rotate(-90 1040 425)">Q3</text>
        <path fill="none" stroke="#000" stroke-width="2.8" d="M1030 330v-8h20v8"/>
        <text x="1040" y="341.75" fill="gray" font-size="18" text-anchor="end" transform="rotate(-90 1040 335)">Q4</text>
        <path fill="none" stroke="#000" stroke-width="2.8" d="M1070 430v8h20v-8"/>
        <text x="1080" y="431.75" fill="gray" font-size="18" transform="rotate(-90 1080 425)">GND</text>
        <path fill="none" stroke="#000" stroke-width="2.8" d="M1070 330v-8h20v8"/>
        <text x="1080" y="341.75" fill="gray" font-size="18" text-anchor="end" transform="rotate(-90 1080 335)">CLK</text>
        <path fill="none" stroke="#000" stroke-width="2.8" d="M700 430v-40c6 0 10-4 10-10s-4-10-10-10v-40h400v100z"/>
        <text x="730" y="389" font-size="24">74377</text>
        <path fill="none" stroke="#000" stroke-width="2.8" d="M290 430v8h20v-8"/>
        <text x="300" y="431.75" fill="gray" font-size="18" transform="rotate(-90 300 425)">DIR</text>
        <path fill="none" stroke="#000" stroke-width="2.8" d="M290 330v-8h20v8"/>
        <text x="300" y="341.75" fill="gray" font-size="18" text-anchor="end" transform="rotate(-90 300 335)">VCC</text>
        <path fill="none" stroke="#000" stroke-width="2.8" d="M330 430v8h20v-8"/>
        <text x="340" y="431.75" fill="gray" font-size="18" transform="rotate(-90 340 425)">A1</text>
        <path fill="none" stroke="#000" stroke-width="2.8" d="M330 330v-8h20v8"/>
        <text x="340" y="341.75" fill="gray" font-size="18" text-anchor="end" transform="rotate(-90 340 335)">
            <tspan text-decoration="overline">OE</tspan>
        </text>
        <path fill="none" stroke="#000" stroke-width="2.8" d="M370 430v8h20v-8"/>
        <text x="380" y="431.75" fill="gray" font-size="18" transform="rotate(-90 380 425)">A2</text>
        <path fill="none" stroke="#000" stroke-width="2.8" d="M370 330v-8h20v8"/>
        <text x="380" y="341.75" fill="gray" font-size="18" text-anchor="end" transform="rotate(-90 380 335)">B1</text>
        <path fill="none" stroke="#000" stroke-width="2.8" d="M410 430v8h20v-8"/>
        <text x="420" y="431.75" fill="gray" font-size="18" transform="rotate(-90 420 425)">A3</text>
        <path fill="none" stroke="#000" stroke-width="2.8" d="M410 330v-8h20v8"/>
        <text x="420" y="341.75" fill="gray" font-size="18" text-anchor="end" transform="rotate(-90 420 335)">B2</text>
        <path fill="none" stroke="#000" stroke-width="2.8" d="M450 430v8h20v-8"/>
        <text x="460" y="431.75" fill="gray" font-size="18" transform="rotate(-90 460 425)">A4</text>
        <path fill="none" stroke="#000" stroke-width="2.8" d="M450 330v-8h20v8"/>
        <text x="460" y="341.75" fill="gray" font-size="18" text-anchor="end" transform="rotate(-90 460 335)">B3</text>
        <path fill="none" stroke="#000" stroke-width="2.8" d="M490 430v8h20v-8"/>
        <text x="500" y="431.75" fill="gray" font-size="18" transform="rotate(-90 500 425)">A5</text>
        <path fill="none" stroke="#000" stroke-width="2.8" d="M490 330v-8h20v8"/>
        <text x="500" y="341.75" fill="gray" font-size="18" text-anchor="end" transform="rotate(-90 500 335)">B4</text>
        <path fill="none" stroke="#000" stroke-width="2.8" d="M530 430v8h20v-8"/>
        <text x="540" y="431.75" fill="gray" font-size="18" transform="rotate(-90 540 425)">A6</text>
        <path fill="none" stroke="#000" stroke-width="2.8" d="M530 330v-8h20v8"/>
        <text x="540" y="341.75" fill="gray" font-size="18" text-anchor="end" transform="rotate(-90 540 335)">B5</text>
        <path fill="none" stroke="#000" stroke-width="2.8" d="M570 430v8h20v-8"/>
        <text x="580" y="431.75" fill="gray" font-size="18" transform="rotate(-90 580 425)">A7</text>
        <path fill="none" stroke="#000" stroke-width="2.8" d="M570 330v-8h20v8"/>
        <text x="580" y="341.75" fill="gray" font-size="18" text-anchor="end" transform="rotate(-90 580 335)">B6</text>
        <path fill="none" stroke="#000" stroke-width="2.8" d="M610 430v8h20v-8"/>
        <text x="620" y="431.75" fill="gray" font-size="18" transform="rotate(-90 620 425)">A8</text>
        <path fill="none" stroke="#000" stroke-width="2.8" d="M610 330v-8h20v8"/>
        <text x="620" y="341.75" fill="gray" font-size="18" text-anchor="end" transform="rotate(-90 620 335)">B7</text>
        <path fill="none" stroke="#000" stroke-width="2.8" d="M650 430v8h20v-8"/>
        <text x="660" y="431.75" fill="gray" font-size="18" transform="rotate(-90 660 425)">GND</text>
        <path fill="none" stroke="#000" stroke-width="2.8" d="M650 330v-8h20v8"/>
        <text x="660" y="341.75" fill="gray" font-size="18" text-anchor="end" transform="rotate(-90 660 335)">B8</text>
        <path fill="none" stroke="#000" stroke-width="2.8" d="M280 430v-40c6 0 10-4 10-10s-4-10-10-10v-40h400v100z"/>
        <text x="310" y="389" font-size="24">74245</text>
        <g>
            <path fill="none" stroke="#000" stroke-width="2.8" d="M290 304l10-13 10 13"/>
        </g>
        <g>
            <path fill="none" stroke="#000" stroke-width="2.8" d="M710 304l10-13 10 13"/>
        </g>
        <g>
            <path fill="none" stroke="#000" stroke-width="2.8" d="M29 105h30v30H29z"/>
            <text x="15" y="129" font-size="24" text-anchor="end">CLOCK</text>
            <path fill="none" stroke="#000" stroke-width="1.4" d="M35 125h5v-10h5v10h5v-10h5"/>
        </g>
        <g>
            <path fill="none" stroke="#000" stroke-width="2.8" d="M80 120l14 8v-16z"/>
            <text x="99" y="126.75" fill="gray" font-size="18">CLOCK</text>
        </g>
        <g>
            <path fill="none" stroke="#000" stroke-width="2.8" d="M1080 300l8-14h-16z"/>
            <text x="1080" y="287.75" fill="gray" font-size="18" transform="rotate(-90 1080 281)">CLOCK</text>
        </g>
        <g>
            <path fill="none" stroke="#000" stroke-width="2.8" d="M29 165h30v30H29z"/>
            <circle cx="44" cy="180" r="9" fill="none" stroke="#000" stroke-width="2.8"/>
            <text x="15" y="189" font-size="24" text-anchor="end">
                <tspan font-style="italic">
                    <tspan text-decoration="overline">IN</tspan>
                </tspan>
            </text>
        </g>
        <g>
            <path fill="none" stroke="#000" stroke-width="2.8" d="M80 180l14 8v-16z"/>
            <text x="99" y="186.75" fill="gray" font-size="18">REG IN</text>
        </g>
        <g>
            <path fill="none" stroke="#000" stroke-width="2.8" d="M340 300l8-14h-16z"/>
            <text x="340" y="287.75" fill="gray" font-size="18" transform="rotate(-90 340 281)">REG OUT</text>
        </g>
        <g>
            <circle cx="284" cy="580" r="9" fill="none" stroke="#000" stroke-width="2.8"/>
            <circle cx="284" cy="580" r="15" fill="none" stroke="#000" stroke-width="2.8"/>
            <text x="255" y="589" font-size="24" text-anchor="end">
                <tspan font-style="italic">BUS</tspan>
            </text>
        </g>
        <g>
            <circle cx="44" cy="440" r="9" fill="none" stroke="#000" stroke-width="2.8"/>
            <circle cx="44" cy="440" r="15" fill="none" stroke="#000" stroke-width="2.8"/>
            <text x="15" y="449" font-size="24" text-anchor="end">
                <tspan font-style="italic">OUT</tspan>
            </text>
        </g>
        <g>
            <text x="102" y="452" fill="gray" font-size="12">0</text>
            <text x="102" y="432" fill="gray" font-size="12">1</text>
            <text x="102" y="412" fill="gray" font-size="12">2</text>
            <text x="102" y="392" fill="gray" font-size="12">3</text>
            <text x="102" y="372" fill="gray" font-size="12">4</text>
            <text x="102" y="352" fill="gray" font-size="12">5</text>
            <text x="102" y="332" fill="gray" font-size="12">6</text>
            <text x="102" y="312" fill="gray" font-size="12">7</text>
            <text x="78" y="452" fill="gray" font-size="12" text-anchor="end">0-7</text>
            <path stroke="#000" stroke-width="2.8" d="M92 442h-4V298h4z"/>
        </g>
        <g>
            <path fill="none" stroke="#000" stroke-width="2.8" d="M120 320l14 8v-16z"/>
            <text x="139" y="326.75" fill="gray" font-size="18">Q6</text>
        </g>
        <g>
            <path fill="none" stroke="#000" stroke-width="2.8" d="M120 340l14 8v-16z"/>
            <text x="139" y="346.75" fill="gray" font-size="18">Q5</text>
        </g>
        <g>
            <path fill="none" stroke="#000" stroke-width="2.8" d="M120 360l14 8v-16z"/>
            <text x="139" y="366.75" fill="gray" font-size="18">Q4</text>
        </g>
        <g>
            <path fill="none" stroke="#000" stroke-width="2.8" d="M120 380l14 8v-16z"/>
            <text x="139" y="386.75" fill="gray" font-size="18">Q3</text>
        </g>
        <g>
            <path fill="none" stroke="#000" stroke-width="2.8" d="M120 400l14 8v-16z"/>
            <text x="139" y="406.75" fill="gray" font-size="18">Q2</text>
        </g>
        <g>
            <path fill="none" stroke="#000" stroke-width="2.8" d="M120 420l14 8v-16z"/>
            <text x="139" y="426.75" fill="gray" font-size="18">Q1</text>
        </g>
        <g>
            <path fill="none" stroke="#000" stroke-width="2.8" d="M120 440l14 8v-16z"/>
            <text x="139" y="446.75" fill="gray" font-size="18">Q0</text>
        </g>
        <g>
            <path fill="none" stroke="#000" stroke-width="2.8" d="M120 300l14 8v-16z"/>
            <text x="139" y="306.75" fill="gray" font-size="18">Q7</text>
        </g>
        <g>
            <path fill="none" stroke="#000" stroke-width="2.8" d="M880 300l8-14h-16z"/>
            <text x="880" y="287.75" fill="gray" font-size="18" transform="rotate(-90 880 281)">Q6</text>
        </g>
        <g>
            <path fill="none" stroke="#000" stroke-width="2.8" d="M920 300l8-14h-16z"/>
            <text x="920" y="287.75" fill="gray" font-size="18" transform="rotate(-90 920 281)">Q5</text>
        </g>
        <g>
            <path fill="none" stroke="#000" stroke-width="2.8" d="M1040 300l8-14h-16z"/>
            <text x="1040" y="287.75" fill="gray" font-size="18" transform="rotate(-90 1040 281)">Q4</text>
        </g>
        <g>
            <path fill="none" stroke="#000" stroke-width="2.8" d="M1040 460l-8 14h16z"/>
            <text x="1040" y="485.75" fill="gray" font-size="18" text-anchor="end" transform="rotate(-90 1040 479)">Q3</text>
        </g>
        <g>
            <path fill="none" stroke="#000" stroke-width="2.8" d="M920 460l-8 14h16z"/>
            <text x="920" y="485.75" fill="gray" font-size="18" text-anchor="end" transform="rotate(-90 920 479)">Q2</text>
        </g>
        <g>
            <path fill="none" stroke="#000" stroke-width="2.8" d="M880 460l-8 14h16z"/>
            <text x="880" y="485.75" fill="gray" font-size="18" text-anchor="end" transform="rotate(-90 880 479)">Q1</text>
        </g>
        <g>
            <path fill="none" stroke="#000" stroke-width="2.8" d="M760 460l-8 14h16z"/>
            <text x="760" y="485.75" fill="gray" font-size="18" text-anchor="end" transform="rotate(-90 760 479)">Q0</text>
        </g>
        <g>
            <path fill="none" stroke="#000" stroke-width="2.8" d="M760 300l8-14h-16z"/>
            <text x="760" y="287.75" fill="gray" font-size="18" transform="rotate(-90 760 281)">Q7</text>
        </g>
        <g>
            <text x="318" y="495.75" font-size="17" text-anchor="end">B to A (LOW)</text>
            <path fill="none" stroke="#000" stroke-dasharray="4.0,4.0" stroke-width=".7" d="M320 480h-40V380h40z"/>
        </g>
        <g>
            <path fill="none" stroke="#000" stroke-width="2.8" d="M800 480l-8 14h16z"/>
            <text x="800" y="505.75" fill="gray" font-size="18" text-anchor="end" transform="rotate(-90 800 499)">D0</text>
        </g>
        <g>
            <path fill="none" stroke="#000" stroke-width="2.8" d="M840 480l-8 14h16z"/>
            <text x="840" y="505.75" fill="gray" font-size="18" text-anchor="end" transform="rotate(-90 840 499)">D1</text>
        </g>
        <g>
            <path fill="none" stroke="#000" stroke-width="2.8" d="M960 480l-8 14h16z"/>
            <text x="960" y="505.75" fill="gray" font-size="18" text-anchor="end" transform="rotate(-90 960 499)">D2</text>
        </g>
        <g>
            <path fill="none" stroke="#000" stroke-width="2.8" d="M1000 480l-8 14h16z"/>
            <text x="1000" y="505.75" fill="gray" font-size="18" text-anchor="end" transform="rotate(-90 1000 499)">D3</text>
        </g>
        <g>
            <path fill="none" stroke="#000" stroke-width="2.8" d="M1000 280l8-14h-16z"/>
            <text x="1000" y="267.75" fill="gray" font-size="18" transform="rotate(-90 1000 261)">D4</text>
        </g>
        <g>
            <path fill="none" stroke="#000" stroke-width="2.8" d="M960 280l8-14h-16z"/>
            <text x="960" y="267.75" fill="gray" font-size="18" transform="rotate(-90 960 261)">D5</text>
        </g>
        <g>
            <path fill="none" stroke="#000" stroke-width="2.8" d="M840 280l8-14h-16z"/>
            <text x="840" y="267.75" fill="gray" font-size="18" transform="rotate(-90 840 261)">D6</text>
        </g>
        <g>
            <path fill="none" stroke="#000" stroke-width="2.8" d="M800 280l8-14h-16z"/>
            <text x="800" y="267.75" fill="gray" font-size="18" transform="rotate(-90 800 261)">D7</text>
        </g>
        <g>
            <path fill="none" stroke="#000" stroke-width="2.8" d="M620 300l8-14h-16z"/>
            <text x="620" y="287.75" fill="gray" font-size="18" transform="rotate(-90 620 281)">Q6</text>
        </g>
        <g>
            <path fill="none" stroke="#000" stroke-width="2.8" d="M580 300l8-14h-16z"/>
            <text x="580" y="287.75" fill="gray" font-size="18" transform="rotate(-90 580 281)">Q5</text>
        </g>
        <g>
            <path fill="none" stroke="#000" stroke-width="2.8" d="M540 300l8-14h-16z"/>
            <text x="540" y="287.75" fill="gray" font-size="18" transform="rotate(-90 540 281)">Q4</text>
        </g>
        <g>
            <path fill="none" stroke="#000" stroke-width="2.8" d="M500 300l8-14h-16z"/>
            <text x="500" y="287.75" fill="gray" font-size="18" transform="rotate(-90 500 281)">Q3</text>
        </g>
        <g>
            <path fill="none" stroke="#000" stroke-width="2.8" d="M460 300l8-14h-16z"/>
            <text x="460" y="287.75" fill="gray" font-size="18" transform="rotate(-90 460 281)">Q2</text>
        </g>
        <g>
            <path fill="none" stroke="#000" stroke-width="2.8" d="M420 300l8-14h-16z"/>
            <text x="420" y="287.75" fill="gray" font-size="18" transform="rotate(-90 420 281)">Q1</text>
        </g>
        <g>
            <path fill="none" stroke="#000" stroke-width="2.8" d="M380 300l8-14h-16z"/>
            <text x="380" y="287.75" fill="gray" font-size="18" transform="rotate(-90 380 281)">Q0</text>
        </g>
        <g>
            <path fill="none" stroke="#000" stroke-width="2.8" d="M660 300l8-14h-16z"/>
            <text x="660" y="287.75" fill="gray" font-size="18" transform="rotate(-90 660 281)">Q7</text>
        </g>
        <g>
            <text x="377" y="662" fill="gray" font-size="12" text-anchor="end" transform="rotate(-90 377 662)">0-7</text>
            <text x="377" y="638" fill="gray" font-size="12" transform="rotate(-90 377 638)">0</text>
            <text x="397" y="638" fill="gray" font-size="12" transform="rotate(-90 397 638)">1</text>
            <text x="417" y="638" fill="gray" font-size="12" transform="rotate(-90 417 638)">2</text>
            <text x="437" y="638" fill="gray" font-size="12" transform="rotate(-90 437 638)">3</text>
            <text x="457" y="638" fill="gray" font-size="12" transform="rotate(-90 457 638)">4</text>
            <text x="477" y="638" fill="gray" font-size="12" transform="rotate(-90 477 638)">5</text>
            <text x="497" y="638" fill="gray" font-size="12" transform="rotate(-90 497 638)">6</text>
            <text x="517" y="638" fill="gray" font-size="12" transform="rotate(-90 517 638)">7</text>
            <path stroke="#000" stroke-width="2.8" d="M378 652v-4h144v4z"/>
        </g>
        <g>
            <text x="337" y="502" fill="gray" font-size="12" text-anchor="end" transform="rotate(-90 337 502)">D</text>
            <text x="357" y="502" fill="gray" font-size="12" text-anchor="end" transform="rotate(-90 357 502)">OE</text>
            <text x="337" y="478" fill="gray" font-size="12" transform="rotate(-90 337 478)">D0</text>
            <text x="377" y="478" fill="gray" font-size="12" transform="rotate(-90 377 478)">D1</text>
            <text x="417" y="478" fill="gray" font-size="12" transform="rotate(-90 417 478)">D2</text>
            <text x="457" y="478" fill="gray" font-size="12" transform="rotate(-90 457 478)">D3</text>
            <text x="497" y="478" fill="gray" font-size="12" transform="rotate(-90 497 478)">D4</text>
            <text x="537" y="478" fill="gray" font-size="12" transform="rotate(-90 537 478)">D5</text>
            <text x="577" y="478" fill="gray" font-size="12" transform="rotate(-90 577 478)">D6</text>
            <text x="617" y="478" fill="gray" font-size="12" transform="rotate(-90 617 478)">D7</text>
            <path stroke="#000" stroke-width="2.8" d="M338 492v-4h284v4z"/>
        </g>
        <g>
            <path fill="none" stroke="#000" stroke-width="2.8" d="M380 520l14 8v-16z"/>
            <text x="399" y="526.75" fill="gray" font-size="18">REG OUT</text>
        </g>
        <g>
            <path fill="none" stroke="#000" stroke-width="2.8" d="M380 620l8-14h-16z"/>
            <text x="380" y="607.75" fill="gray" font-size="18" transform="rotate(-90 380 601)">D0</text>
        </g>
        <g>
            <path fill="none" stroke="#000" stroke-width="2.8" d="M400 620l8-14h-16z"/>
            <text x="400" y="607.75" fill="gray" font-size="18" transform="rotate(-90 400 601)">D1</text>
        </g>
        <g>
            <path fill="none" stroke="#000" stroke-width="2.8" d="M420 620l8-14h-16z"/>
            <text x="420" y="607.75" fill="gray" font-size="18" transform="rotate(-90 420 601)">D2</text>
        </g>
        <g>
            <path fill="none" stroke="#000" stroke-width="2.8" d="M440 620l8-14h-16z"/>
            <text x="440" y="607.75" fill="gray" font-size="18" transform="rotate(-90 440 601)">D3</text>
        </g>
        <g>
            <path fill="none" stroke="#000" stroke-width="2.8" d="M460 620l8-14h-16z"/>
            <text x="460" y="607.75" fill="gray" font-size="18" transform="rotate(-90 460 601)">D4</text>
        </g>
        <g>
            <path fill="none" stroke="#000" stroke-width="2.8" d="M480 620l8-14h-16z"/>
            <text x="480" y="607.75" fill="gray" font-size="18" transform="rotate(-90 480 601)">D5</text>
        </g>
        <g>
            <path fill="none" stroke="#000" stroke-width="2.8" d="M500 620l8-14h-16z"/>
            <text x="500" y="607.75" fill="gray" font-size="18" transform="rotate(-90 500 601)">D6</text>
        </g>
        <g>
            <path fill="none" stroke="#000" stroke-width="2.8" d="M520 620l8-14h-16z"/>
            <text x="520" y="607.75" fill="gray" font-size="18" transform="rotate(-90 520 601)">D7</text>
        </g>
        <g>
            <path fill="none" stroke="#000" stroke-width="2.8" d="M29 225h30v30H29z"/>
            <circle cx="44" cy="240" r="9" fill="none" stroke="#000" stroke-width="2.8"/>
            <text x="15" y="249" font-size="24" text-anchor="end">
                <tspan font-style="italic">
                    <tspan text-decoration="overline">OUT</tspan>
                </tspan>
            </text>
        </g>
        <g>
            <path fill="none" stroke="#000" stroke-width="2.8" d="M80 240l14 8v-16z"/>
            <text x="99" y="246.75" fill="gray" font-size="18">REG OUT</text>
        </g>
        <g>
            <path fill="none" stroke="#000" stroke-width="2.8" d="M720 460l-8 14h16z"/>
            <text x="720" y="485.75" fill="gray" font-size="18" text-anchor="end" transform="rotate(-90 720 479)">REG IN</text>
        </g>
        <g>
            <text x="342" y="552" font-size="12">Digital workaround for bus sharing</text>
            <path fill="none" stroke="#000" stroke-dasharray="4.0,4.0" stroke-width=".7" d="M340 480h160v60H340z"/>
        </g>
    </g>
</svg>