<?xml version="1.0" encoding="UTF-8" standalone="no"?>
<!-- Created with Digital by H.Neemann -->
<!-- created: Thu Jan 07 21:57:14 CET 2021 -->

<svg
   xmlns:svg="http://www.w3.org/2000/svg"
   xmlns="http://www.w3.org/2000/svg"
   width="234.45mm"
   height="97.35mm"
   viewBox="-25 -217 1563 649">
<g stroke-linecap="square">
<path d="M 860,134 L 860,140" stroke="#000000" stroke-width="2.8" fill="none"/>
<path d="M 200,20 L 210,20 L 220,20" stroke="#000000" stroke-width="2.8" fill="none"/>
<path d="M 220,40 L 210,40" stroke="#000000" stroke-width="2.8" fill="none"/>
<path d="M 220,60 L 210,60" stroke="#000000" stroke-width="2.8" fill="none"/>
<path d="M 220,80 L 210,80" stroke="#000000" stroke-width="2.8" fill="none"/>
<path d="M 220,100 L 210,100" stroke="#000000" stroke-width="2.8" fill="none"/>
<path d="M 220,120 L 210,120" stroke="#000000" stroke-width="2.8" fill="none"/>
<path d="M 220,140 L 210,140" stroke="#000000" stroke-width="2.8" fill="none"/>
<path d="M 220,160 L 210,160" stroke="#000000" stroke-width="2.8" fill="none"/>
<path d="M 259,170 L 259,150 L 259,130 L 259,110 L 259,90 L 259,70 L 259,50 L 259,30 L 259,10" stroke="#000000" stroke-width="2.8" fill="none"/>
<path d="M 540,134 L 540,140" stroke="#000000" stroke-width="2.8" fill="none"/>
<path d="M 280,206 L 280,220" stroke="#000000" stroke-width="2.8" fill="none"/>
<path d="M 220,160 L 240,160" stroke="#0000b2" stroke-width="2.8" fill="none"/>
<path d="M 260,160 L 280,160 L 280,180" stroke="#0000b2" stroke-width="2.8" fill="none"/>
<path d="M 160,-100 L 180,-100" stroke="#0000b2" stroke-width="2.8" fill="none"/>
<path d="M 220,100 L 240,100" stroke="#0000b2" stroke-width="2.8" fill="none"/>
<path d="M 260,100 L 280,100 L 280,80" stroke="#0000b2" stroke-width="2.8" fill="none"/>
<path d="M 1320,-200 L 1340,-200" stroke="#0000b2" stroke-width="2.8" fill="none"/>
<path d="M 160,-40 L 180,-40" stroke="#0000b2" stroke-width="2.8" fill="none"/>
<path d="M 220,40 L 240,40" stroke="#0000b2" stroke-width="2.8" fill="none"/>
<path d="M 260,40 L 280,40 L 280,20" stroke="#0000b2" stroke-width="2.8" fill="none"/>
<path d="M 160,-140 L 180,-140" stroke="#0000b2" stroke-width="2.8" fill="none"/>
<path d="M 1100,160 L 1100,140 L 1140,140 L 1140,120" stroke="#0000b2" stroke-width="2.8" fill="none"/>
<path d="M 1020,160 L 1020,140 L 1060,140 L 1060,120" stroke="#0000b2" stroke-width="2.8" fill="none"/>
<path d="M 220,140 L 240,140" stroke="#0000b2" stroke-width="2.8" fill="none"/>
<path d="M 260,140 L 280,140 L 280,120" stroke="#0000b2" stroke-width="2.8" fill="none"/>
<path d="M 620,280 L 620,300 L 700,300 L 780,300 L 780,280" stroke="#0000b2" stroke-width="2.8" fill="none"/>
<path d="M 860,280 L 860,300 L 900,300 L 900,280" stroke="#0000b2" stroke-width="2.8" fill="none"/>
<path d="M 220,80 L 240,80" stroke="#0000b2" stroke-width="2.8" fill="none"/>
<path d="M 260,80 L 280,80 L 280,60" stroke="#0000b2" stroke-width="2.8" fill="none"/>
<path d="M 160,-180 L 180,-180" stroke="#0000b2" stroke-width="2.8" fill="none"/>
<path d="M 160,20 L 200,20" stroke="#0000b2" stroke-width="2.8" fill="none"/>
<path d="M 220,20 L 240,20" stroke="#0000b2" stroke-width="2.8" fill="none"/>
<path d="M 260,20 L 280,20 L 300,20" stroke="#0000b2" stroke-width="2.8" fill="none"/>
<path d="M 220,120 L 240,120" stroke="#0000b2" stroke-width="2.8" fill="none"/>
<path d="M 260,120 L 280,120 L 280,100" stroke="#0000b2" stroke-width="2.8" fill="none"/>
<path d="M 220,60 L 240,60" stroke="#0000b2" stroke-width="2.8" fill="none"/>
<path d="M 260,60 L 280,60 L 280,40" stroke="#0000b2" stroke-width="2.8" fill="none"/>
<path d="M 1320,-160 L 1340,-160" stroke="#0000b2" stroke-width="2.8" fill="none"/>
<path d="M 580,280 L 580,300" stroke="#0000b2" stroke-width="2.8" fill="none"/>
<path d="M 580,140 L 580,160" stroke="#0000b2" stroke-width="2.8" fill="none"/>
<path d="M 740,140 L 740,160" stroke="#0000b2" stroke-width="2.8" fill="none"/>
<path d="M 900,120 L 900,160" stroke="#0000b2" stroke-width="2.8" fill="none"/>
<path d="M 1060,140 L 1060,160" stroke="#0000b2" stroke-width="2.8" fill="none"/>
<path d="M 780,300 L 780,320" stroke="#0000b2" stroke-width="2.8" fill="none"/>
<path d="M 1100,280 L 1100,320" stroke="#0000b2" stroke-width="2.8" fill="none"/>
<path d="M 940,280 L 940,300" stroke="#0000b2" stroke-width="2.8" fill="none"/>
<path d="M 940,120 L 940,160" stroke="#0000b2" stroke-width="2.8" fill="none"/>
<path d="M 1140,280 L 1140,300" stroke="#0000b2" stroke-width="2.8" fill="none"/>
<path d="M 1140,140 L 1140,160" stroke="#0000b2" stroke-width="2.8" fill="none"/>
<path d="M 980,280 L 980,300" stroke="#0000b2" stroke-width="2.8" fill="none"/>
<path d="M 980,120 L 980,160" stroke="#0000b2" stroke-width="2.8" fill="none"/>
<path d="M 660,140 L 660,160" stroke="#0000b2" stroke-width="2.8" fill="none"/>
<path d="M 280,140 L 280,160" stroke="#0000b2" stroke-width="2.8" fill="none"/>
<path d="M 860,140 L 860,160" stroke="#0000b2" stroke-width="2.8" fill="none"/>
<path d="M 860,300 L 860,320" stroke="#0000b2" stroke-width="2.8" fill="none"/>
<path d="M 540,140 L 540,160" stroke="#0000b2" stroke-width="2.8" fill="none"/>
<path d="M 540,280 L 540,300" stroke="#0000b2" stroke-width="2.8" fill="none"/>
<path d="M 700,140 L 700,160" stroke="#0000b2" stroke-width="2.8" fill="none"/>
<path d="M 700,280 L 700,300" stroke="#0000b2" stroke-width="2.8" fill="none"/>
<path d="M 1130,300 L 1150,300" stroke="#000000" stroke-width="4.199999999999999" fill="none"/>
<path d="M 850,320 L 870,320" stroke="#000000" stroke-width="4.199999999999999" fill="none"/>
<path d="M 1050,120 L 1070,120" stroke="#000000" stroke-width="4.199999999999999" fill="none"/>
<path d="M 770,320 L 790,320" stroke="#000000" stroke-width="4.199999999999999" fill="none"/>
<path d="M 750,140 L 730,140" stroke="#000000" stroke-width="4.199999999999999" fill="none"/>
<path d="M 270,220 L 290,220" stroke="#000000" stroke-width="4.199999999999999" fill="none"/>
<path d="M 590,140 L 570,140" stroke="#000000" stroke-width="4.199999999999999" fill="none"/>
<g>
<circle cx="280.0" cy="160.0" r="4.0" stroke="#0000b2" stroke-width="2.8" fill="#0000b2" />
<circle cx="280.0" cy="100.0" r="4.0" stroke="#0000b2" stroke-width="2.8" fill="#0000b2" />
<circle cx="280.0" cy="40.0" r="4.0" stroke="#0000b2" stroke-width="2.8" fill="#0000b2" />
<circle cx="1140.0" cy="140.0" r="4.0" stroke="#0000b2" stroke-width="2.8" fill="#0000b2" />
<circle cx="1060.0" cy="140.0" r="4.0" stroke="#0000b2" stroke-width="2.8" fill="#0000b2" />
<circle cx="280.0" cy="140.0" r="4.0" stroke="#0000b2" stroke-width="2.8" fill="#0000b2" />
<circle cx="700.0" cy="300.0" r="4.0" stroke="#0000b2" stroke-width="2.8" fill="#0000b2" />
<circle cx="860.0" cy="300.0" r="4.0" stroke="#0000b2" stroke-width="2.8" fill="#0000b2" />
<circle cx="780.0" cy="300.0" r="4.0" stroke="#0000b2" stroke-width="2.8" fill="#0000b2" />
<circle cx="280.0" cy="80.0" r="4.0" stroke="#0000b2" stroke-width="2.8" fill="#0000b2" />
<circle cx="280.0" cy="20.0" r="4.0" stroke="#0000b2" stroke-width="2.8" fill="#0000b2" />
<circle cx="280.0" cy="120.0" r="4.0" stroke="#0000b2" stroke-width="2.8" fill="#0000b2" />
<circle cx="280.0" cy="60.0" r="4.0" stroke="#0000b2" stroke-width="2.8" fill="#0000b2" />
</g>
<g>
<path d="M 850,270 L 850,278 L 870,278 L 870,270" stroke="#000000" stroke-width="2.8" fill="none"/>
<text text-anchor="start" x="860.0" y="271.75" fill="#808080" style="font-size:18px" transform="rotate(-90,860.0,265.0)" >OE1</text>
<path d="M 850,170 L 850,162 L 870,162 L 870,170" stroke="#000000" stroke-width="2.8" fill="none"/>
<text text-anchor="end" x="860.0" y="181.75" fill="#808080" style="font-size:18px" transform="rotate(-90,860.0,175.0)" >VCC</text>
<path d="M 890,270 L 890,278 L 910,278 L 910,270" stroke="#000000" stroke-width="2.8" fill="none"/>
<text text-anchor="start" x="900.0" y="271.75" fill="#808080" style="font-size:18px" transform="rotate(-90,900.0,265.0)" >OE2</text>
<path d="M 890,170 L 890,162 L 910,162 L 910,170" stroke="#000000" stroke-width="2.8" fill="none"/>
<text text-anchor="end" x="900.0" y="181.75" fill="#808080" style="font-size:18px" transform="rotate(-90,900.0,175.0)" >RES</text>
<path d="M 930,270 L 930,278 L 950,278 L 950,270" stroke="#000000" stroke-width="2.8" fill="none"/>
<text text-anchor="start" x="940.0" y="271.75" fill="#808080" style="font-size:18px" transform="rotate(-90,940.0,265.0)" >Q0</text>
<path d="M 930,170 L 930,162 L 950,162 L 950,170" stroke="#000000" stroke-width="2.8" fill="none"/>
<text text-anchor="end" x="940.0" y="181.75" fill="#808080" style="font-size:18px" transform="rotate(-90,940.0,175.0)" >D0</text>
<path d="M 970,270 L 970,278 L 990,278 L 990,270" stroke="#000000" stroke-width="2.8" fill="none"/>
<text text-anchor="start" x="980.0" y="271.75" fill="#808080" style="font-size:18px" transform="rotate(-90,980.0,265.0)" >Q1</text>
<path d="M 970,170 L 970,162 L 990,162 L 990,170" stroke="#000000" stroke-width="2.8" fill="none"/>
<text text-anchor="end" x="980.0" y="181.75" fill="#808080" style="font-size:18px" transform="rotate(-90,980.0,175.0)" >D1</text>
<path d="M 1010,270 L 1010,278 L 1030,278 L 1030,270" stroke="#000000" stroke-width="2.8" fill="none"/>
<text text-anchor="start" x="1020.0" y="271.75" fill="#808080" style="font-size:18px" transform="rotate(-90,1020.0,265.0)" >Q2</text>
<path d="M 1010,170 L 1010,162 L 1030,162 L 1030,170" stroke="#000000" stroke-width="2.8" fill="none"/>
<text text-anchor="end" x="1020.0" y="181.75" fill="#808080" style="font-size:18px" transform="rotate(-90,1020.0,175.0)" >D2</text>
<path d="M 1050,270 L 1050,278 L 1070,278 L 1070,270" stroke="#000000" stroke-width="2.8" fill="none"/>
<text text-anchor="start" x="1060.0" y="271.75" fill="#808080" style="font-size:18px" transform="rotate(-90,1060.0,265.0)" >Q3</text>
<path d="M 1050,170 L 1050,162 L 1070,162 L 1070,170" stroke="#000000" stroke-width="2.8" fill="none"/>
<text text-anchor="end" x="1060.0" y="181.75" fill="#808080" style="font-size:18px" transform="rotate(-90,1060.0,175.0)" >D3</text>
<path d="M 1090,270 L 1090,278 L 1110,278 L 1110,270" stroke="#000000" stroke-width="2.8" fill="none"/>
<text text-anchor="start" x="1100.0" y="271.75" fill="#808080" style="font-size:18px" transform="rotate(-90,1100.0,265.0)" >CLK</text>
<path d="M 1090,170 L 1090,162 L 1110,162 L 1110,170" stroke="#000000" stroke-width="2.8" fill="none"/>
<text text-anchor="end" x="1100.0" y="181.75" fill="#808080" style="font-size:18px" transform="rotate(-90,1100.0,175.0)" >DE2</text>
<path d="M 1130,270 L 1130,278 L 1150,278 L 1150,270" stroke="#000000" stroke-width="2.8" fill="none"/>
<text text-anchor="start" x="1140.0" y="271.75" fill="#808080" style="font-size:18px" transform="rotate(-90,1140.0,265.0)" >GND</text>
<path d="M 1130,170 L 1130,162 L 1150,162 L 1150,170" stroke="#000000" stroke-width="2.8" fill="none"/>
<text text-anchor="end" x="1140.0" y="181.75" fill="#808080" style="font-size:18px" transform="rotate(-90,1140.0,175.0)" >DE1</text>
<path d="M 840,270 L 840,230 C 846,230 850,226 850,220 C 850,214 846,210 840,210 L 840,170 L 1160,170 L 1160,270 Z" stroke="#000000" stroke-width="2.8" fill="none"/>
<text text-anchor="start" x="870.0" y="229.0" fill="#000000" style="font-size:24px">74173</text>
</g>
<g>
</g>
<g>
<path d="M 850,144 L 860,131 L 870,144" stroke="#000000" stroke-width="2.8" fill="none"/>
</g>
<g>
<path d="M 129,-195 L 159,-195 L 159,-165 L 129,-165 Z" stroke="#000000" stroke-width="2.8" fill="none"/>
<text text-anchor="end" x="115.0" y="-171.0" fill="#000000" style="font-size:24px">CLOCK</text>
<path d="M 135,-175 L 140,-175 L 140,-185 L 145,-185 L 145,-175 L 150,-175 L 150,-185 L 155,-185" stroke="#000000" stroke-width="1.4" fill="none"/>
</g>
<g>
<path d="M 180,-180 L 194,-172 L 194,-188 Z" stroke="#000000" stroke-width="2.8" fill="none"/>
<text text-anchor="start" x="199.0" y="-173.25" fill="#808080" style="font-size:18px">CLOCK</text>
</g>
<g>
<path d="M 1100,320 L 1092,334 L 1108,334 Z" stroke="#000000" stroke-width="2.8" fill="none"/>
<text text-anchor="end" x="1100.0" y="345.75" fill="#808080" style="font-size:18px" transform="rotate(-90,1100.0,339.0)" >CLOCK</text>
</g>
<g>
</g>
<g>
<circle cx="1356.0" cy="-200.0" r="9.0" stroke="#000000" stroke-width="2.8" fill="none" />
<circle cx="1356.0" cy="-200.0" r="15.0" stroke="#000000" stroke-width="2.8" fill="none" />
<text text-anchor="start" x="1385.0" y="-191.0" fill="#000000" style="font-size:24px"><tspan style="font-style:italic;">CARRY FLAG</tspan></text>
</g>
<g>
<path d="M 1320,-200 L 1306,-208 L 1306,-192 Z" stroke="#000000" stroke-width="2.8" fill="none"/>
<text text-anchor="end" x="1301.0" y="-193.25" fill="#808080" style="font-size:18px">CARRY FLAG</text>
</g>
<g>
<circle cx="1356.0" cy="-160.0" r="9.0" stroke="#000000" stroke-width="2.8" fill="none" />
<circle cx="1356.0" cy="-160.0" r="15.0" stroke="#000000" stroke-width="2.8" fill="none" />
<text text-anchor="start" x="1385.0" y="-151.0" fill="#000000" style="font-size:24px"><tspan style="font-style:italic;">ZERO FLAG</tspan></text>
</g>
<g>
<path d="M 1320,-160 L 1306,-168 L 1306,-152 Z" stroke="#000000" stroke-width="2.8" fill="none"/>
<text text-anchor="end" x="1301.0" y="-153.25" fill="#808080" style="font-size:18px">ZERO FLAG</text>
</g>
<g>
<path d="M 980,300 L 972,314 L 988,314 Z" stroke="#000000" stroke-width="2.8" fill="none"/>
<text text-anchor="end" x="980.0" y="325.75" fill="#808080" style="font-size:18px" transform="rotate(-90,980.0,319.0)" >ZERO FLAG</text>
</g>
<g>
<path d="M 940,300 L 932,314 L 948,314 Z" stroke="#000000" stroke-width="2.8" fill="none"/>
<text text-anchor="end" x="940.0" y="325.75" fill="#808080" style="font-size:18px" transform="rotate(-90,940.0,319.0)" >CARRY FLAG</text>
</g>
<g>
<path d="M 129,-155 L 159,-155 L 159,-125 L 129,-125 Z" stroke="#000000" stroke-width="2.8" fill="none"/>
<circle cx="144.0" cy="-140.0" r="9.0" stroke="#000000" stroke-width="2.8" fill="none" />
<text text-anchor="end" x="115.0" y="-131.0" fill="#000000" style="font-size:24px"><tspan style="font-style:italic;">RESET</tspan></text>
</g>
<g>
<path d="M 180,-100 L 194,-92 L 194,-108 Z" stroke="#000000" stroke-width="2.8" fill="none"/>
<text text-anchor="start" x="199.0" y="-93.25" fill="#808080" style="font-size:18px">FLAGS IN</text>
</g>
<g>
<path d="M 1140,120 L 1148,106 L 1132,106 Z" stroke="#000000" stroke-width="2.8" fill="none"/>
<text text-anchor="start" x="1140.0" y="107.75" fill="#808080" style="font-size:18px" transform="rotate(-90,1140.0,101.0)" >FLAGS <tspan style="text-decoration:overline;">IN</tspan></text>
</g>
<g>
</g>
<g>
<path d="M 129,-115 L 159,-115 L 159,-85 L 129,-85 Z" stroke="#000000" stroke-width="2.8" fill="none"/>
<circle cx="144.0" cy="-100.0" r="9.0" stroke="#000000" stroke-width="2.8" fill="none" />
<text text-anchor="end" x="115.0" y="-91.0" fill="#000000" style="font-size:24px"><tspan style="font-style:italic;">FLAGS IN</tspan></text>
</g>
<g>
<path d="M 180,-140 L 194,-132 L 194,-148 Z" stroke="#000000" stroke-width="2.8" fill="none"/>
<text text-anchor="start" x="199.0" y="-133.25" fill="#808080" style="font-size:18px">RESET</text>
</g>
<g>
<path d="M 900,120 L 908,106 L 892,106 Z" stroke="#000000" stroke-width="2.8" fill="none"/>
<text text-anchor="start" x="900.0" y="107.75" fill="#808080" style="font-size:18px" transform="rotate(-90,900.0,101.0)" >RESET</text>
</g>
<g>
<path d="M 129,5 L 159,5 L 159,35 L 129,35 Z" stroke="#000000" stroke-width="2.8" fill="none"/>
<circle cx="144.0" cy="20.0" r="9.0" stroke="#000000" stroke-width="2.8" fill="none" />
<text text-anchor="end" x="115.0" y="29.0" fill="#000000" style="font-size:24px"><tspan style="font-style:italic;">ALU</tspan></text>
</g>
<g>
<path d="M 129,-55 L 159,-55 L 159,-25 L 129,-25 Z" stroke="#000000" stroke-width="2.8" fill="none"/>
<circle cx="144.0" cy="-40.0" r="9.0" stroke="#000000" stroke-width="2.8" fill="none" />
<text text-anchor="end" x="115.0" y="-31.0" fill="#000000" style="font-size:24px"><tspan style="font-style:italic;">ALU CARRY</tspan></text>
</g>
<g>
<path d="M 180,-40 L 194,-32 L 194,-48 Z" stroke="#000000" stroke-width="2.8" fill="none"/>
<text text-anchor="start" x="199.0" y="-33.25" fill="#808080" style="font-size:18px">ALU CARRY</text>
</g>
<g>
<path d="M 940,120 L 948,106 L 932,106 Z" stroke="#000000" stroke-width="2.8" fill="none"/>
<text text-anchor="start" x="940.0" y="107.75" fill="#808080" style="font-size:18px" transform="rotate(-90,940.0,101.0)" >ALU CARRY</text>
</g>
<g>
<text text-anchor="end" x="198.0" y="17.0" fill="#808080" style="font-size:12px">0-7</text>
<text text-anchor="start" x="222.0" y="17.0" fill="#808080" style="font-size:12px">0</text>
<text text-anchor="start" x="222.0" y="37.0" fill="#808080" style="font-size:12px">1</text>
<text text-anchor="start" x="222.0" y="57.0" fill="#808080" style="font-size:12px">2</text>
<text text-anchor="start" x="222.0" y="77.0" fill="#808080" style="font-size:12px">3</text>
<text text-anchor="start" x="222.0" y="97.0" fill="#808080" style="font-size:12px">4</text>
<text text-anchor="start" x="222.0" y="117.0" fill="#808080" style="font-size:12px">5</text>
<text text-anchor="start" x="222.0" y="137.0" fill="#808080" style="font-size:12px">6</text>
<text text-anchor="start" x="222.0" y="157.0" fill="#808080" style="font-size:12px">7</text>
<path d="M 208,18 L 212,18 L 212,162 L 208,162 Z" stroke="#000000" stroke-width="2.8" fill="#000000" fill-opacity="1.0"/>
</g>
<g>
<path d="M 241,30 L 241,10 L 259,20 Z" stroke="#000000" stroke-width="2.8" fill="none"/>
</g>
<g>
<path d="M 241,50 L 241,30 L 259,40 Z" stroke="#000000" stroke-width="2.8" fill="none"/>
</g>
<g>
<path d="M 241,70 L 241,50 L 259,60 Z" stroke="#000000" stroke-width="2.8" fill="none"/>
</g>
<g>
<path d="M 241,90 L 241,70 L 259,80 Z" stroke="#000000" stroke-width="2.8" fill="none"/>
</g>
<g>
<path d="M 241,110 L 241,90 L 259,100 Z" stroke="#000000" stroke-width="2.8" fill="none"/>
</g>
<g>
<path d="M 241,130 L 241,110 L 259,120 Z" stroke="#000000" stroke-width="2.8" fill="none"/>
</g>
<g>
<path d="M 241,150 L 241,130 L 259,140 Z" stroke="#000000" stroke-width="2.8" fill="none"/>
</g>
<g>
<path d="M 241,170 L 241,150 L 259,160 Z" stroke="#000000" stroke-width="2.8" fill="none"/>
</g>
<g>
<path d="M 530,270 L 530,278 L 550,278 L 550,270" stroke="#000000" stroke-width="2.8" fill="none"/>
<text text-anchor="start" x="540.0" y="271.75" fill="#808080" style="font-size:18px" transform="rotate(-90,540.0,265.0)" >1A</text>
<path d="M 530,170 L 530,162 L 550,162 L 550,170" stroke="#000000" stroke-width="2.8" fill="none"/>
<text text-anchor="end" x="540.0" y="181.75" fill="#808080" style="font-size:18px" transform="rotate(-90,540.0,175.0)" >VCC</text>
<path d="M 570,270 L 570,278 L 590,278 L 590,270" stroke="#000000" stroke-width="2.8" fill="none"/>
<text text-anchor="start" x="580.0" y="271.75" fill="#808080" style="font-size:18px" transform="rotate(-90,580.0,265.0)" >1Y</text>
<path d="M 570,170 L 570,162 L 590,162 L 590,170" stroke="#000000" stroke-width="2.8" fill="none"/>
<text text-anchor="end" x="580.0" y="181.75" fill="#808080" style="font-size:18px" transform="rotate(-90,580.0,175.0)" >6A</text>
<path d="M 610,270 L 610,278 L 630,278 L 630,270" stroke="#000000" stroke-width="2.8" fill="none"/>
<text text-anchor="start" x="620.0" y="271.75" fill="#808080" style="font-size:18px" transform="rotate(-90,620.0,265.0)" >2A</text>
<path d="M 610,170 L 610,162 L 630,162 L 630,170" stroke="#000000" stroke-width="2.8" fill="none"/>
<text text-anchor="end" x="620.0" y="181.75" fill="#808080" style="font-size:18px" transform="rotate(-90,620.0,175.0)" >6Y</text>
<path d="M 650,270 L 650,278 L 670,278 L 670,270" stroke="#000000" stroke-width="2.8" fill="none"/>
<text text-anchor="start" x="660.0" y="271.75" fill="#808080" style="font-size:18px" transform="rotate(-90,660.0,265.0)" >2Y</text>
<path d="M 650,170 L 650,162 L 670,162 L 670,170" stroke="#000000" stroke-width="2.8" fill="none"/>
<text text-anchor="end" x="660.0" y="181.75" fill="#808080" style="font-size:18px" transform="rotate(-90,660.0,175.0)" >5A</text>
<path d="M 690,270 L 690,278 L 710,278 L 710,270" stroke="#000000" stroke-width="2.8" fill="none"/>
<text text-anchor="start" x="700.0" y="271.75" fill="#808080" style="font-size:18px" transform="rotate(-90,700.0,265.0)" >3A</text>
<path d="M 690,170 L 690,162 L 710,162 L 710,170" stroke="#000000" stroke-width="2.8" fill="none"/>
<text text-anchor="end" x="700.0" y="181.75" fill="#808080" style="font-size:18px" transform="rotate(-90,700.0,175.0)" >5Y</text>
<path d="M 730,270 L 730,278 L 750,278 L 750,270" stroke="#000000" stroke-width="2.8" fill="none"/>
<text text-anchor="start" x="740.0" y="271.75" fill="#808080" style="font-size:18px" transform="rotate(-90,740.0,265.0)" >3Y</text>
<path d="M 730,170 L 730,162 L 750,162 L 750,170" stroke="#000000" stroke-width="2.8" fill="none"/>
<text text-anchor="end" x="740.0" y="181.75" fill="#808080" style="font-size:18px" transform="rotate(-90,740.0,175.0)" >4A</text>
<path d="M 770,270 L 770,278 L 790,278 L 790,270" stroke="#000000" stroke-width="2.8" fill="none"/>
<text text-anchor="start" x="780.0" y="271.75" fill="#808080" style="font-size:18px" transform="rotate(-90,780.0,265.0)" >GND</text>
<path d="M 770,170 L 770,162 L 790,162 L 790,170" stroke="#000000" stroke-width="2.8" fill="none"/>
<text text-anchor="end" x="780.0" y="181.75" fill="#808080" style="font-size:18px" transform="rotate(-90,780.0,175.0)" >4Y</text>
<path d="M 520,270 L 520,230 C 526,230 530,226 530,220 C 530,214 526,210 520,210 L 520,170 L 800,170 L 800,270 Z" stroke="#000000" stroke-width="2.8" fill="none"/>
<text text-anchor="start" x="550.0" y="229.0" fill="#000000" style="font-size:24px">7404</text>
</g>
<g>
<path d="M 530,144 L 540,131 L 550,144" stroke="#000000" stroke-width="2.8" fill="none"/>
</g>
<g>
</g>
<g>
<path d="M 300,20 L 314,28 L 314,12 Z" stroke="#000000" stroke-width="2.8" fill="none"/>
<text text-anchor="start" x="319.0" y="26.75" fill="#808080" style="font-size:18px">ALU <tspan style="text-decoration:overline;">ZERO</tspan></text>
</g>
<g>
<path d="M 540,300 L 532,314 L 548,314 Z" stroke="#000000" stroke-width="2.8" fill="none"/>
<text text-anchor="end" x="540.0" y="325.75" fill="#808080" style="font-size:18px" transform="rotate(-90,540.0,319.0)" >ALU <tspan style="text-decoration:overline;">ZERO</tspan></text>
</g>
<g>
<path d="M 580,300 L 572,314 L 588,314 Z" stroke="#000000" stroke-width="2.8" fill="none"/>
<text text-anchor="end" x="580.0" y="325.75" fill="#808080" style="font-size:18px" transform="rotate(-90,580.0,319.0)" >ALU ZERO</text>
</g>
<g>
<path d="M 980,120 L 988,106 L 972,106 Z" stroke="#000000" stroke-width="2.8" fill="none"/>
<text text-anchor="start" x="980.0" y="107.75" fill="#808080" style="font-size:18px" transform="rotate(-90,980.0,101.0)" >ALU ZERO</text>
</g>
<g>
<path d="M 660,140 L 668,126 L 652,126 Z" stroke="#000000" stroke-width="2.8" fill="none"/>
<text text-anchor="start" x="660.0" y="127.75" fill="#808080" style="font-size:18px" transform="rotate(-90,660.0,121.0)" >FLAGS IN</text>
</g>
<g>
<path d="M 700,140 L 708,126 L 692,126 Z" stroke="#000000" stroke-width="2.8" fill="none"/>
<text text-anchor="start" x="700.0" y="127.75" fill="#808080" style="font-size:18px" transform="rotate(-90,700.0,121.0)" >FLAGS <tspan style="text-decoration:overline;">IN</tspan></text>
</g>
<g>
</g>
<g>
<path d="M 273,181 L 273,206 L 287,206 L 287,181 Z" stroke="#000000" stroke-width="2.8" fill="none"/>
</g>
<g>
</g>
</g>
</svg>