<?xml version="1.0" encoding="UTF-8" standalone="no"?>
<!-- Created with Digital by H.Neemann -->
<!-- created: Sat Jan 09 18:35:08 CET 2021 -->

<svg
   xmlns:svg="http://www.w3.org/2000/svg"
   xmlns="http://www.w3.org/2000/svg"
   width="155.25mm"
   height="64.65mm"
   viewBox="211 109 1035 431">
<g stroke-linecap="square">
<path d="M 930,460 L 950,460" stroke="#000000" stroke-width="4.199999999999999" fill="none"/>
<path d="M 380,260 L 390,260 L 400,260" stroke="#000000" stroke-width="2.8" fill="none"/>
<path d="M 400,280 L 390,280" stroke="#000000" stroke-width="2.8" fill="none"/>
<path d="M 400,300 L 390,300" stroke="#000000" stroke-width="2.8" fill="none"/>
<path d="M 400,320 L 390,320" stroke="#000000" stroke-width="2.8" fill="none"/>
<path d="M 400,340 L 390,340" stroke="#000000" stroke-width="2.8" fill="none"/>
<path d="M 400,360 L 390,360" stroke="#000000" stroke-width="2.8" fill="none"/>
<path d="M 400,380 L 390,380" stroke="#000000" stroke-width="2.8" fill="none"/>
<path d="M 400,400 L 390,400" stroke="#000000" stroke-width="2.8" fill="none"/>
<path d="M 580,294 L 580,300" stroke="#000000" stroke-width="2.8" fill="none"/>
<path d="M 1180,260 L 1170,260 L 1160,260" stroke="#000000" stroke-width="2.8" fill="none"/>
<path d="M 1180,240 L 1170,240" stroke="#000000" stroke-width="2.8" fill="none"/>
<path d="M 1180,220 L 1170,220" stroke="#000000" stroke-width="2.8" fill="none"/>
<path d="M 1180,200 L 1170,200" stroke="#000000" stroke-width="2.8" fill="none"/>
<path d="M 1180,180 L 1170,180" stroke="#000000" stroke-width="2.8" fill="none"/>
<path d="M 1180,160 L 1170,160" stroke="#000000" stroke-width="2.8" fill="none"/>
<path d="M 1180,140 L 1170,140" stroke="#000000" stroke-width="2.8" fill="none"/>
<path d="M 1180,120 L 1170,120" stroke="#000000" stroke-width="2.8" fill="none"/>
<path d="M 400,320 L 420,320" stroke="#0000b2" stroke-width="2.8" fill="none"/>
<path d="M 1180,160 L 1200,160" stroke="#0000b2" stroke-width="2.8" fill="none"/>
<path d="M 340,260 L 380,260" stroke="#0000b2" stroke-width="2.8" fill="none"/>
<path d="M 400,260 L 420,260" stroke="#0000b2" stroke-width="2.8" fill="none"/>
<path d="M 1120,260 L 1160,260" stroke="#0000b2" stroke-width="2.8" fill="none"/>
<path d="M 1180,260 L 1200,260" stroke="#0000b2" stroke-width="2.8" fill="none"/>
<path d="M 340,200 L 360,200" stroke="#0000b2" stroke-width="2.8" fill="none"/>
<path d="M 1180,200 L 1200,200" stroke="#0000b2" stroke-width="2.8" fill="none"/>
<path d="M 400,360 L 420,360" stroke="#0000b2" stroke-width="2.8" fill="none"/>
<path d="M 340,140 L 360,140" stroke="#0000b2" stroke-width="2.8" fill="none"/>
<path d="M 1180,140 L 1200,140" stroke="#0000b2" stroke-width="2.8" fill="none"/>
<path d="M 400,300 L 420,300" stroke="#0000b2" stroke-width="2.8" fill="none"/>
<path d="M 400,400 L 420,400" stroke="#0000b2" stroke-width="2.8" fill="none"/>
<path d="M 1180,240 L 1200,240" stroke="#0000b2" stroke-width="2.8" fill="none"/>
<path d="M 400,340 L 420,340" stroke="#0000b2" stroke-width="2.8" fill="none"/>
<path d="M 1180,180 L 1200,180" stroke="#0000b2" stroke-width="2.8" fill="none"/>
<path d="M 400,280 L 420,280" stroke="#0000b2" stroke-width="2.8" fill="none"/>
<path d="M 1180,120 L 1200,120" stroke="#0000b2" stroke-width="2.8" fill="none"/>
<path d="M 400,380 L 420,380" stroke="#0000b2" stroke-width="2.8" fill="none"/>
<path d="M 1180,220 L 1200,220" stroke="#0000b2" stroke-width="2.8" fill="none"/>
<path d="M 900,440 L 900,460" stroke="#0000b2" stroke-width="2.8" fill="none"/>
<path d="M 900,300 L 900,320" stroke="#0000b2" stroke-width="2.8" fill="none"/>
<path d="M 580,300 L 580,320" stroke="#0000b2" stroke-width="2.8" fill="none"/>
<path d="M 580,440 L 580,460" stroke="#0000b2" stroke-width="2.8" fill="none"/>
<path d="M 740,440 L 740,460" stroke="#0000b2" stroke-width="2.8" fill="none"/>
<path d="M 740,300 L 740,320" stroke="#0000b2" stroke-width="2.8" fill="none"/>
<path d="M 660,440 L 660,460" stroke="#0000b2" stroke-width="2.8" fill="none"/>
<path d="M 660,300 L 660,320" stroke="#0000b2" stroke-width="2.8" fill="none"/>
<path d="M 820,440 L 820,460" stroke="#0000b2" stroke-width="2.8" fill="none"/>
<path d="M 820,300 L 820,320" stroke="#0000b2" stroke-width="2.8" fill="none"/>
<path d="M 860,440 L 860,460" stroke="#0000b2" stroke-width="2.8" fill="none"/>
<path d="M 860,300 L 860,320" stroke="#0000b2" stroke-width="2.8" fill="none"/>
<path d="M 700,440 L 700,460" stroke="#0000b2" stroke-width="2.8" fill="none"/>
<path d="M 700,300 L 700,320" stroke="#0000b2" stroke-width="2.8" fill="none"/>
<path d="M 940,440 L 940,460" stroke="#0000b2" stroke-width="2.8" fill="none"/>
<path d="M 940,300 L 940,320" stroke="#0000b2" stroke-width="2.8" fill="none"/>
<path d="M 620,440 L 620,460" stroke="#0000b2" stroke-width="2.8" fill="none"/>
<path d="M 620,300 L 620,320" stroke="#0000b2" stroke-width="2.8" fill="none"/>
<path d="M 780,440 L 780,460" stroke="#0000b2" stroke-width="2.8" fill="none"/>
<path d="M 780,300 L 780,320" stroke="#0000b2" stroke-width="2.8" fill="none"/>
<g>
</g>
<g>
<path d="M 309,125 L 339,125 L 339,155 L 309,155 Z" stroke="#000000" stroke-width="2.8" fill="none"/>
<text text-anchor="end" x="295.0" y="149.0" fill="#000000" style="font-size:24px">CLOCK</text>
<path d="M 315,145 L 320,145 L 320,135 L 325,135 L 325,145 L 330,145 L 330,135 L 335,135" stroke="#000000" stroke-width="1.4" fill="none"/>
</g>
<g>
<path d="M 309,245 L 339,245 L 339,275 L 309,275 Z" stroke="#000000" stroke-width="2.8" fill="none"/>
<circle cx="324.0" cy="260.0" r="9.0" stroke="#000000" stroke-width="2.8" fill="none" />
<text text-anchor="end" x="295.0" y="269.0" fill="#000000" style="font-size:24px"><tspan style="font-style:italic;">BUS</tspan></text>
</g>
<g>
<path d="M 360,140 L 374,148 L 374,132 Z" stroke="#000000" stroke-width="2.8" fill="none"/>
<text text-anchor="start" x="379.0" y="146.75" fill="#808080" style="font-size:18px">CLOCK</text>
</g>
<g>
<path d="M 360,200 L 374,208 L 374,192 Z" stroke="#000000" stroke-width="2.8" fill="none"/>
<text text-anchor="start" x="379.0" y="206.75" fill="#808080" style="font-size:18px">BUS <tspan style="text-decoration:overline;">IN</tspan></text>
</g>
<g>
<text text-anchor="end" x="378.0" y="257.0" fill="#808080" style="font-size:12px">0-7</text>
<text text-anchor="start" x="402.0" y="257.0" fill="#808080" style="font-size:12px">0</text>
<text text-anchor="start" x="402.0" y="277.0" fill="#808080" style="font-size:12px">1</text>
<text text-anchor="start" x="402.0" y="297.0" fill="#808080" style="font-size:12px">2</text>
<text text-anchor="start" x="402.0" y="317.0" fill="#808080" style="font-size:12px">3</text>
<text text-anchor="start" x="402.0" y="337.0" fill="#808080" style="font-size:12px">4</text>
<text text-anchor="start" x="402.0" y="357.0" fill="#808080" style="font-size:12px">5</text>
<text text-anchor="start" x="402.0" y="377.0" fill="#808080" style="font-size:12px">6</text>
<text text-anchor="start" x="402.0" y="397.0" fill="#808080" style="font-size:12px">7</text>
<path d="M 388,258 L 392,258 L 392,402 L 388,402 Z" stroke="#000000" stroke-width="2.8" fill="#000000" fill-opacity="1.0"/>
</g>
<g>
<path d="M 420,280 L 434,288 L 434,272 Z" stroke="#000000" stroke-width="2.8" fill="none"/>
<text text-anchor="start" x="439.0" y="286.75" fill="#808080" style="font-size:18px">D1</text>
</g>
<g>
<path d="M 420,260 L 434,268 L 434,252 Z" stroke="#000000" stroke-width="2.8" fill="none"/>
<text text-anchor="start" x="439.0" y="266.75" fill="#808080" style="font-size:18px">D0</text>
</g>
<g>
<path d="M 420,320 L 434,328 L 434,312 Z" stroke="#000000" stroke-width="2.8" fill="none"/>
<text text-anchor="start" x="439.0" y="326.75" fill="#808080" style="font-size:18px">D3</text>
</g>
<g>
<path d="M 420,300 L 434,308 L 434,292 Z" stroke="#000000" stroke-width="2.8" fill="none"/>
<text text-anchor="start" x="439.0" y="306.75" fill="#808080" style="font-size:18px">D2</text>
</g>
<g>
<path d="M 420,360 L 434,368 L 434,352 Z" stroke="#000000" stroke-width="2.8" fill="none"/>
<text text-anchor="start" x="439.0" y="366.75" fill="#808080" style="font-size:18px">D5</text>
</g>
<g>
<path d="M 420,340 L 434,348 L 434,332 Z" stroke="#000000" stroke-width="2.8" fill="none"/>
<text text-anchor="start" x="439.0" y="346.75" fill="#808080" style="font-size:18px">D4</text>
</g>
<g>
<path d="M 420,400 L 434,408 L 434,392 Z" stroke="#000000" stroke-width="2.8" fill="none"/>
<text text-anchor="start" x="439.0" y="406.75" fill="#808080" style="font-size:18px">D7</text>
</g>
<g>
<path d="M 420,380 L 434,388 L 434,372 Z" stroke="#000000" stroke-width="2.8" fill="none"/>
<text text-anchor="start" x="439.0" y="386.75" fill="#808080" style="font-size:18px">D6</text>
</g>
<g>
<path d="M 309,185 L 339,185 L 339,215 L 309,215 Z" stroke="#000000" stroke-width="2.8" fill="none"/>
<circle cx="324.0" cy="200.0" r="9.0" stroke="#000000" stroke-width="2.8" fill="none" />
<text text-anchor="end" x="295.0" y="209.0" fill="#000000" style="font-size:24px"><tspan style="font-style:italic;">BUS <tspan style="text-decoration:overline;">IN</tspan></tspan></text>
</g>
<g>
<path d="M 570,430 L 570,438 L 590,438 L 590,430" stroke="#000000" stroke-width="2.8" fill="none"/>
<text text-anchor="start" x="580.0" y="431.75" fill="#808080" style="font-size:18px" transform="rotate(-90,580.0,425.0)" ><tspan style="text-decoration:overline;">E</tspan></text>
<path d="M 570,330 L 570,322 L 590,322 L 590,330" stroke="#000000" stroke-width="2.8" fill="none"/>
<text text-anchor="end" x="580.0" y="341.75" fill="#808080" style="font-size:18px" transform="rotate(-90,580.0,335.0)" >VCC</text>
<path d="M 610,430 L 610,438 L 630,438 L 630,430" stroke="#000000" stroke-width="2.8" fill="none"/>
<text text-anchor="start" x="620.0" y="431.75" fill="#808080" style="font-size:18px" transform="rotate(-90,620.0,425.0)" >Q0</text>
<path d="M 610,330 L 610,322 L 630,322 L 630,330" stroke="#000000" stroke-width="2.8" fill="none"/>
<text text-anchor="end" x="620.0" y="341.75" fill="#808080" style="font-size:18px" transform="rotate(-90,620.0,335.0)" >Q7</text>
<path d="M 650,430 L 650,438 L 670,438 L 670,430" stroke="#000000" stroke-width="2.8" fill="none"/>
<text text-anchor="start" x="660.0" y="431.75" fill="#808080" style="font-size:18px" transform="rotate(-90,660.0,425.0)" >D0</text>
<path d="M 650,330 L 650,322 L 670,322 L 670,330" stroke="#000000" stroke-width="2.8" fill="none"/>
<text text-anchor="end" x="660.0" y="341.75" fill="#808080" style="font-size:18px" transform="rotate(-90,660.0,335.0)" >D7</text>
<path d="M 690,430 L 690,438 L 710,438 L 710,430" stroke="#000000" stroke-width="2.8" fill="none"/>
<text text-anchor="start" x="700.0" y="431.75" fill="#808080" style="font-size:18px" transform="rotate(-90,700.0,425.0)" >D1</text>
<path d="M 690,330 L 690,322 L 710,322 L 710,330" stroke="#000000" stroke-width="2.8" fill="none"/>
<text text-anchor="end" x="700.0" y="341.75" fill="#808080" style="font-size:18px" transform="rotate(-90,700.0,335.0)" >D6</text>
<path d="M 730,430 L 730,438 L 750,438 L 750,430" stroke="#000000" stroke-width="2.8" fill="none"/>
<text text-anchor="start" x="740.0" y="431.75" fill="#808080" style="font-size:18px" transform="rotate(-90,740.0,425.0)" >Q1</text>
<path d="M 730,330 L 730,322 L 750,322 L 750,330" stroke="#000000" stroke-width="2.8" fill="none"/>
<text text-anchor="end" x="740.0" y="341.75" fill="#808080" style="font-size:18px" transform="rotate(-90,740.0,335.0)" >Q6</text>
<path d="M 770,430 L 770,438 L 790,438 L 790,430" stroke="#000000" stroke-width="2.8" fill="none"/>
<text text-anchor="start" x="780.0" y="431.75" fill="#808080" style="font-size:18px" transform="rotate(-90,780.0,425.0)" >Q2</text>
<path d="M 770,330 L 770,322 L 790,322 L 790,330" stroke="#000000" stroke-width="2.8" fill="none"/>
<text text-anchor="end" x="780.0" y="341.75" fill="#808080" style="font-size:18px" transform="rotate(-90,780.0,335.0)" >Q5</text>
<path d="M 810,430 L 810,438 L 830,438 L 830,430" stroke="#000000" stroke-width="2.8" fill="none"/>
<text text-anchor="start" x="820.0" y="431.75" fill="#808080" style="font-size:18px" transform="rotate(-90,820.0,425.0)" >D2</text>
<path d="M 810,330 L 810,322 L 830,322 L 830,330" stroke="#000000" stroke-width="2.8" fill="none"/>
<text text-anchor="end" x="820.0" y="341.75" fill="#808080" style="font-size:18px" transform="rotate(-90,820.0,335.0)" >D5</text>
<path d="M 850,430 L 850,438 L 870,438 L 870,430" stroke="#000000" stroke-width="2.8" fill="none"/>
<text text-anchor="start" x="860.0" y="431.75" fill="#808080" style="font-size:18px" transform="rotate(-90,860.0,425.0)" >D3</text>
<path d="M 850,330 L 850,322 L 870,322 L 870,330" stroke="#000000" stroke-width="2.8" fill="none"/>
<text text-anchor="end" x="860.0" y="341.75" fill="#808080" style="font-size:18px" transform="rotate(-90,860.0,335.0)" >D4</text>
<path d="M 890,430 L 890,438 L 910,438 L 910,430" stroke="#000000" stroke-width="2.8" fill="none"/>
<text text-anchor="start" x="900.0" y="431.75" fill="#808080" style="font-size:18px" transform="rotate(-90,900.0,425.0)" >Q3</text>
<path d="M 890,330 L 890,322 L 910,322 L 910,330" stroke="#000000" stroke-width="2.8" fill="none"/>
<text text-anchor="end" x="900.0" y="341.75" fill="#808080" style="font-size:18px" transform="rotate(-90,900.0,335.0)" >Q4</text>
<path d="M 930,430 L 930,438 L 950,438 L 950,430" stroke="#000000" stroke-width="2.8" fill="none"/>
<text text-anchor="start" x="940.0" y="431.75" fill="#808080" style="font-size:18px" transform="rotate(-90,940.0,425.0)" >GND</text>
<path d="M 930,330 L 930,322 L 950,322 L 950,330" stroke="#000000" stroke-width="2.8" fill="none"/>
<text text-anchor="end" x="940.0" y="341.75" fill="#808080" style="font-size:18px" transform="rotate(-90,940.0,335.0)" >CLK</text>
<path d="M 560,430 L 560,390 C 566,390 570,386 570,380 C 570,374 566,370 560,370 L 560,330 L 960,330 L 960,430 Z" stroke="#000000" stroke-width="2.8" fill="none"/>
<text text-anchor="start" x="590.0" y="389.0" fill="#000000" style="font-size:24px">74377</text>
</g>
<g>
</g>
<g>
<path d="M 570,304 L 580,291 L 590,304" stroke="#000000" stroke-width="2.8" fill="none"/>
</g>
<g>
<path d="M 620,460 L 612,474 L 628,474 Z" stroke="#000000" stroke-width="2.8" fill="none"/>
<text text-anchor="end" x="620.0" y="485.75" fill="#808080" style="font-size:18px" transform="rotate(-90,620.0,479.0)" >Q0</text>
</g>
<g>
<path d="M 740,460 L 732,474 L 748,474 Z" stroke="#000000" stroke-width="2.8" fill="none"/>
<text text-anchor="end" x="740.0" y="485.75" fill="#808080" style="font-size:18px" transform="rotate(-90,740.0,479.0)" >Q1</text>
</g>
<g>
<path d="M 780,460 L 772,474 L 788,474 Z" stroke="#000000" stroke-width="2.8" fill="none"/>
<text text-anchor="end" x="780.0" y="485.75" fill="#808080" style="font-size:18px" transform="rotate(-90,780.0,479.0)" >Q2</text>
</g>
<g>
<path d="M 900,460 L 892,474 L 908,474 Z" stroke="#000000" stroke-width="2.8" fill="none"/>
<text text-anchor="end" x="900.0" y="485.75" fill="#808080" style="font-size:18px" transform="rotate(-90,900.0,479.0)" >Q3</text>
</g>
<g>
<path d="M 940,300 L 948,286 L 932,286 Z" stroke="#000000" stroke-width="2.8" fill="none"/>
<text text-anchor="start" x="940.0" y="287.75" fill="#808080" style="font-size:18px" transform="rotate(-90,940.0,281.0)" >CLOCK</text>
</g>
<g>
<path d="M 900,300 L 908,286 L 892,286 Z" stroke="#000000" stroke-width="2.8" fill="none"/>
<text text-anchor="start" x="900.0" y="287.75" fill="#808080" style="font-size:18px" transform="rotate(-90,900.0,281.0)" >Q4</text>
</g>
<g>
<path d="M 780,300 L 788,286 L 772,286 Z" stroke="#000000" stroke-width="2.8" fill="none"/>
<text text-anchor="start" x="780.0" y="287.75" fill="#808080" style="font-size:18px" transform="rotate(-90,780.0,281.0)" >Q5</text>
</g>
<g>
<path d="M 740,300 L 748,286 L 732,286 Z" stroke="#000000" stroke-width="2.8" fill="none"/>
<text text-anchor="start" x="740.0" y="287.75" fill="#808080" style="font-size:18px" transform="rotate(-90,740.0,281.0)" >Q6</text>
</g>
<g>
<path d="M 620,300 L 628,286 L 612,286 Z" stroke="#000000" stroke-width="2.8" fill="none"/>
<text text-anchor="start" x="620.0" y="287.75" fill="#808080" style="font-size:18px" transform="rotate(-90,620.0,281.0)" >Q7</text>
</g>
<g>
<path d="M 580,460 L 572,474 L 588,474 Z" stroke="#000000" stroke-width="2.8" fill="none"/>
<text text-anchor="end" x="580.0" y="485.75" fill="#808080" style="font-size:18px" transform="rotate(-90,580.0,479.0)" >BUS <tspan style="text-decoration:overline;">IN</tspan></text>
</g>
<g>
<path d="M 660,460 L 652,474 L 668,474 Z" stroke="#000000" stroke-width="2.8" fill="none"/>
<text text-anchor="end" x="660.0" y="485.75" fill="#808080" style="font-size:18px" transform="rotate(-90,660.0,479.0)" >D0</text>
</g>
<g>
<path d="M 700,460 L 692,474 L 708,474 Z" stroke="#000000" stroke-width="2.8" fill="none"/>
<text text-anchor="end" x="700.0" y="485.75" fill="#808080" style="font-size:18px" transform="rotate(-90,700.0,479.0)" >D1</text>
</g>
<g>
<path d="M 820,460 L 812,474 L 828,474 Z" stroke="#000000" stroke-width="2.8" fill="none"/>
<text text-anchor="end" x="820.0" y="485.75" fill="#808080" style="font-size:18px" transform="rotate(-90,820.0,479.0)" >D2</text>
</g>
<g>
<path d="M 860,460 L 852,474 L 868,474 Z" stroke="#000000" stroke-width="2.8" fill="none"/>
<text text-anchor="end" x="860.0" y="485.75" fill="#808080" style="font-size:18px" transform="rotate(-90,860.0,479.0)" >D3</text>
</g>
<g>
<path d="M 860,300 L 868,286 L 852,286 Z" stroke="#000000" stroke-width="2.8" fill="none"/>
<text text-anchor="start" x="860.0" y="287.75" fill="#808080" style="font-size:18px" transform="rotate(-90,860.0,281.0)" >D4</text>
</g>
<g>
<path d="M 820,300 L 828,286 L 812,286 Z" stroke="#000000" stroke-width="2.8" fill="none"/>
<text text-anchor="start" x="820.0" y="287.75" fill="#808080" style="font-size:18px" transform="rotate(-90,820.0,281.0)" >D5</text>
</g>
<g>
<path d="M 700,300 L 708,286 L 692,286 Z" stroke="#000000" stroke-width="2.8" fill="none"/>
<text text-anchor="start" x="700.0" y="287.75" fill="#808080" style="font-size:18px" transform="rotate(-90,700.0,281.0)" >D6</text>
</g>
<g>
<path d="M 660,300 L 668,286 L 652,286 Z" stroke="#000000" stroke-width="2.8" fill="none"/>
<text text-anchor="start" x="660.0" y="287.75" fill="#808080" style="font-size:18px" transform="rotate(-90,660.0,281.0)" >D7</text>
</g>
<g>
<circle cx="1104.0" cy="260.0" r="9.0" stroke="#000000" stroke-width="2.8" fill="none" />
<circle cx="1104.0" cy="260.0" r="15.0" stroke="#000000" stroke-width="2.8" fill="none" />
<text text-anchor="end" x="1075.0" y="269.0" fill="#000000" style="font-size:24px"><tspan style="font-style:italic;">OUT</tspan></text>
</g>
<g>
<text text-anchor="start" x="1182.0" y="272.0" fill="#808080" style="font-size:12px">0</text>
<text text-anchor="start" x="1182.0" y="252.0" fill="#808080" style="font-size:12px">1</text>
<text text-anchor="start" x="1182.0" y="232.0" fill="#808080" style="font-size:12px">2</text>
<text text-anchor="start" x="1182.0" y="212.0" fill="#808080" style="font-size:12px">3</text>
<text text-anchor="start" x="1182.0" y="192.0" fill="#808080" style="font-size:12px">4</text>
<text text-anchor="start" x="1182.0" y="172.0" fill="#808080" style="font-size:12px">5</text>
<text text-anchor="start" x="1182.0" y="152.0" fill="#808080" style="font-size:12px">6</text>
<text text-anchor="start" x="1182.0" y="132.0" fill="#808080" style="font-size:12px">7</text>
<text text-anchor="end" x="1158.0" y="272.0" fill="#808080" style="font-size:12px">0-7</text>
<path d="M 1172,262 L 1168,262 L 1168,118 L 1172,118 Z" stroke="#000000" stroke-width="2.8" fill="#000000" fill-opacity="1.0"/>
</g>
<g>
<path d="M 1200,260 L 1214,268 L 1214,252 Z" stroke="#000000" stroke-width="2.8" fill="none"/>
<text text-anchor="start" x="1219.0" y="266.75" fill="#808080" style="font-size:18px">Q0</text>
</g>
<g>
<path d="M 1200,220 L 1214,228 L 1214,212 Z" stroke="#000000" stroke-width="2.8" fill="none"/>
<text text-anchor="start" x="1219.0" y="226.75" fill="#808080" style="font-size:18px">Q2</text>
</g>
<g>
<path d="M 1200,240 L 1214,248 L 1214,232 Z" stroke="#000000" stroke-width="2.8" fill="none"/>
<text text-anchor="start" x="1219.0" y="246.75" fill="#808080" style="font-size:18px">Q1</text>
</g>
<g>
<path d="M 1200,200 L 1214,208 L 1214,192 Z" stroke="#000000" stroke-width="2.8" fill="none"/>
<text text-anchor="start" x="1219.0" y="206.75" fill="#808080" style="font-size:18px">Q3</text>
</g>
<g>
<path d="M 1200,180 L 1214,188 L 1214,172 Z" stroke="#000000" stroke-width="2.8" fill="none"/>
<text text-anchor="start" x="1219.0" y="186.75" fill="#808080" style="font-size:18px">Q4</text>
</g>
<g>
<path d="M 1200,140 L 1214,148 L 1214,132 Z" stroke="#000000" stroke-width="2.8" fill="none"/>
<text text-anchor="start" x="1219.0" y="146.75" fill="#808080" style="font-size:18px">Q6</text>
</g>
<g>
<path d="M 1200,160 L 1214,168 L 1214,152 Z" stroke="#000000" stroke-width="2.8" fill="none"/>
<text text-anchor="start" x="1219.0" y="166.75" fill="#808080" style="font-size:18px">Q5</text>
</g>
<g>
<path d="M 1200,120 L 1214,128 L 1214,112 Z" stroke="#000000" stroke-width="2.8" fill="none"/>
<text text-anchor="start" x="1219.0" y="126.75" fill="#808080" style="font-size:18px">Q7</text>
</g>
</g>
</svg>