<?xml version="1.0" encoding="UTF-8" standalone="no"?>
<!-- Created with Digital by H.Neemann -->
<!-- created: Sat Jan 09 18:13:52 CET 2021 -->

<svg
   xmlns:svg="http://www.w3.org/2000/svg"
   xmlns="http://www.w3.org/2000/svg"
   width="228.45mm"
   height="88.35mm"
   viewBox="-25 -217 1523 589">
<g stroke-linecap="square">
<path d="M 800,74 L 800,80" stroke="#000000" stroke-width="2.8" fill="none"/>
<path d="M 200,0 L 210,0 L 220,0" stroke="#000000" stroke-width="2.8" fill="none"/>
<path d="M 220,20 L 210,20" stroke="#000000" stroke-width="2.8" fill="none"/>
<path d="M 220,40 L 210,40" stroke="#000000" stroke-width="2.8" fill="none"/>
<path d="M 220,60 L 210,60" stroke="#000000" stroke-width="2.8" fill="none"/>
<path d="M 220,80 L 210,80" stroke="#000000" stroke-width="2.8" fill="none"/>
<path d="M 220,100 L 210,100" stroke="#000000" stroke-width="2.8" fill="none"/>
<path d="M 220,120 L 210,120" stroke="#000000" stroke-width="2.8" fill="none"/>
<path d="M 220,140 L 210,140" stroke="#000000" stroke-width="2.8" fill="none"/>
<path d="M 259,150 L 259,130 L 259,110 L 259,90 L 259,70 L 259,50 L 259,30 L 259,10 L 259,-10" stroke="#000000" stroke-width="2.8" fill="none"/>
<path d="M 480,74 L 480,80" stroke="#000000" stroke-width="2.8" fill="none"/>
<path d="M 280,186 L 280,200" stroke="#000000" stroke-width="2.8" fill="none"/>
<path d="M 160,0 L 200,0" stroke="#0000b2" stroke-width="2.8" fill="none"/>
<path d="M 220,0 L 240,0" stroke="#0000b2" stroke-width="2.8" fill="none"/>
<path d="M 260,0 L 280,0 L 300,0" stroke="#0000b2" stroke-width="2.8" fill="none"/>
<path d="M 220,100 L 240,100" stroke="#0000b2" stroke-width="2.8" fill="none"/>
<path d="M 260,100 L 280,100 L 280,80" stroke="#0000b2" stroke-width="2.8" fill="none"/>
<path d="M 1280,-200 L 1300,-200" stroke="#0000b2" stroke-width="2.8" fill="none"/>
<path d="M 220,40 L 240,40" stroke="#0000b2" stroke-width="2.8" fill="none"/>
<path d="M 260,40 L 280,40 L 280,60 L 260,60" stroke="#0000b2" stroke-width="2.8" fill="none"/>
<path d="M 220,140 L 240,140" stroke="#0000b2" stroke-width="2.8" fill="none"/>
<path d="M 260,140 L 280,140 L 280,120" stroke="#0000b2" stroke-width="2.8" fill="none"/>
<path d="M 1040,100 L 1040,80 L 1080,80 L 1080,60" stroke="#0000b2" stroke-width="2.8" fill="none"/>
<path d="M 960,100 L 960,80 L 1000,80 L 1000,60" stroke="#0000b2" stroke-width="2.8" fill="none"/>
<path d="M 220,80 L 240,80" stroke="#0000b2" stroke-width="2.8" fill="none"/>
<path d="M 260,80 L 280,80 L 280,60" stroke="#0000b2" stroke-width="2.8" fill="none"/>
<path d="M 560,220 L 560,240 L 640,240 L 720,240 L 720,220" stroke="#0000b2" stroke-width="2.8" fill="none"/>
<path d="M 800,220 L 800,240 L 840,240 L 840,220" stroke="#0000b2" stroke-width="2.8" fill="none"/>
<path d="M 160,-180 L 180,-180" stroke="#0000b2" stroke-width="2.8" fill="none"/>
<path d="M 220,20 L 240,20" stroke="#0000b2" stroke-width="2.8" fill="none"/>
<path d="M 260,20 L 280,20 L 280,0" stroke="#0000b2" stroke-width="2.8" fill="none"/>
<path d="M 160,-120 L 180,-120" stroke="#0000b2" stroke-width="2.8" fill="none"/>
<path d="M 220,120 L 240,120" stroke="#0000b2" stroke-width="2.8" fill="none"/>
<path d="M 260,120 L 280,120 L 280,100" stroke="#0000b2" stroke-width="2.8" fill="none"/>
<path d="M 160,-60 L 180,-60" stroke="#0000b2" stroke-width="2.8" fill="none"/>
<path d="M 220,60 L 240,60" stroke="#0000b2" stroke-width="2.8" fill="none"/>
<path d="M 1280,-160 L 1300,-160" stroke="#0000b2" stroke-width="2.8" fill="none"/>
<path d="M 800,80 L 800,100" stroke="#0000b2" stroke-width="2.8" fill="none"/>
<path d="M 800,240 L 800,260" stroke="#0000b2" stroke-width="2.8" fill="none"/>
<path d="M 480,80 L 480,100" stroke="#0000b2" stroke-width="2.8" fill="none"/>
<path d="M 480,220 L 480,240" stroke="#0000b2" stroke-width="2.8" fill="none"/>
<path d="M 640,80 L 640,100" stroke="#0000b2" stroke-width="2.8" fill="none"/>
<path d="M 640,220 L 640,240" stroke="#0000b2" stroke-width="2.8" fill="none"/>
<path d="M 520,220 L 520,240" stroke="#0000b2" stroke-width="2.8" fill="none"/>
<path d="M 520,80 L 520,100" stroke="#0000b2" stroke-width="2.8" fill="none"/>
<path d="M 680,80 L 680,100" stroke="#0000b2" stroke-width="2.8" fill="none"/>
<path d="M 840,80 L 840,100" stroke="#0000b2" stroke-width="2.8" fill="none"/>
<path d="M 1000,80 L 1000,100" stroke="#0000b2" stroke-width="2.8" fill="none"/>
<path d="M 720,240 L 720,260" stroke="#0000b2" stroke-width="2.8" fill="none"/>
<path d="M 1040,220 L 1040,260" stroke="#0000b2" stroke-width="2.8" fill="none"/>
<path d="M 880,220 L 880,240" stroke="#0000b2" stroke-width="2.8" fill="none"/>
<path d="M 880,60 L 880,100" stroke="#0000b2" stroke-width="2.8" fill="none"/>
<path d="M 1080,220 L 1080,240" stroke="#0000b2" stroke-width="2.8" fill="none"/>
<path d="M 1080,80 L 1080,100" stroke="#0000b2" stroke-width="2.8" fill="none"/>
<path d="M 920,220 L 920,240" stroke="#0000b2" stroke-width="2.8" fill="none"/>
<path d="M 920,60 L 920,100" stroke="#0000b2" stroke-width="2.8" fill="none"/>
<path d="M 600,80 L 600,100" stroke="#0000b2" stroke-width="2.8" fill="none"/>
<path d="M 280,140 L 280,160" stroke="#0000b2" stroke-width="2.8" fill="none"/>
<path d="M 280,20 L 280,40" stroke="#0000b2" stroke-width="2.8" fill="none"/>
<path d="M 1070,240 L 1090,240" stroke="#000000" stroke-width="4.199999999999999" fill="none"/>
<path d="M 790,260 L 810,260" stroke="#000000" stroke-width="4.199999999999999" fill="none"/>
<path d="M 990,60 L 1010,60" stroke="#000000" stroke-width="4.199999999999999" fill="none"/>
<path d="M 710,260 L 730,260" stroke="#000000" stroke-width="4.199999999999999" fill="none"/>
<path d="M 690,80 L 670,80" stroke="#000000" stroke-width="4.199999999999999" fill="none"/>
<path d="M 270,200 L 290,200" stroke="#000000" stroke-width="4.199999999999999" fill="none"/>
<path d="M 530,80 L 510,80" stroke="#000000" stroke-width="4.199999999999999" fill="none"/>
<path d="M 850,80 L 830,80" stroke="#000000" stroke-width="4.199999999999999" fill="none"/>
<g>
<circle cx="280.0" cy="0.0" r="4.0" stroke="#0000b2" stroke-width="2.8" fill="#0000b2" />
<circle cx="280.0" cy="100.0" r="4.0" stroke="#0000b2" stroke-width="2.8" fill="#0000b2" />
<circle cx="280.0" cy="40.0" r="4.0" stroke="#0000b2" stroke-width="2.8" fill="#0000b2" />
<circle cx="280.0" cy="140.0" r="4.0" stroke="#0000b2" stroke-width="2.8" fill="#0000b2" />
<circle cx="1080.0" cy="80.0" r="4.0" stroke="#0000b2" stroke-width="2.8" fill="#0000b2" />
<circle cx="1000.0" cy="80.0" r="4.0" stroke="#0000b2" stroke-width="2.8" fill="#0000b2" />
<circle cx="280.0" cy="80.0" r="4.0" stroke="#0000b2" stroke-width="2.8" fill="#0000b2" />
<circle cx="640.0" cy="240.0" r="4.0" stroke="#0000b2" stroke-width="2.8" fill="#0000b2" />
<circle cx="800.0" cy="240.0" r="4.0" stroke="#0000b2" stroke-width="2.8" fill="#0000b2" />
<circle cx="720.0" cy="240.0" r="4.0" stroke="#0000b2" stroke-width="2.8" fill="#0000b2" />
<circle cx="280.0" cy="20.0" r="4.0" stroke="#0000b2" stroke-width="2.8" fill="#0000b2" />
<circle cx="280.0" cy="120.0" r="4.0" stroke="#0000b2" stroke-width="2.8" fill="#0000b2" />
<circle cx="280.0" cy="60.0" r="4.0" stroke="#0000b2" stroke-width="2.8" fill="#0000b2" />
</g>
<g>
<path d="M 790,210 L 790,218 L 810,218 L 810,210" stroke="#000000" stroke-width="2.8" fill="none"/>
<text text-anchor="start" x="800.0" y="211.75" fill="#808080" style="font-size:18px" transform="rotate(-90,800.0,205.0)" >OE1</text>
<path d="M 790,110 L 790,102 L 810,102 L 810,110" stroke="#000000" stroke-width="2.8" fill="none"/>
<text text-anchor="end" x="800.0" y="121.75" fill="#808080" style="font-size:18px" transform="rotate(-90,800.0,115.0)" >VCC</text>
<path d="M 830,210 L 830,218 L 850,218 L 850,210" stroke="#000000" stroke-width="2.8" fill="none"/>
<text text-anchor="start" x="840.0" y="211.75" fill="#808080" style="font-size:18px" transform="rotate(-90,840.0,205.0)" >OE2</text>
<path d="M 830,110 L 830,102 L 850,102 L 850,110" stroke="#000000" stroke-width="2.8" fill="none"/>
<text text-anchor="end" x="840.0" y="121.75" fill="#808080" style="font-size:18px" transform="rotate(-90,840.0,115.0)" >RES</text>
<path d="M 870,210 L 870,218 L 890,218 L 890,210" stroke="#000000" stroke-width="2.8" fill="none"/>
<text text-anchor="start" x="880.0" y="211.75" fill="#808080" style="font-size:18px" transform="rotate(-90,880.0,205.0)" >Q0</text>
<path d="M 870,110 L 870,102 L 890,102 L 890,110" stroke="#000000" stroke-width="2.8" fill="none"/>
<text text-anchor="end" x="880.0" y="121.75" fill="#808080" style="font-size:18px" transform="rotate(-90,880.0,115.0)" >D0</text>
<path d="M 910,210 L 910,218 L 930,218 L 930,210" stroke="#000000" stroke-width="2.8" fill="none"/>
<text text-anchor="start" x="920.0" y="211.75" fill="#808080" style="font-size:18px" transform="rotate(-90,920.0,205.0)" >Q1</text>
<path d="M 910,110 L 910,102 L 930,102 L 930,110" stroke="#000000" stroke-width="2.8" fill="none"/>
<text text-anchor="end" x="920.0" y="121.75" fill="#808080" style="font-size:18px" transform="rotate(-90,920.0,115.0)" >D1</text>
<path d="M 950,210 L 950,218 L 970,218 L 970,210" stroke="#000000" stroke-width="2.8" fill="none"/>
<text text-anchor="start" x="960.0" y="211.75" fill="#808080" style="font-size:18px" transform="rotate(-90,960.0,205.0)" >Q2</text>
<path d="M 950,110 L 950,102 L 970,102 L 970,110" stroke="#000000" stroke-width="2.8" fill="none"/>
<text text-anchor="end" x="960.0" y="121.75" fill="#808080" style="font-size:18px" transform="rotate(-90,960.0,115.0)" >D2</text>
<path d="M 990,210 L 990,218 L 1010,218 L 1010,210" stroke="#000000" stroke-width="2.8" fill="none"/>
<text text-anchor="start" x="1000.0" y="211.75" fill="#808080" style="font-size:18px" transform="rotate(-90,1000.0,205.0)" >Q3</text>
<path d="M 990,110 L 990,102 L 1010,102 L 1010,110" stroke="#000000" stroke-width="2.8" fill="none"/>
<text text-anchor="end" x="1000.0" y="121.75" fill="#808080" style="font-size:18px" transform="rotate(-90,1000.0,115.0)" >D3</text>
<path d="M 1030,210 L 1030,218 L 1050,218 L 1050,210" stroke="#000000" stroke-width="2.8" fill="none"/>
<text text-anchor="start" x="1040.0" y="211.75" fill="#808080" style="font-size:18px" transform="rotate(-90,1040.0,205.0)" >CLK</text>
<path d="M 1030,110 L 1030,102 L 1050,102 L 1050,110" stroke="#000000" stroke-width="2.8" fill="none"/>
<text text-anchor="end" x="1040.0" y="121.75" fill="#808080" style="font-size:18px" transform="rotate(-90,1040.0,115.0)" >DE2</text>
<path d="M 1070,210 L 1070,218 L 1090,218 L 1090,210" stroke="#000000" stroke-width="2.8" fill="none"/>
<text text-anchor="start" x="1080.0" y="211.75" fill="#808080" style="font-size:18px" transform="rotate(-90,1080.0,205.0)" >GND</text>
<path d="M 1070,110 L 1070,102 L 1090,102 L 1090,110" stroke="#000000" stroke-width="2.8" fill="none"/>
<text text-anchor="end" x="1080.0" y="121.75" fill="#808080" style="font-size:18px" transform="rotate(-90,1080.0,115.0)" >DE1</text>
<path d="M 780,210 L 780,170 C 786,170 790,166 790,160 C 790,154 786,150 780,150 L 780,110 L 1100,110 L 1100,210 Z" stroke="#000000" stroke-width="2.8" fill="none"/>
<text text-anchor="start" x="810.0" y="169.0" fill="#000000" style="font-size:24px">74173</text>
</g>
<g>
</g>
<g>
<path d="M 790,84 L 800,71 L 810,84" stroke="#000000" stroke-width="2.8" fill="none"/>
</g>
<g>
<path d="M 129,-195 L 159,-195 L 159,-165 L 129,-165 Z" stroke="#000000" stroke-width="2.8" fill="none"/>
<text text-anchor="end" x="115.0" y="-171.0" fill="#000000" style="font-size:24px">CLOCK</text>
<path d="M 135,-175 L 140,-175 L 140,-185 L 145,-185 L 145,-175 L 150,-175 L 150,-185 L 155,-185" stroke="#000000" stroke-width="1.4" fill="none"/>
</g>
<g>
<path d="M 180,-180 L 194,-172 L 194,-188 Z" stroke="#000000" stroke-width="2.8" fill="none"/>
<text text-anchor="start" x="199.0" y="-173.25" fill="#808080" style="font-size:18px">CLOCK</text>
</g>
<g>
<path d="M 1040,260 L 1032,274 L 1048,274 Z" stroke="#000000" stroke-width="2.8" fill="none"/>
<text text-anchor="end" x="1040.0" y="285.75" fill="#808080" style="font-size:18px" transform="rotate(-90,1040.0,279.0)" >CLOCK</text>
</g>
<g>
</g>
<g>
<circle cx="1316.0" cy="-200.0" r="9.0" stroke="#000000" stroke-width="2.8" fill="none" />
<circle cx="1316.0" cy="-200.0" r="15.0" stroke="#000000" stroke-width="2.8" fill="none" />
<text text-anchor="start" x="1345.0" y="-191.0" fill="#000000" style="font-size:24px"><tspan style="font-style:italic;">CARRY FLAG</tspan></text>
</g>
<g>
<path d="M 1280,-200 L 1266,-208 L 1266,-192 Z" stroke="#000000" stroke-width="2.8" fill="none"/>
<text text-anchor="end" x="1261.0" y="-193.25" fill="#808080" style="font-size:18px">CARRY FLAG</text>
</g>
<g>
<circle cx="1316.0" cy="-160.0" r="9.0" stroke="#000000" stroke-width="2.8" fill="none" />
<circle cx="1316.0" cy="-160.0" r="15.0" stroke="#000000" stroke-width="2.8" fill="none" />
<text text-anchor="start" x="1345.0" y="-151.0" fill="#000000" style="font-size:24px"><tspan style="font-style:italic;">ZERO FLAG</tspan></text>
</g>
<g>
<path d="M 1280,-160 L 1266,-168 L 1266,-152 Z" stroke="#000000" stroke-width="2.8" fill="none"/>
<text text-anchor="end" x="1261.0" y="-153.25" fill="#808080" style="font-size:18px">ZERO FLAG</text>
</g>
<g>
<path d="M 920,240 L 912,254 L 928,254 Z" stroke="#000000" stroke-width="2.8" fill="none"/>
<text text-anchor="end" x="920.0" y="265.75" fill="#808080" style="font-size:18px" transform="rotate(-90,920.0,259.0)" >ZERO FLAG</text>
</g>
<g>
<path d="M 880,240 L 872,254 L 888,254 Z" stroke="#000000" stroke-width="2.8" fill="none"/>
<text text-anchor="end" x="880.0" y="265.75" fill="#808080" style="font-size:18px" transform="rotate(-90,880.0,259.0)" >CARRY FLAG</text>
</g>
<g>
<path d="M 180,-120 L 194,-112 L 194,-128 Z" stroke="#000000" stroke-width="2.8" fill="none"/>
<text text-anchor="start" x="199.0" y="-113.25" fill="#808080" style="font-size:18px">FLAGS IN</text>
</g>
<g>
<path d="M 1080,60 L 1088,46 L 1072,46 Z" stroke="#000000" stroke-width="2.8" fill="none"/>
<text text-anchor="start" x="1080.0" y="47.75" fill="#808080" style="font-size:18px" transform="rotate(-90,1080.0,41.0)" >FLAGS <tspan style="text-decoration:overline;">IN</tspan></text>
</g>
<g>
</g>
<g>
<path d="M 129,-135 L 159,-135 L 159,-105 L 129,-105 Z" stroke="#000000" stroke-width="2.8" fill="none"/>
<circle cx="144.0" cy="-120.0" r="9.0" stroke="#000000" stroke-width="2.8" fill="none" />
<text text-anchor="end" x="115.0" y="-111.0" fill="#000000" style="font-size:24px"><tspan style="font-style:italic;">FLAGS IN</tspan></text>
</g>
<g>
<path d="M 129,-15 L 159,-15 L 159,15 L 129,15 Z" stroke="#000000" stroke-width="2.8" fill="none"/>
<circle cx="144.0" cy="0.0" r="9.0" stroke="#000000" stroke-width="2.8" fill="none" />
<text text-anchor="end" x="115.0" y="9.0" fill="#000000" style="font-size:24px"><tspan style="font-style:italic;">ALU</tspan></text>
</g>
<g>
<path d="M 129,-75 L 159,-75 L 159,-45 L 129,-45 Z" stroke="#000000" stroke-width="2.8" fill="none"/>
<circle cx="144.0" cy="-60.0" r="9.0" stroke="#000000" stroke-width="2.8" fill="none" />
<text text-anchor="end" x="115.0" y="-51.0" fill="#000000" style="font-size:24px"><tspan style="font-style:italic;">ALU CARRY</tspan></text>
</g>
<g>
<path d="M 180,-60 L 194,-52 L 194,-68 Z" stroke="#000000" stroke-width="2.8" fill="none"/>
<text text-anchor="start" x="199.0" y="-53.25" fill="#808080" style="font-size:18px">ALU CARRY</text>
</g>
<g>
<path d="M 880,60 L 888,46 L 872,46 Z" stroke="#000000" stroke-width="2.8" fill="none"/>
<text text-anchor="start" x="880.0" y="47.75" fill="#808080" style="font-size:18px" transform="rotate(-90,880.0,41.0)" >ALU CARRY</text>
</g>
<g>
<text text-anchor="end" x="198.0" y="-3.0" fill="#808080" style="font-size:12px">0-7</text>
<text text-anchor="start" x="222.0" y="-3.0" fill="#808080" style="font-size:12px">0</text>
<text text-anchor="start" x="222.0" y="17.0" fill="#808080" style="font-size:12px">1</text>
<text text-anchor="start" x="222.0" y="37.0" fill="#808080" style="font-size:12px">2</text>
<text text-anchor="start" x="222.0" y="57.0" fill="#808080" style="font-size:12px">3</text>
<text text-anchor="start" x="222.0" y="77.0" fill="#808080" style="font-size:12px">4</text>
<text text-anchor="start" x="222.0" y="97.0" fill="#808080" style="font-size:12px">5</text>
<text text-anchor="start" x="222.0" y="117.0" fill="#808080" style="font-size:12px">6</text>
<text text-anchor="start" x="222.0" y="137.0" fill="#808080" style="font-size:12px">7</text>
<path d="M 208,-2 L 212,-2 L 212,142 L 208,142 Z" stroke="#000000" stroke-width="2.8" fill="#000000" fill-opacity="1.0"/>
</g>
<g>
<path d="M 241,10 L 241,-10 L 259,0 Z" stroke="#000000" stroke-width="2.8" fill="none"/>
</g>
<g>
<path d="M 241,30 L 241,10 L 259,20 Z" stroke="#000000" stroke-width="2.8" fill="none"/>
</g>
<g>
<path d="M 241,50 L 241,30 L 259,40 Z" stroke="#000000" stroke-width="2.8" fill="none"/>
</g>
<g>
<path d="M 241,70 L 241,50 L 259,60 Z" stroke="#000000" stroke-width="2.8" fill="none"/>
</g>
<g>
<path d="M 241,90 L 241,70 L 259,80 Z" stroke="#000000" stroke-width="2.8" fill="none"/>
</g>
<g>
<path d="M 241,110 L 241,90 L 259,100 Z" stroke="#000000" stroke-width="2.8" fill="none"/>
</g>
<g>
<path d="M 241,130 L 241,110 L 259,120 Z" stroke="#000000" stroke-width="2.8" fill="none"/>
</g>
<g>
<path d="M 241,150 L 241,130 L 259,140 Z" stroke="#000000" stroke-width="2.8" fill="none"/>
</g>
<g>
<path d="M 470,210 L 470,218 L 490,218 L 490,210" stroke="#000000" stroke-width="2.8" fill="none"/>
<text text-anchor="start" x="480.0" y="211.75" fill="#808080" style="font-size:18px" transform="rotate(-90,480.0,205.0)" >1A</text>
<path d="M 470,110 L 470,102 L 490,102 L 490,110" stroke="#000000" stroke-width="2.8" fill="none"/>
<text text-anchor="end" x="480.0" y="121.75" fill="#808080" style="font-size:18px" transform="rotate(-90,480.0,115.0)" >VCC</text>
<path d="M 510,210 L 510,218 L 530,218 L 530,210" stroke="#000000" stroke-width="2.8" fill="none"/>
<text text-anchor="start" x="520.0" y="211.75" fill="#808080" style="font-size:18px" transform="rotate(-90,520.0,205.0)" >1Y</text>
<path d="M 510,110 L 510,102 L 530,102 L 530,110" stroke="#000000" stroke-width="2.8" fill="none"/>
<text text-anchor="end" x="520.0" y="121.75" fill="#808080" style="font-size:18px" transform="rotate(-90,520.0,115.0)" >6A</text>
<path d="M 550,210 L 550,218 L 570,218 L 570,210" stroke="#000000" stroke-width="2.8" fill="none"/>
<text text-anchor="start" x="560.0" y="211.75" fill="#808080" style="font-size:18px" transform="rotate(-90,560.0,205.0)" >2A</text>
<path d="M 550,110 L 550,102 L 570,102 L 570,110" stroke="#000000" stroke-width="2.8" fill="none"/>
<text text-anchor="end" x="560.0" y="121.75" fill="#808080" style="font-size:18px" transform="rotate(-90,560.0,115.0)" >6Y</text>
<path d="M 590,210 L 590,218 L 610,218 L 610,210" stroke="#000000" stroke-width="2.8" fill="none"/>
<text text-anchor="start" x="600.0" y="211.75" fill="#808080" style="font-size:18px" transform="rotate(-90,600.0,205.0)" >2Y</text>
<path d="M 590,110 L 590,102 L 610,102 L 610,110" stroke="#000000" stroke-width="2.8" fill="none"/>
<text text-anchor="end" x="600.0" y="121.75" fill="#808080" style="font-size:18px" transform="rotate(-90,600.0,115.0)" >5A</text>
<path d="M 630,210 L 630,218 L 650,218 L 650,210" stroke="#000000" stroke-width="2.8" fill="none"/>
<text text-anchor="start" x="640.0" y="211.75" fill="#808080" style="font-size:18px" transform="rotate(-90,640.0,205.0)" >3A</text>
<path d="M 630,110 L 630,102 L 650,102 L 650,110" stroke="#000000" stroke-width="2.8" fill="none"/>
<text text-anchor="end" x="640.0" y="121.75" fill="#808080" style="font-size:18px" transform="rotate(-90,640.0,115.0)" >5Y</text>
<path d="M 670,210 L 670,218 L 690,218 L 690,210" stroke="#000000" stroke-width="2.8" fill="none"/>
<text text-anchor="start" x="680.0" y="211.75" fill="#808080" style="font-size:18px" transform="rotate(-90,680.0,205.0)" >3Y</text>
<path d="M 670,110 L 670,102 L 690,102 L 690,110" stroke="#000000" stroke-width="2.8" fill="none"/>
<text text-anchor="end" x="680.0" y="121.75" fill="#808080" style="font-size:18px" transform="rotate(-90,680.0,115.0)" >4A</text>
<path d="M 710,210 L 710,218 L 730,218 L 730,210" stroke="#000000" stroke-width="2.8" fill="none"/>
<text text-anchor="start" x="720.0" y="211.75" fill="#808080" style="font-size:18px" transform="rotate(-90,720.0,205.0)" >GND</text>
<path d="M 710,110 L 710,102 L 730,102 L 730,110" stroke="#000000" stroke-width="2.8" fill="none"/>
<text text-anchor="end" x="720.0" y="121.75" fill="#808080" style="font-size:18px" transform="rotate(-90,720.0,115.0)" >4Y</text>
<path d="M 460,210 L 460,170 C 466,170 470,166 470,160 C 470,154 466,150 460,150 L 460,110 L 740,110 L 740,210 Z" stroke="#000000" stroke-width="2.8" fill="none"/>
<text text-anchor="start" x="490.0" y="169.0" fill="#000000" style="font-size:24px">7404</text>
</g>
<g>
<path d="M 470,84 L 480,71 L 490,84" stroke="#000000" stroke-width="2.8" fill="none"/>
</g>
<g>
</g>
<g>
<path d="M 300,0 L 314,8 L 314,-8 Z" stroke="#000000" stroke-width="2.8" fill="none"/>
<text text-anchor="start" x="319.0" y="6.75" fill="#808080" style="font-size:18px">ALU <tspan style="text-decoration:overline;">ZERO</tspan></text>
</g>
<g>
<path d="M 480,240 L 472,254 L 488,254 Z" stroke="#000000" stroke-width="2.8" fill="none"/>
<text text-anchor="end" x="480.0" y="265.75" fill="#808080" style="font-size:18px" transform="rotate(-90,480.0,259.0)" >ALU <tspan style="text-decoration:overline;">ZERO</tspan></text>
</g>
<g>
<path d="M 520,240 L 512,254 L 528,254 Z" stroke="#000000" stroke-width="2.8" fill="none"/>
<text text-anchor="end" x="520.0" y="265.75" fill="#808080" style="font-size:18px" transform="rotate(-90,520.0,259.0)" >ALU ZERO</text>
</g>
<g>
<path d="M 920,60 L 928,46 L 912,46 Z" stroke="#000000" stroke-width="2.8" fill="none"/>
<text text-anchor="start" x="920.0" y="47.75" fill="#808080" style="font-size:18px" transform="rotate(-90,920.0,41.0)" >ALU ZERO</text>
</g>
<g>
<path d="M 600,80 L 608,66 L 592,66 Z" stroke="#000000" stroke-width="2.8" fill="none"/>
<text text-anchor="start" x="600.0" y="67.75" fill="#808080" style="font-size:18px" transform="rotate(-90,600.0,61.0)" >FLAGS IN</text>
</g>
<g>
<path d="M 640,80 L 648,66 L 632,66 Z" stroke="#000000" stroke-width="2.8" fill="none"/>
<text text-anchor="start" x="640.0" y="67.75" fill="#808080" style="font-size:18px" transform="rotate(-90,640.0,61.0)" >FLAGS <tspan style="text-decoration:overline;">IN</tspan></text>
</g>
<g>
</g>
<g>
<path d="M 273,161 L 273,186 L 287,186 L 287,161 Z" stroke="#000000" stroke-width="2.8" fill="none"/>
</g>
<g>
</g>
<g>
</g>
</g>
</svg>