<?xml version="1.0" encoding="UTF-8" standalone="no"?>
<!-- Created with Digital by H.Neemann -->
<!-- created: Sun Dec 06 22:28:38 CET 2020 -->

<svg
   xmlns:svg="http://www.w3.org/2000/svg"
   xmlns="http://www.w3.org/2000/svg"
   width="179.4mm"
   height="94.2mm"
   viewBox="26 23 1196 628">
<g stroke-linecap="square">
<path d="M 770,380 L 790,380" stroke="#000000" stroke-width="4.199999999999999" fill="none"/>
<path d="M 1190,380 L 1210,380" stroke="#000000" stroke-width="4.199999999999999" fill="none"/>
<path d="M 410,380 L 430,380" stroke="#000000" stroke-width="4.199999999999999" fill="none"/>
<path d="M 420,214 L 420,220" stroke="#000000" stroke-width="2.8" fill="none"/>
<path d="M 840,214 L 840,220" stroke="#000000" stroke-width="2.8" fill="none"/>
<path d="M 240,360 L 230,360 L 220,360" stroke="#000000" stroke-width="2.8" fill="none"/>
<path d="M 240,340 L 230,340" stroke="#000000" stroke-width="2.8" fill="none"/>
<path d="M 240,320 L 230,320" stroke="#000000" stroke-width="2.8" fill="none"/>
<path d="M 240,300 L 230,300" stroke="#000000" stroke-width="2.8" fill="none"/>
<path d="M 240,280 L 230,280" stroke="#000000" stroke-width="2.8" fill="none"/>
<path d="M 240,260 L 230,260" stroke="#000000" stroke-width="2.8" fill="none"/>
<path d="M 240,240 L 230,240" stroke="#000000" stroke-width="2.8" fill="none"/>
<path d="M 240,220 L 230,220" stroke="#000000" stroke-width="2.8" fill="none"/>
<path d="M 500,500 L 510,500 L 520,500" stroke="#000000" stroke-width="2.8" fill="none"/>
<path d="M 520,520 L 510,520" stroke="#000000" stroke-width="2.8" fill="none"/>
<path d="M 520,540 L 510,540" stroke="#000000" stroke-width="2.8" fill="none"/>
<path d="M 520,560 L 510,560" stroke="#000000" stroke-width="2.8" fill="none"/>
<path d="M 520,580 L 510,580" stroke="#000000" stroke-width="2.8" fill="none"/>
<path d="M 520,600 L 510,600" stroke="#000000" stroke-width="2.8" fill="none"/>
<path d="M 520,620 L 510,620" stroke="#000000" stroke-width="2.8" fill="none"/>
<path d="M 520,640 L 510,640" stroke="#000000" stroke-width="2.8" fill="none"/>
<path d="M 460,420 L 460,410 L 460,400" stroke="#000000" stroke-width="2.8" fill="none"/>
<path d="M 480,420 L 480,410" stroke="#000000" stroke-width="2.8" fill="none"/>
<path d="M 500,400 L 500,410" stroke="#000000" stroke-width="2.8" fill="none"/>
<path d="M 540,400 L 540,410" stroke="#000000" stroke-width="2.8" fill="none"/>
<path d="M 580,400 L 580,410" stroke="#000000" stroke-width="2.8" fill="none"/>
<path d="M 620,400 L 620,410" stroke="#000000" stroke-width="2.8" fill="none"/>
<path d="M 660,400 L 660,410" stroke="#000000" stroke-width="2.8" fill="none"/>
<path d="M 700,400 L 700,410" stroke="#000000" stroke-width="2.8" fill="none"/>
<path d="M 740,400 L 740,410" stroke="#000000" stroke-width="2.8" fill="none"/>
<path d="M 240,320 L 260,320" stroke="#0000b2" stroke-width="2.8" fill="none"/>
<path d="M 180,160 L 200,160" stroke="#0000b2" stroke-width="2.8" fill="none"/>
<path d="M 520,640 L 540,640" stroke="#0000b2" stroke-width="2.8" fill="none"/>
<path d="M 180,100 L 200,100" stroke="#0000b2" stroke-width="2.8" fill="none"/>
<path d="M 240,260 L 260,260" stroke="#0000b2" stroke-width="2.8" fill="none"/>
<path d="M 520,580 L 540,580" stroke="#0000b2" stroke-width="2.8" fill="none"/>
<path d="M 180,40 L 200,40" stroke="#0000b2" stroke-width="2.8" fill="none"/>
<path d="M 180,360 L 220,360" stroke="#0000b2" stroke-width="2.8" fill="none"/>
<path d="M 240,360 L 260,360" stroke="#0000b2" stroke-width="2.8" fill="none"/>
<path d="M 520,520 L 540,520" stroke="#0000b2" stroke-width="2.8" fill="none"/>
<path d="M 240,300 L 260,300" stroke="#0000b2" stroke-width="2.8" fill="none"/>
<path d="M 520,620 L 540,620" stroke="#0000b2" stroke-width="2.8" fill="none"/>
<path d="M 240,240 L 260,240" stroke="#0000b2" stroke-width="2.8" fill="none"/>
<path d="M 520,560 L 540,560" stroke="#0000b2" stroke-width="2.8" fill="none"/>
<path d="M 420,500 L 460,500 L 500,500" stroke="#0000b2" stroke-width="2.8" fill="none"/>
<path d="M 520,500 L 540,500" stroke="#0000b2" stroke-width="2.8" fill="none"/>
<path d="M 240,340 L 260,340" stroke="#0000b2" stroke-width="2.8" fill="none"/>
<path d="M 240,280 L 260,280" stroke="#0000b2" stroke-width="2.8" fill="none"/>
<path d="M 480,420 L 480,440 L 500,440" stroke="#0000b2" stroke-width="2.8" fill="none"/>
<path d="M 520,600 L 540,600" stroke="#0000b2" stroke-width="2.8" fill="none"/>
<path d="M 240,220 L 260,220" stroke="#0000b2" stroke-width="2.8" fill="none"/>
<path d="M 660,240 L 660,220 L 700,220 L 740,220 L 780,220 L 800,220" stroke="#0000b2" stroke-width="2.8" fill="none"/>
<path d="M 520,540 L 540,540" stroke="#0000b2" stroke-width="2.8" fill="none"/>
<path d="M 960,360 L 960,400" stroke="#0000b2" stroke-width="2.8" fill="none"/>
<path d="M 960,200 L 960,240" stroke="#0000b2" stroke-width="2.8" fill="none"/>
<path d="M 1120,360 L 1120,400" stroke="#0000b2" stroke-width="2.8" fill="none"/>
<path d="M 1120,200 L 1120,240" stroke="#0000b2" stroke-width="2.8" fill="none"/>
<path d="M 580,220 L 580,240" stroke="#0000b2" stroke-width="2.8" fill="none"/>
<path d="M 580,360 L 580,400" stroke="#0000b2" stroke-width="2.8" fill="none"/>
<path d="M 420,220 L 420,240" stroke="#0000b2" stroke-width="2.8" fill="none"/>
<path d="M 420,360 L 420,380" stroke="#0000b2" stroke-width="2.8" fill="none"/>
<path d="M 740,360 L 740,400" stroke="#0000b2" stroke-width="2.8" fill="none"/>
<path d="M 740,220 L 740,240" stroke="#0000b2" stroke-width="2.8" fill="none"/>
<path d="M 840,220 L 840,240" stroke="#0000b2" stroke-width="2.8" fill="none"/>
<path d="M 840,360 L 840,380" stroke="#0000b2" stroke-width="2.8" fill="none"/>
<path d="M 1160,360 L 1160,380" stroke="#0000b2" stroke-width="2.8" fill="none"/>
<path d="M 1160,220 L 1160,240" stroke="#0000b2" stroke-width="2.8" fill="none"/>
<path d="M 1000,360 L 1000,380" stroke="#0000b2" stroke-width="2.8" fill="none"/>
<path d="M 1000,220 L 1000,240" stroke="#0000b2" stroke-width="2.8" fill="none"/>
<path d="M 780,360 L 780,380" stroke="#0000b2" stroke-width="2.8" fill="none"/>
<path d="M 780,220 L 780,240" stroke="#0000b2" stroke-width="2.8" fill="none"/>
<path d="M 460,220 L 460,240" stroke="#0000b2" stroke-width="2.8" fill="none"/>
<path d="M 460,360 L 460,400" stroke="#0000b2" stroke-width="2.8" fill="none"/>
<path d="M 460,420 L 460,500" stroke="#0000b2" stroke-width="2.8" fill="none"/>
<path d="M 620,220 L 620,240" stroke="#0000b2" stroke-width="2.8" fill="none"/>
<path d="M 620,360 L 620,400" stroke="#0000b2" stroke-width="2.8" fill="none"/>
<path d="M 1040,360 L 1040,380" stroke="#0000b2" stroke-width="2.8" fill="none"/>
<path d="M 1040,220 L 1040,240" stroke="#0000b2" stroke-width="2.8" fill="none"/>
<path d="M 1200,360 L 1200,380" stroke="#0000b2" stroke-width="2.8" fill="none"/>
<path d="M 1200,220 L 1200,240" stroke="#0000b2" stroke-width="2.8" fill="none"/>
<path d="M 880,360 L 880,380" stroke="#0000b2" stroke-width="2.8" fill="none"/>
<path d="M 880,220 L 880,240" stroke="#0000b2" stroke-width="2.8" fill="none"/>
<path d="M 660,360 L 660,400" stroke="#0000b2" stroke-width="2.8" fill="none"/>
<path d="M 500,220 L 500,240" stroke="#0000b2" stroke-width="2.8" fill="none"/>
<path d="M 500,360 L 500,400" stroke="#0000b2" stroke-width="2.8" fill="none"/>
<path d="M 1080,360 L 1080,400" stroke="#0000b2" stroke-width="2.8" fill="none"/>
<path d="M 1080,200 L 1080,240" stroke="#0000b2" stroke-width="2.8" fill="none"/>
<path d="M 920,360 L 920,400" stroke="#0000b2" stroke-width="2.8" fill="none"/>
<path d="M 920,200 L 920,240" stroke="#0000b2" stroke-width="2.8" fill="none"/>
<path d="M 700,360 L 700,400" stroke="#0000b2" stroke-width="2.8" fill="none"/>
<path d="M 700,220 L 700,240" stroke="#0000b2" stroke-width="2.8" fill="none"/>
<path d="M 540,220 L 540,240" stroke="#0000b2" stroke-width="2.8" fill="none"/>
<path d="M 540,360 L 540,400" stroke="#0000b2" stroke-width="2.8" fill="none"/>
<g>
<circle cx="460.0" cy="500.0" r="4.0" stroke="#0000b2" stroke-width="2.8" fill="#0000b2" />
<circle cx="700.0" cy="220.0" r="4.0" stroke="#0000b2" stroke-width="2.8" fill="#0000b2" />
<circle cx="740.0" cy="220.0" r="4.0" stroke="#0000b2" stroke-width="2.8" fill="#0000b2" />
<circle cx="780.0" cy="220.0" r="4.0" stroke="#0000b2" stroke-width="2.8" fill="#0000b2" />
</g>
<g>
<path d="M 830,350 L 830,358 L 850,358 L 850,350" stroke="#000000" stroke-width="2.8" fill="none"/>
<text text-anchor="start" x="840.0" y="351.75" fill="#808080" style="font-size:18px" transform="rotate(-90,840.0,345.0)" ><tspan style="text-decoration:overline;">E</tspan></text>
<path d="M 830,250 L 830,242 L 850,242 L 850,250" stroke="#000000" stroke-width="2.8" fill="none"/>
<text text-anchor="end" x="840.0" y="261.75" fill="#808080" style="font-size:18px" transform="rotate(-90,840.0,255.0)" >VCC</text>
<path d="M 870,350 L 870,358 L 890,358 L 890,350" stroke="#000000" stroke-width="2.8" fill="none"/>
<text text-anchor="start" x="880.0" y="351.75" fill="#808080" style="font-size:18px" transform="rotate(-90,880.0,345.0)" >Q0</text>
<path d="M 870,250 L 870,242 L 890,242 L 890,250" stroke="#000000" stroke-width="2.8" fill="none"/>
<text text-anchor="end" x="880.0" y="261.75" fill="#808080" style="font-size:18px" transform="rotate(-90,880.0,255.0)" >Q7</text>
<path d="M 910,350 L 910,358 L 930,358 L 930,350" stroke="#000000" stroke-width="2.8" fill="none"/>
<text text-anchor="start" x="920.0" y="351.75" fill="#808080" style="font-size:18px" transform="rotate(-90,920.0,345.0)" >D0</text>
<path d="M 910,250 L 910,242 L 930,242 L 930,250" stroke="#000000" stroke-width="2.8" fill="none"/>
<text text-anchor="end" x="920.0" y="261.75" fill="#808080" style="font-size:18px" transform="rotate(-90,920.0,255.0)" >D7</text>
<path d="M 950,350 L 950,358 L 970,358 L 970,350" stroke="#000000" stroke-width="2.8" fill="none"/>
<text text-anchor="start" x="960.0" y="351.75" fill="#808080" style="font-size:18px" transform="rotate(-90,960.0,345.0)" >D1</text>
<path d="M 950,250 L 950,242 L 970,242 L 970,250" stroke="#000000" stroke-width="2.8" fill="none"/>
<text text-anchor="end" x="960.0" y="261.75" fill="#808080" style="font-size:18px" transform="rotate(-90,960.0,255.0)" >D6</text>
<path d="M 990,350 L 990,358 L 1010,358 L 1010,350" stroke="#000000" stroke-width="2.8" fill="none"/>
<text text-anchor="start" x="1000.0" y="351.75" fill="#808080" style="font-size:18px" transform="rotate(-90,1000.0,345.0)" >Q1</text>
<path d="M 990,250 L 990,242 L 1010,242 L 1010,250" stroke="#000000" stroke-width="2.8" fill="none"/>
<text text-anchor="end" x="1000.0" y="261.75" fill="#808080" style="font-size:18px" transform="rotate(-90,1000.0,255.0)" >Q6</text>
<path d="M 1030,350 L 1030,358 L 1050,358 L 1050,350" stroke="#000000" stroke-width="2.8" fill="none"/>
<text text-anchor="start" x="1040.0" y="351.75" fill="#808080" style="font-size:18px" transform="rotate(-90,1040.0,345.0)" >Q2</text>
<path d="M 1030,250 L 1030,242 L 1050,242 L 1050,250" stroke="#000000" stroke-width="2.8" fill="none"/>
<text text-anchor="end" x="1040.0" y="261.75" fill="#808080" style="font-size:18px" transform="rotate(-90,1040.0,255.0)" >Q5</text>
<path d="M 1070,350 L 1070,358 L 1090,358 L 1090,350" stroke="#000000" stroke-width="2.8" fill="none"/>
<text text-anchor="start" x="1080.0" y="351.75" fill="#808080" style="font-size:18px" transform="rotate(-90,1080.0,345.0)" >D2</text>
<path d="M 1070,250 L 1070,242 L 1090,242 L 1090,250" stroke="#000000" stroke-width="2.8" fill="none"/>
<text text-anchor="end" x="1080.0" y="261.75" fill="#808080" style="font-size:18px" transform="rotate(-90,1080.0,255.0)" >D5</text>
<path d="M 1110,350 L 1110,358 L 1130,358 L 1130,350" stroke="#000000" stroke-width="2.8" fill="none"/>
<text text-anchor="start" x="1120.0" y="351.75" fill="#808080" style="font-size:18px" transform="rotate(-90,1120.0,345.0)" >D3</text>
<path d="M 1110,250 L 1110,242 L 1130,242 L 1130,250" stroke="#000000" stroke-width="2.8" fill="none"/>
<text text-anchor="end" x="1120.0" y="261.75" fill="#808080" style="font-size:18px" transform="rotate(-90,1120.0,255.0)" >D4</text>
<path d="M 1150,350 L 1150,358 L 1170,358 L 1170,350" stroke="#000000" stroke-width="2.8" fill="none"/>
<text text-anchor="start" x="1160.0" y="351.75" fill="#808080" style="font-size:18px" transform="rotate(-90,1160.0,345.0)" >Q3</text>
<path d="M 1150,250 L 1150,242 L 1170,242 L 1170,250" stroke="#000000" stroke-width="2.8" fill="none"/>
<text text-anchor="end" x="1160.0" y="261.75" fill="#808080" style="font-size:18px" transform="rotate(-90,1160.0,255.0)" >Q4</text>
<path d="M 1190,350 L 1190,358 L 1210,358 L 1210,350" stroke="#000000" stroke-width="2.8" fill="none"/>
<text text-anchor="start" x="1200.0" y="351.75" fill="#808080" style="font-size:18px" transform="rotate(-90,1200.0,345.0)" >GND</text>
<path d="M 1190,250 L 1190,242 L 1210,242 L 1210,250" stroke="#000000" stroke-width="2.8" fill="none"/>
<text text-anchor="end" x="1200.0" y="261.75" fill="#808080" style="font-size:18px" transform="rotate(-90,1200.0,255.0)" >CLK</text>
<path d="M 820,350 L 820,310 C 826,310 830,306 830,300 C 830,294 826,290 820,290 L 820,250 L 1220,250 L 1220,350 Z" stroke="#000000" stroke-width="2.8" fill="none"/>
<text text-anchor="start" x="850.0" y="309.0" fill="#000000" style="font-size:24px">74377</text>
</g>
<g>
<path d="M 410,350 L 410,358 L 430,358 L 430,350" stroke="#000000" stroke-width="2.8" fill="none"/>
<text text-anchor="start" x="420.0" y="351.75" fill="#808080" style="font-size:18px" transform="rotate(-90,420.0,345.0)" >DIR</text>
<path d="M 410,250 L 410,242 L 430,242 L 430,250" stroke="#000000" stroke-width="2.8" fill="none"/>
<text text-anchor="end" x="420.0" y="261.75" fill="#808080" style="font-size:18px" transform="rotate(-90,420.0,255.0)" >VCC</text>
<path d="M 450,350 L 450,358 L 470,358 L 470,350" stroke="#000000" stroke-width="2.8" fill="none"/>
<text text-anchor="start" x="460.0" y="351.75" fill="#808080" style="font-size:18px" transform="rotate(-90,460.0,345.0)" >A1</text>
<path d="M 450,250 L 450,242 L 470,242 L 470,250" stroke="#000000" stroke-width="2.8" fill="none"/>
<text text-anchor="end" x="460.0" y="261.75" fill="#808080" style="font-size:18px" transform="rotate(-90,460.0,255.0)" ><tspan style="text-decoration:overline;">OE</tspan></text>
<path d="M 490,350 L 490,358 L 510,358 L 510,350" stroke="#000000" stroke-width="2.8" fill="none"/>
<text text-anchor="start" x="500.0" y="351.75" fill="#808080" style="font-size:18px" transform="rotate(-90,500.0,345.0)" >A2</text>
<path d="M 490,250 L 490,242 L 510,242 L 510,250" stroke="#000000" stroke-width="2.8" fill="none"/>
<text text-anchor="end" x="500.0" y="261.75" fill="#808080" style="font-size:18px" transform="rotate(-90,500.0,255.0)" >B1</text>
<path d="M 530,350 L 530,358 L 550,358 L 550,350" stroke="#000000" stroke-width="2.8" fill="none"/>
<text text-anchor="start" x="540.0" y="351.75" fill="#808080" style="font-size:18px" transform="rotate(-90,540.0,345.0)" >A3</text>
<path d="M 530,250 L 530,242 L 550,242 L 550,250" stroke="#000000" stroke-width="2.8" fill="none"/>
<text text-anchor="end" x="540.0" y="261.75" fill="#808080" style="font-size:18px" transform="rotate(-90,540.0,255.0)" >B2</text>
<path d="M 570,350 L 570,358 L 590,358 L 590,350" stroke="#000000" stroke-width="2.8" fill="none"/>
<text text-anchor="start" x="580.0" y="351.75" fill="#808080" style="font-size:18px" transform="rotate(-90,580.0,345.0)" >A4</text>
<path d="M 570,250 L 570,242 L 590,242 L 590,250" stroke="#000000" stroke-width="2.8" fill="none"/>
<text text-anchor="end" x="580.0" y="261.75" fill="#808080" style="font-size:18px" transform="rotate(-90,580.0,255.0)" >B3</text>
<path d="M 610,350 L 610,358 L 630,358 L 630,350" stroke="#000000" stroke-width="2.8" fill="none"/>
<text text-anchor="start" x="620.0" y="351.75" fill="#808080" style="font-size:18px" transform="rotate(-90,620.0,345.0)" >A5</text>
<path d="M 610,250 L 610,242 L 630,242 L 630,250" stroke="#000000" stroke-width="2.8" fill="none"/>
<text text-anchor="end" x="620.0" y="261.75" fill="#808080" style="font-size:18px" transform="rotate(-90,620.0,255.0)" >B4</text>
<path d="M 650,350 L 650,358 L 670,358 L 670,350" stroke="#000000" stroke-width="2.8" fill="none"/>
<text text-anchor="start" x="660.0" y="351.75" fill="#808080" style="font-size:18px" transform="rotate(-90,660.0,345.0)" >A6</text>
<path d="M 650,250 L 650,242 L 670,242 L 670,250" stroke="#000000" stroke-width="2.8" fill="none"/>
<text text-anchor="end" x="660.0" y="261.75" fill="#808080" style="font-size:18px" transform="rotate(-90,660.0,255.0)" >B5</text>
<path d="M 690,350 L 690,358 L 710,358 L 710,350" stroke="#000000" stroke-width="2.8" fill="none"/>
<text text-anchor="start" x="700.0" y="351.75" fill="#808080" style="font-size:18px" transform="rotate(-90,700.0,345.0)" >A7</text>
<path d="M 690,250 L 690,242 L 710,242 L 710,250" stroke="#000000" stroke-width="2.8" fill="none"/>
<text text-anchor="end" x="700.0" y="261.75" fill="#808080" style="font-size:18px" transform="rotate(-90,700.0,255.0)" >B6</text>
<path d="M 730,350 L 730,358 L 750,358 L 750,350" stroke="#000000" stroke-width="2.8" fill="none"/>
<text text-anchor="start" x="740.0" y="351.75" fill="#808080" style="font-size:18px" transform="rotate(-90,740.0,345.0)" >A8</text>
<path d="M 730,250 L 730,242 L 750,242 L 750,250" stroke="#000000" stroke-width="2.8" fill="none"/>
<text text-anchor="end" x="740.0" y="261.75" fill="#808080" style="font-size:18px" transform="rotate(-90,740.0,255.0)" >B7</text>
<path d="M 770,350 L 770,358 L 790,358 L 790,350" stroke="#000000" stroke-width="2.8" fill="none"/>
<text text-anchor="start" x="780.0" y="351.75" fill="#808080" style="font-size:18px" transform="rotate(-90,780.0,345.0)" >GND</text>
<path d="M 770,250 L 770,242 L 790,242 L 790,250" stroke="#000000" stroke-width="2.8" fill="none"/>
<text text-anchor="end" x="780.0" y="261.75" fill="#808080" style="font-size:18px" transform="rotate(-90,780.0,255.0)" >B8</text>
<path d="M 400,350 L 400,310 C 406,310 410,306 410,300 C 410,294 406,290 400,290 L 400,250 L 800,250 L 800,350 Z" stroke="#000000" stroke-width="2.8" fill="none"/>
<text text-anchor="start" x="430.0" y="309.0" fill="#000000" style="font-size:24px">74245</text>
</g>
<g>
<path d="M 410,224 L 420,211 L 430,224" stroke="#000000" stroke-width="2.8" fill="none"/>
</g>
<g>
<path d="M 830,224 L 840,211 L 850,224" stroke="#000000" stroke-width="2.8" fill="none"/>
</g>
<g>
</g>
<g>
</g>
<g>
<path d="M 149,25 L 179,25 L 179,55 L 149,55 Z" stroke="#000000" stroke-width="2.8" fill="none"/>
<text text-anchor="end" x="135.0" y="49.0" fill="#000000" style="font-size:24px">CLOCK</text>
<path d="M 155,45 L 160,45 L 160,35 L 165,35 L 165,45 L 170,45 L 170,35 L 175,35" stroke="#000000" stroke-width="1.4" fill="none"/>
</g>
<g>
<path d="M 200,40 L 214,48 L 214,32 Z" stroke="#000000" stroke-width="2.8" fill="none"/>
<text text-anchor="start" x="219.0" y="46.75" fill="#808080" style="font-size:18px">CLOCK</text>
</g>
<g>
<path d="M 1200,220 L 1208,206 L 1192,206 Z" stroke="#000000" stroke-width="2.8" fill="none"/>
<text text-anchor="start" x="1200.0" y="207.75" fill="#808080" style="font-size:18px" transform="rotate(-90,1200.0,201.0)" >CLOCK</text>
</g>
<g>
<path d="M 149,85 L 179,85 L 179,115 L 149,115 Z" stroke="#000000" stroke-width="2.8" fill="none"/>
<circle cx="164.0" cy="100.0" r="9.0" stroke="#000000" stroke-width="2.8" fill="none" />
<text text-anchor="end" x="135.0" y="109.0" fill="#000000" style="font-size:24px"><tspan style="font-style:italic;">BUS <tspan style="text-decoration:overline;">IN</tspan></tspan></text>
</g>
<g>
<path d="M 200,100 L 214,108 L 214,92 Z" stroke="#000000" stroke-width="2.8" fill="none"/>
<text text-anchor="start" x="219.0" y="106.75" fill="#808080" style="font-size:18px">BUS <tspan style="text-decoration:overline;">IN</tspan></text>
</g>
<g>
<path d="M 460,220 L 468,206 L 452,206 Z" stroke="#000000" stroke-width="2.8" fill="none"/>
<text text-anchor="start" x="460.0" y="207.75" fill="#808080" style="font-size:18px" transform="rotate(-90,460.0,201.0)" >BUS <tspan style="text-decoration:overline;">OUT</tspan></text>
</g>
<g>
<circle cx="404.0" cy="500.0" r="9.0" stroke="#000000" stroke-width="2.8" fill="none" />
<circle cx="404.0" cy="500.0" r="15.0" stroke="#000000" stroke-width="2.8" fill="none" />
<text text-anchor="end" x="375.0" y="509.0" fill="#000000" style="font-size:24px"><tspan style="font-style:italic;">BUS</tspan></text>
</g>
<g>
<circle cx="164.0" cy="360.0" r="9.0" stroke="#000000" stroke-width="2.8" fill="none" />
<circle cx="164.0" cy="360.0" r="15.0" stroke="#000000" stroke-width="2.8" fill="none" />
<text text-anchor="end" x="135.0" y="369.0" fill="#000000" style="font-size:24px"><tspan style="font-style:italic;">OUT</tspan></text>
</g>
<g>
<text text-anchor="start" x="242.0" y="372.0" fill="#808080" style="font-size:12px">0</text>
<text text-anchor="start" x="242.0" y="352.0" fill="#808080" style="font-size:12px">1</text>
<text text-anchor="start" x="242.0" y="332.0" fill="#808080" style="font-size:12px">2</text>
<text text-anchor="start" x="242.0" y="312.0" fill="#808080" style="font-size:12px">3</text>
<text text-anchor="start" x="242.0" y="292.0" fill="#808080" style="font-size:12px">4</text>
<text text-anchor="start" x="242.0" y="272.0" fill="#808080" style="font-size:12px">5</text>
<text text-anchor="start" x="242.0" y="252.0" fill="#808080" style="font-size:12px">6</text>
<text text-anchor="start" x="242.0" y="232.0" fill="#808080" style="font-size:12px">7</text>
<text text-anchor="end" x="218.0" y="372.0" fill="#808080" style="font-size:12px">0-7</text>
<path d="M 232,362 L 228,362 L 228,218 L 232,218 Z" stroke="#000000" stroke-width="2.8" fill="#000000" fill-opacity="1.0"/>
</g>
<g>
<path d="M 260,240 L 274,248 L 274,232 Z" stroke="#000000" stroke-width="2.8" fill="none"/>
<text text-anchor="start" x="279.0" y="246.75" fill="#808080" style="font-size:18px">Q6</text>
</g>
<g>
<path d="M 260,260 L 274,268 L 274,252 Z" stroke="#000000" stroke-width="2.8" fill="none"/>
<text text-anchor="start" x="279.0" y="266.75" fill="#808080" style="font-size:18px">Q5</text>
</g>
<g>
<path d="M 260,280 L 274,288 L 274,272 Z" stroke="#000000" stroke-width="2.8" fill="none"/>
<text text-anchor="start" x="279.0" y="286.75" fill="#808080" style="font-size:18px">Q4</text>
</g>
<g>
<path d="M 260,300 L 274,308 L 274,292 Z" stroke="#000000" stroke-width="2.8" fill="none"/>
<text text-anchor="start" x="279.0" y="306.75" fill="#808080" style="font-size:18px">Q3</text>
</g>
<g>
<path d="M 260,320 L 274,328 L 274,312 Z" stroke="#000000" stroke-width="2.8" fill="none"/>
<text text-anchor="start" x="279.0" y="326.75" fill="#808080" style="font-size:18px">Q2</text>
</g>
<g>
<path d="M 260,340 L 274,348 L 274,332 Z" stroke="#000000" stroke-width="2.8" fill="none"/>
<text text-anchor="start" x="279.0" y="346.75" fill="#808080" style="font-size:18px">Q1</text>
</g>
<g>
<path d="M 260,360 L 274,368 L 274,352 Z" stroke="#000000" stroke-width="2.8" fill="none"/>
<text text-anchor="start" x="279.0" y="366.75" fill="#808080" style="font-size:18px">Q0</text>
</g>
<g>
<path d="M 260,220 L 274,228 L 274,212 Z" stroke="#000000" stroke-width="2.8" fill="none"/>
<text text-anchor="start" x="279.0" y="226.75" fill="#808080" style="font-size:18px">Q7</text>
</g>
<g>
<path d="M 1000,220 L 1008,206 L 992,206 Z" stroke="#000000" stroke-width="2.8" fill="none"/>
<text text-anchor="start" x="1000.0" y="207.75" fill="#808080" style="font-size:18px" transform="rotate(-90,1000.0,201.0)" >Q6</text>
</g>
<g>
<path d="M 1040,220 L 1048,206 L 1032,206 Z" stroke="#000000" stroke-width="2.8" fill="none"/>
<text text-anchor="start" x="1040.0" y="207.75" fill="#808080" style="font-size:18px" transform="rotate(-90,1040.0,201.0)" >Q5</text>
</g>
<g>
<path d="M 1160,220 L 1168,206 L 1152,206 Z" stroke="#000000" stroke-width="2.8" fill="none"/>
<text text-anchor="start" x="1160.0" y="207.75" fill="#808080" style="font-size:18px" transform="rotate(-90,1160.0,201.0)" >Q4</text>
</g>
<g>
<path d="M 1160,380 L 1152,394 L 1168,394 Z" stroke="#000000" stroke-width="2.8" fill="none"/>
<text text-anchor="end" x="1160.0" y="405.75" fill="#808080" style="font-size:18px" transform="rotate(-90,1160.0,399.0)" >Q3</text>
</g>
<g>
<path d="M 1040,380 L 1032,394 L 1048,394 Z" stroke="#000000" stroke-width="2.8" fill="none"/>
<text text-anchor="end" x="1040.0" y="405.75" fill="#808080" style="font-size:18px" transform="rotate(-90,1040.0,399.0)" >Q2</text>
</g>
<g>
<path d="M 1000,380 L 992,394 L 1008,394 Z" stroke="#000000" stroke-width="2.8" fill="none"/>
<text text-anchor="end" x="1000.0" y="405.75" fill="#808080" style="font-size:18px" transform="rotate(-90,1000.0,399.0)" >Q1</text>
</g>
<g>
<path d="M 880,380 L 872,394 L 888,394 Z" stroke="#000000" stroke-width="2.8" fill="none"/>
<text text-anchor="end" x="880.0" y="405.75" fill="#808080" style="font-size:18px" transform="rotate(-90,880.0,399.0)" >Q0</text>
</g>
<g>
<path d="M 880,220 L 888,206 L 872,206 Z" stroke="#000000" stroke-width="2.8" fill="none"/>
<text text-anchor="start" x="880.0" y="207.75" fill="#808080" style="font-size:18px" transform="rotate(-90,880.0,201.0)" >Q7</text>
</g>
<g>
</g>
<g>
<text text-anchor="end" x="438.0" y="415.75" fill="#000000" style="font-size:17px">B to A (LOW)</text>
<path d="M 440,400 L 400,400 L 400,300 L 440,300 Z" stroke-dasharray="4.0,4.0" stroke="#000000" stroke-width="0.7" fill="none"/>
</g>
<g>
<path d="M 920,400 L 912,414 L 928,414 Z" stroke="#000000" stroke-width="2.8" fill="none"/>
<text text-anchor="end" x="920.0" y="425.75" fill="#808080" style="font-size:18px" transform="rotate(-90,920.0,419.0)" >D0</text>
</g>
<g>
<path d="M 960,400 L 952,414 L 968,414 Z" stroke="#000000" stroke-width="2.8" fill="none"/>
<text text-anchor="end" x="960.0" y="425.75" fill="#808080" style="font-size:18px" transform="rotate(-90,960.0,419.0)" >D1</text>
</g>
<g>
<path d="M 1080,400 L 1072,414 L 1088,414 Z" stroke="#000000" stroke-width="2.8" fill="none"/>
<text text-anchor="end" x="1080.0" y="425.75" fill="#808080" style="font-size:18px" transform="rotate(-90,1080.0,419.0)" >D2</text>
</g>
<g>
<path d="M 1120,400 L 1112,414 L 1128,414 Z" stroke="#000000" stroke-width="2.8" fill="none"/>
<text text-anchor="end" x="1120.0" y="425.75" fill="#808080" style="font-size:18px" transform="rotate(-90,1120.0,419.0)" >D3</text>
</g>
<g>
<path d="M 1120,200 L 1128,186 L 1112,186 Z" stroke="#000000" stroke-width="2.8" fill="none"/>
<text text-anchor="start" x="1120.0" y="187.75" fill="#808080" style="font-size:18px" transform="rotate(-90,1120.0,181.0)" >D4</text>
</g>
<g>
<path d="M 1080,200 L 1088,186 L 1072,186 Z" stroke="#000000" stroke-width="2.8" fill="none"/>
<text text-anchor="start" x="1080.0" y="187.75" fill="#808080" style="font-size:18px" transform="rotate(-90,1080.0,181.0)" >D5</text>
</g>
<g>
<path d="M 960,200 L 968,186 L 952,186 Z" stroke="#000000" stroke-width="2.8" fill="none"/>
<text text-anchor="start" x="960.0" y="187.75" fill="#808080" style="font-size:18px" transform="rotate(-90,960.0,181.0)" >D6</text>
</g>
<g>
<path d="M 920,200 L 928,186 L 912,186 Z" stroke="#000000" stroke-width="2.8" fill="none"/>
<text text-anchor="start" x="920.0" y="187.75" fill="#808080" style="font-size:18px" transform="rotate(-90,920.0,181.0)" >D7</text>
</g>
<g>
<path d="M 620,220 L 628,206 L 612,206 Z" stroke="#000000" stroke-width="2.8" fill="none"/>
<text text-anchor="start" x="620.0" y="207.75" fill="#808080" style="font-size:18px" transform="rotate(-90,620.0,201.0)" >Q3</text>
</g>
<g>
<path d="M 580,220 L 588,206 L 572,206 Z" stroke="#000000" stroke-width="2.8" fill="none"/>
<text text-anchor="start" x="580.0" y="207.75" fill="#808080" style="font-size:18px" transform="rotate(-90,580.0,201.0)" >Q2</text>
</g>
<g>
<path d="M 540,220 L 548,206 L 532,206 Z" stroke="#000000" stroke-width="2.8" fill="none"/>
<text text-anchor="start" x="540.0" y="207.75" fill="#808080" style="font-size:18px" transform="rotate(-90,540.0,201.0)" >Q1</text>
</g>
<g>
<path d="M 500,220 L 508,206 L 492,206 Z" stroke="#000000" stroke-width="2.8" fill="none"/>
<text text-anchor="start" x="500.0" y="207.75" fill="#808080" style="font-size:18px" transform="rotate(-90,500.0,201.0)" >Q0</text>
</g>
<g>
<text text-anchor="end" x="498.0" y="497.0" fill="#808080" style="font-size:12px">0-7</text>
<text text-anchor="start" x="522.0" y="497.0" fill="#808080" style="font-size:12px">0</text>
<text text-anchor="start" x="522.0" y="517.0" fill="#808080" style="font-size:12px">1</text>
<text text-anchor="start" x="522.0" y="537.0" fill="#808080" style="font-size:12px">2</text>
<text text-anchor="start" x="522.0" y="557.0" fill="#808080" style="font-size:12px">3</text>
<text text-anchor="start" x="522.0" y="577.0" fill="#808080" style="font-size:12px">4</text>
<text text-anchor="start" x="522.0" y="597.0" fill="#808080" style="font-size:12px">5</text>
<text text-anchor="start" x="522.0" y="617.0" fill="#808080" style="font-size:12px">6</text>
<text text-anchor="start" x="522.0" y="637.0" fill="#808080" style="font-size:12px">7</text>
<path d="M 508,498 L 512,498 L 512,642 L 508,642 Z" stroke="#000000" stroke-width="2.8" fill="#000000" fill-opacity="1.0"/>
</g>
<g>
<text text-anchor="end" x="457.0" y="422.0" fill="#808080" style="font-size:12px" transform="rotate(-90,457.0,422.0)" >D</text>
<text text-anchor="end" x="477.0" y="422.0" fill="#808080" style="font-size:12px" transform="rotate(-90,477.0,422.0)" >OE</text>
<text text-anchor="start" x="457.0" y="398.0" fill="#808080" style="font-size:12px" transform="rotate(-90,457.0,398.0)" >D0</text>
<text text-anchor="start" x="497.0" y="398.0" fill="#808080" style="font-size:12px" transform="rotate(-90,497.0,398.0)" >D1</text>
<text text-anchor="start" x="537.0" y="398.0" fill="#808080" style="font-size:12px" transform="rotate(-90,537.0,398.0)" >D2</text>
<text text-anchor="start" x="577.0" y="398.0" fill="#808080" style="font-size:12px" transform="rotate(-90,577.0,398.0)" >D3</text>
<text text-anchor="start" x="617.0" y="398.0" fill="#808080" style="font-size:12px" transform="rotate(-90,617.0,398.0)" >D4</text>
<text text-anchor="start" x="657.0" y="398.0" fill="#808080" style="font-size:12px" transform="rotate(-90,657.0,398.0)" >D5</text>
<text text-anchor="start" x="697.0" y="398.0" fill="#808080" style="font-size:12px" transform="rotate(-90,697.0,398.0)" >D6</text>
<text text-anchor="start" x="737.0" y="398.0" fill="#808080" style="font-size:12px" transform="rotate(-90,737.0,398.0)" >D7</text>
<path d="M 458,412 L 458,408 L 742,408 L 742,412 Z" stroke="#000000" stroke-width="2.8" fill="#000000" fill-opacity="1.0"/>
</g>
<g>
<path d="M 500,440 L 514,448 L 514,432 Z" stroke="#000000" stroke-width="2.8" fill="none"/>
<text text-anchor="start" x="519.0" y="446.75" fill="#808080" style="font-size:18px">BUS <tspan style="text-decoration:overline;">OUT</tspan></text>
</g>
<g>
<path d="M 540,500 L 554,508 L 554,492 Z" stroke="#000000" stroke-width="2.8" fill="none"/>
<text text-anchor="start" x="559.0" y="506.75" fill="#808080" style="font-size:18px">D0</text>
</g>
<g>
<path d="M 540,520 L 554,528 L 554,512 Z" stroke="#000000" stroke-width="2.8" fill="none"/>
<text text-anchor="start" x="559.0" y="526.75" fill="#808080" style="font-size:18px">D1</text>
</g>
<g>
<path d="M 540,540 L 554,548 L 554,532 Z" stroke="#000000" stroke-width="2.8" fill="none"/>
<text text-anchor="start" x="559.0" y="546.75" fill="#808080" style="font-size:18px">D2</text>
</g>
<g>
<path d="M 540,560 L 554,568 L 554,552 Z" stroke="#000000" stroke-width="2.8" fill="none"/>
<text text-anchor="start" x="559.0" y="566.75" fill="#808080" style="font-size:18px">D3</text>
</g>
<g>
<path d="M 540,580 L 554,588 L 554,572 Z" stroke="#000000" stroke-width="2.8" fill="none"/>
<text text-anchor="start" x="559.0" y="586.75" fill="#808080" style="font-size:18px">D4</text>
</g>
<g>
<path d="M 540,600 L 554,608 L 554,592 Z" stroke="#000000" stroke-width="2.8" fill="none"/>
<text text-anchor="start" x="559.0" y="606.75" fill="#808080" style="font-size:18px">D5</text>
</g>
<g>
<path d="M 540,620 L 554,628 L 554,612 Z" stroke="#000000" stroke-width="2.8" fill="none"/>
<text text-anchor="start" x="559.0" y="626.75" fill="#808080" style="font-size:18px">D6</text>
</g>
<g>
<path d="M 540,640 L 554,648 L 554,632 Z" stroke="#000000" stroke-width="2.8" fill="none"/>
<text text-anchor="start" x="559.0" y="646.75" fill="#808080" style="font-size:18px">D7</text>
</g>
<g>
<path d="M 149,145 L 179,145 L 179,175 L 149,175 Z" stroke="#000000" stroke-width="2.8" fill="none"/>
<circle cx="164.0" cy="160.0" r="9.0" stroke="#000000" stroke-width="2.8" fill="none" />
<text text-anchor="end" x="135.0" y="169.0" fill="#000000" style="font-size:24px"><tspan style="font-style:italic;">BUS <tspan style="text-decoration:overline;">OUT</tspan></tspan></text>
</g>
<g>
<path d="M 200,160 L 214,168 L 214,152 Z" stroke="#000000" stroke-width="2.8" fill="none"/>
<text text-anchor="start" x="219.0" y="166.75" fill="#808080" style="font-size:18px">BUS <tspan style="text-decoration:overline;">OUT</tspan></text>
</g>
<g>
<path d="M 840,380 L 832,394 L 848,394 Z" stroke="#000000" stroke-width="2.8" fill="none"/>
<text text-anchor="end" x="840.0" y="405.75" fill="#808080" style="font-size:18px" transform="rotate(-90,840.0,399.0)" >BUS <tspan style="text-decoration:overline;">IN</tspan></text>
</g>
<g>
<text text-anchor="start" x="462.0" y="472.0" fill="#000000" style="font-size:12px">Digital workaround for bus sharing</text>
<path d="M 460,400 L 600,400 L 600,460 L 460,460 Z" stroke-dasharray="4.0,4.0" stroke="#000000" stroke-width="0.7" fill="none"/>
</g>
<g>
<text text-anchor="start" x="803.0" y="229.0" fill="#000000" style="font-size:24px">0</text>
</g>
</g>
</svg>