<?xml version="1.0" encoding="UTF-8" standalone="no"?>
<!-- Created with Digital by H.Neemann -->
<!-- created: Sat Dec 05 19:27:42 CET 2020 -->

<svg
   xmlns:svg="http://www.w3.org/2000/svg"
   xmlns="http://www.w3.org/2000/svg"
   width="117.75mm"
   height="71.1mm"
   viewBox="197 123 785 474">
<g stroke-linecap="square">
<path d="M 380,480 L 400,480" stroke="#0000b2" stroke-width="2.8" fill="none"/>
<path d="M 380,320 L 400,320" stroke="#0000b2" stroke-width="2.8" fill="none"/>
<path d="M 340,260 L 360,260" stroke="#0000b2" stroke-width="2.8" fill="none"/>
<path d="M 380,260 L 400,260" stroke="#0000b2" stroke-width="2.8" fill="none"/>
<path d="M 340,580 L 360,580" stroke="#0000b2" stroke-width="2.8" fill="none"/>
<path d="M 380,580 L 400,580" stroke="#0000b2" stroke-width="2.8" fill="none"/>
<path d="M 340,200 L 360,200" stroke="#0000b2" stroke-width="2.8" fill="none"/>
<path d="M 380,520 L 400,520" stroke="#0000b2" stroke-width="2.8" fill="none"/>
<path d="M 380,360 L 400,360" stroke="#0000b2" stroke-width="2.8" fill="none"/>
<path d="M 380,460 L 400,460" stroke="#0000b2" stroke-width="2.8" fill="none"/>
<path d="M 340,140 L 360,140" stroke="#0000b2" stroke-width="2.8" fill="none"/>
<path d="M 380,300 L 400,300" stroke="#0000b2" stroke-width="2.8" fill="none"/>
<path d="M 380,560 L 400,560" stroke="#0000b2" stroke-width="2.8" fill="none"/>
<path d="M 380,400 L 400,400" stroke="#0000b2" stroke-width="2.8" fill="none"/>
<path d="M 380,500 L 400,500" stroke="#0000b2" stroke-width="2.8" fill="none"/>
<path d="M 380,340 L 400,340" stroke="#0000b2" stroke-width="2.8" fill="none"/>
<path d="M 380,440 L 400,440" stroke="#0000b2" stroke-width="2.8" fill="none"/>
<path d="M 380,280 L 400,280" stroke="#0000b2" stroke-width="2.8" fill="none"/>
<path d="M 380,540 L 400,540" stroke="#0000b2" stroke-width="2.8" fill="none"/>
<path d="M 380,380 L 400,380" stroke="#0000b2" stroke-width="2.8" fill="none"/>
<path d="M 960,440 L 960,460" stroke="#0000b2" stroke-width="2.8" fill="none"/>
<path d="M 960,300 L 960,320" stroke="#0000b2" stroke-width="2.8" fill="none"/>
<path d="M 640,300 L 640,320" stroke="#0000b2" stroke-width="2.8" fill="none"/>
<path d="M 640,440 L 640,460" stroke="#0000b2" stroke-width="2.8" fill="none"/>
<path d="M 800,300 L 800,320" stroke="#0000b2" stroke-width="2.8" fill="none"/>
<path d="M 800,440 L 800,460" stroke="#0000b2" stroke-width="2.8" fill="none"/>
<path d="M 720,260 L 720,320" stroke="#0000b2" stroke-width="2.8" fill="none"/>
<path d="M 720,440 L 720,480" stroke="#0000b2" stroke-width="2.8" fill="none"/>
<path d="M 880,260 L 880,320" stroke="#0000b2" stroke-width="2.8" fill="none"/>
<path d="M 880,440 L 880,480" stroke="#0000b2" stroke-width="2.8" fill="none"/>
<path d="M 600,300 L 600,320" stroke="#0000b2" stroke-width="2.8" fill="none"/>
<path d="M 600,440 L 600,460" stroke="#0000b2" stroke-width="2.8" fill="none"/>
<path d="M 760,300 L 760,320" stroke="#0000b2" stroke-width="2.8" fill="none"/>
<path d="M 760,440 L 760,460" stroke="#0000b2" stroke-width="2.8" fill="none"/>
<path d="M 920,300 L 920,320" stroke="#0000b2" stroke-width="2.8" fill="none"/>
<path d="M 920,440 L 920,460" stroke="#0000b2" stroke-width="2.8" fill="none"/>
<path d="M 680,260 L 680,320" stroke="#0000b2" stroke-width="2.8" fill="none"/>
<path d="M 680,440 L 680,480" stroke="#0000b2" stroke-width="2.8" fill="none"/>
<path d="M 840,260 L 840,320" stroke="#0000b2" stroke-width="2.8" fill="none"/>
<path d="M 840,440 L 840,480" stroke="#0000b2" stroke-width="2.8" fill="none"/>
<path d="M 950,460 L 970,460" stroke="#000000" stroke-width="4.199999999999999" fill="none"/>
<path d="M 600,294 L 600,300" stroke="#000000" stroke-width="2.8" fill="none"/>
<path d="M 380,580 L 370,580 L 360,580" stroke="#000000" stroke-width="2.8" fill="none"/>
<path d="M 380,560 L 370,560" stroke="#000000" stroke-width="2.8" fill="none"/>
<path d="M 380,540 L 370,540" stroke="#000000" stroke-width="2.8" fill="none"/>
<path d="M 380,520 L 370,520" stroke="#000000" stroke-width="2.8" fill="none"/>
<path d="M 380,500 L 370,500" stroke="#000000" stroke-width="2.8" fill="none"/>
<path d="M 380,480 L 370,480" stroke="#000000" stroke-width="2.8" fill="none"/>
<path d="M 380,460 L 370,460" stroke="#000000" stroke-width="2.8" fill="none"/>
<path d="M 380,440 L 370,440" stroke="#000000" stroke-width="2.8" fill="none"/>
<path d="M 360,260 L 370,260 L 380,260" stroke="#000000" stroke-width="2.8" fill="none"/>
<path d="M 380,280 L 370,280" stroke="#000000" stroke-width="2.8" fill="none"/>
<path d="M 380,300 L 370,300" stroke="#000000" stroke-width="2.8" fill="none"/>
<path d="M 380,320 L 370,320" stroke="#000000" stroke-width="2.8" fill="none"/>
<path d="M 380,340 L 370,340" stroke="#000000" stroke-width="2.8" fill="none"/>
<path d="M 380,360 L 370,360" stroke="#000000" stroke-width="2.8" fill="none"/>
<path d="M 380,380 L 370,380" stroke="#000000" stroke-width="2.8" fill="none"/>
<path d="M 380,400 L 370,400" stroke="#000000" stroke-width="2.8" fill="none"/>
<g>
</g>
<g>
<path d="M 590,430 L 590,438 L 610,438 L 610,430" stroke="#000000" stroke-width="2.8" fill="none"/>
<text text-anchor="start" x="600.0" y="431.75" fill="#808080" style="font-size:18px" transform="rotate(-90,600.0,425.0)" ><tspan style="text-decoration:overline;">E</tspan></text>
<path d="M 590,330 L 590,322 L 610,322 L 610,330" stroke="#000000" stroke-width="2.8" fill="none"/>
<text text-anchor="end" x="600.0" y="341.75" fill="#808080" style="font-size:18px" transform="rotate(-90,600.0,335.0)" >VCC</text>
<path d="M 630,430 L 630,438 L 650,438 L 650,430" stroke="#000000" stroke-width="2.8" fill="none"/>
<text text-anchor="start" x="640.0" y="431.75" fill="#808080" style="font-size:18px" transform="rotate(-90,640.0,425.0)" >Q0</text>
<path d="M 630,330 L 630,322 L 650,322 L 650,330" stroke="#000000" stroke-width="2.8" fill="none"/>
<text text-anchor="end" x="640.0" y="341.75" fill="#808080" style="font-size:18px" transform="rotate(-90,640.0,335.0)" >Q7</text>
<path d="M 670,430 L 670,438 L 690,438 L 690,430" stroke="#000000" stroke-width="2.8" fill="none"/>
<text text-anchor="start" x="680.0" y="431.75" fill="#808080" style="font-size:18px" transform="rotate(-90,680.0,425.0)" >D0</text>
<path d="M 670,330 L 670,322 L 690,322 L 690,330" stroke="#000000" stroke-width="2.8" fill="none"/>
<text text-anchor="end" x="680.0" y="341.75" fill="#808080" style="font-size:18px" transform="rotate(-90,680.0,335.0)" >D7</text>
<path d="M 710,430 L 710,438 L 730,438 L 730,430" stroke="#000000" stroke-width="2.8" fill="none"/>
<text text-anchor="start" x="720.0" y="431.75" fill="#808080" style="font-size:18px" transform="rotate(-90,720.0,425.0)" >D1</text>
<path d="M 710,330 L 710,322 L 730,322 L 730,330" stroke="#000000" stroke-width="2.8" fill="none"/>
<text text-anchor="end" x="720.0" y="341.75" fill="#808080" style="font-size:18px" transform="rotate(-90,720.0,335.0)" >D6</text>
<path d="M 750,430 L 750,438 L 770,438 L 770,430" stroke="#000000" stroke-width="2.8" fill="none"/>
<text text-anchor="start" x="760.0" y="431.75" fill="#808080" style="font-size:18px" transform="rotate(-90,760.0,425.0)" >Q1</text>
<path d="M 750,330 L 750,322 L 770,322 L 770,330" stroke="#000000" stroke-width="2.8" fill="none"/>
<text text-anchor="end" x="760.0" y="341.75" fill="#808080" style="font-size:18px" transform="rotate(-90,760.0,335.0)" >Q6</text>
<path d="M 790,430 L 790,438 L 810,438 L 810,430" stroke="#000000" stroke-width="2.8" fill="none"/>
<text text-anchor="start" x="800.0" y="431.75" fill="#808080" style="font-size:18px" transform="rotate(-90,800.0,425.0)" >Q2</text>
<path d="M 790,330 L 790,322 L 810,322 L 810,330" stroke="#000000" stroke-width="2.8" fill="none"/>
<text text-anchor="end" x="800.0" y="341.75" fill="#808080" style="font-size:18px" transform="rotate(-90,800.0,335.0)" >Q5</text>
<path d="M 830,430 L 830,438 L 850,438 L 850,430" stroke="#000000" stroke-width="2.8" fill="none"/>
<text text-anchor="start" x="840.0" y="431.75" fill="#808080" style="font-size:18px" transform="rotate(-90,840.0,425.0)" >D2</text>
<path d="M 830,330 L 830,322 L 850,322 L 850,330" stroke="#000000" stroke-width="2.8" fill="none"/>
<text text-anchor="end" x="840.0" y="341.75" fill="#808080" style="font-size:18px" transform="rotate(-90,840.0,335.0)" >D5</text>
<path d="M 870,430 L 870,438 L 890,438 L 890,430" stroke="#000000" stroke-width="2.8" fill="none"/>
<text text-anchor="start" x="880.0" y="431.75" fill="#808080" style="font-size:18px" transform="rotate(-90,880.0,425.0)" >D3</text>
<path d="M 870,330 L 870,322 L 890,322 L 890,330" stroke="#000000" stroke-width="2.8" fill="none"/>
<text text-anchor="end" x="880.0" y="341.75" fill="#808080" style="font-size:18px" transform="rotate(-90,880.0,335.0)" >D4</text>
<path d="M 910,430 L 910,438 L 930,438 L 930,430" stroke="#000000" stroke-width="2.8" fill="none"/>
<text text-anchor="start" x="920.0" y="431.75" fill="#808080" style="font-size:18px" transform="rotate(-90,920.0,425.0)" >Q3</text>
<path d="M 910,330 L 910,322 L 930,322 L 930,330" stroke="#000000" stroke-width="2.8" fill="none"/>
<text text-anchor="end" x="920.0" y="341.75" fill="#808080" style="font-size:18px" transform="rotate(-90,920.0,335.0)" >Q4</text>
<path d="M 950,430 L 950,438 L 970,438 L 970,430" stroke="#000000" stroke-width="2.8" fill="none"/>
<text text-anchor="start" x="960.0" y="431.75" fill="#808080" style="font-size:18px" transform="rotate(-90,960.0,425.0)" >GND</text>
<path d="M 950,330 L 950,322 L 970,322 L 970,330" stroke="#000000" stroke-width="2.8" fill="none"/>
<text text-anchor="end" x="960.0" y="341.75" fill="#808080" style="font-size:18px" transform="rotate(-90,960.0,335.0)" >CLK</text>
<path d="M 580,430 L 580,390 C 586,390 590,386 590,380 C 590,374 586,370 580,370 L 580,330 L 980,330 L 980,430 Z" stroke="#000000" stroke-width="2.8" fill="none"/>
<text text-anchor="start" x="610.0" y="389.0" fill="#000000" style="font-size:24px">74377</text>
</g>
<g>
<path d="M 590,304 L 600,291 L 610,304" stroke="#000000" stroke-width="2.8" fill="none"/>
</g>
<g>
</g>
<g>
<path d="M 309,125 L 339,125 L 339,155 L 309,155 Z" stroke="#000000" stroke-width="2.8" fill="none"/>
<text text-anchor="end" x="295.0" y="149.0" fill="#000000" style="font-size:24px">CLOCK</text>
<path d="M 315,145 L 320,145 L 320,135 L 325,135 L 325,145 L 330,145 L 330,135 L 335,135" stroke="#000000" stroke-width="1.4" fill="none"/>
</g>
<g>
<path d="M 309,245 L 339,245 L 339,275 L 309,275 Z" stroke="#000000" stroke-width="2.8" fill="none"/>
<circle cx="324.0" cy="260.0" r="9.0" stroke="#000000" stroke-width="2.8" fill="none" />
<text text-anchor="end" x="295.0" y="269.0" fill="#000000" style="font-size:24px"><tspan style="font-style:italic;">BUS</tspan></text>
</g>
<g>
<circle cx="324.0" cy="580.0" r="9.0" stroke="#000000" stroke-width="2.8" fill="none" />
<circle cx="324.0" cy="580.0" r="15.0" stroke="#000000" stroke-width="2.8" fill="none" />
<text text-anchor="end" x="295.0" y="589.0" fill="#000000" style="font-size:24px"><tspan style="font-style:italic;">OUTPUT</tspan></text>
</g>
<g>
<path d="M 309,185 L 339,185 L 339,215 L 309,215 Z" stroke="#000000" stroke-width="2.8" fill="none"/>
<circle cx="324.0" cy="200.0" r="9.0" stroke="#000000" stroke-width="2.8" fill="none" />
<text text-anchor="end" x="295.0" y="209.0" fill="#000000" style="font-size:24px"><tspan style="font-style:italic;"><tspan style="text-decoration:overline;">IN</tspan><tspan style="font-size:80%;baseline-shift:sub;">BUS</tspan></tspan></text>
</g>
<g>
<path d="M 360,140 L 374,148 L 374,132 Z" stroke="#000000" stroke-width="2.8" fill="none"/>
<text text-anchor="start" x="379.0" y="146.75" fill="#808080" style="font-size:18px">CLOCK</text>
</g>
<g>
<path d="M 960,300 L 968,286 L 952,286 Z" stroke="#000000" stroke-width="2.8" fill="none"/>
<text text-anchor="start" x="960.0" y="287.75" fill="#808080" style="font-size:18px" transform="rotate(-90,960.0,281.0)" >CLOCK</text>
</g>
<g>
<path d="M 360,200 L 374,208 L 374,192 Z" stroke="#000000" stroke-width="2.8" fill="none"/>
<text text-anchor="start" x="379.0" y="206.75" fill="#808080" style="font-size:18px">MAR IN</text>
</g>
<g>
<path d="M 600,460 L 592,474 L 608,474 Z" stroke="#000000" stroke-width="2.8" fill="none"/>
<text text-anchor="end" x="600.0" y="485.75" fill="#808080" style="font-size:18px" transform="rotate(-90,600.0,479.0)" >MAR IN</text>
</g>
<g>
<path d="M 640,300 L 648,286 L 632,286 Z" stroke="#000000" stroke-width="2.8" fill="none"/>
<text text-anchor="start" x="640.0" y="287.75" fill="#808080" style="font-size:18px" transform="rotate(-90,640.0,281.0)" >Q7</text>
</g>
<g>
<path d="M 760,300 L 768,286 L 752,286 Z" stroke="#000000" stroke-width="2.8" fill="none"/>
<text text-anchor="start" x="760.0" y="287.75" fill="#808080" style="font-size:18px" transform="rotate(-90,760.0,281.0)" >Q6</text>
</g>
<g>
<path d="M 800,300 L 808,286 L 792,286 Z" stroke="#000000" stroke-width="2.8" fill="none"/>
<text text-anchor="start" x="800.0" y="287.75" fill="#808080" style="font-size:18px" transform="rotate(-90,800.0,281.0)" >Q5</text>
</g>
<g>
<path d="M 920,300 L 928,286 L 912,286 Z" stroke="#000000" stroke-width="2.8" fill="none"/>
<text text-anchor="start" x="920.0" y="287.75" fill="#808080" style="font-size:18px" transform="rotate(-90,920.0,281.0)" >Q4</text>
</g>
<g>
<path d="M 920,460 L 912,474 L 928,474 Z" stroke="#000000" stroke-width="2.8" fill="none"/>
<text text-anchor="end" x="920.0" y="485.75" fill="#808080" style="font-size:18px" transform="rotate(-90,920.0,479.0)" >Q3</text>
</g>
<g>
<path d="M 800,460 L 792,474 L 808,474 Z" stroke="#000000" stroke-width="2.8" fill="none"/>
<text text-anchor="end" x="800.0" y="485.75" fill="#808080" style="font-size:18px" transform="rotate(-90,800.0,479.0)" >Q2</text>
</g>
<g>
<path d="M 760,460 L 752,474 L 768,474 Z" stroke="#000000" stroke-width="2.8" fill="none"/>
<text text-anchor="end" x="760.0" y="485.75" fill="#808080" style="font-size:18px" transform="rotate(-90,760.0,479.0)" >Q1</text>
</g>
<g>
<path d="M 640,460 L 632,474 L 648,474 Z" stroke="#000000" stroke-width="2.8" fill="none"/>
<text text-anchor="end" x="640.0" y="485.75" fill="#808080" style="font-size:18px" transform="rotate(-90,640.0,479.0)" >Q0</text>
</g>
<g>
<text text-anchor="start" x="382.0" y="592.0" fill="#808080" style="font-size:12px">0</text>
<text text-anchor="start" x="382.0" y="572.0" fill="#808080" style="font-size:12px">1</text>
<text text-anchor="start" x="382.0" y="552.0" fill="#808080" style="font-size:12px">2</text>
<text text-anchor="start" x="382.0" y="532.0" fill="#808080" style="font-size:12px">3</text>
<text text-anchor="start" x="382.0" y="512.0" fill="#808080" style="font-size:12px">4</text>
<text text-anchor="start" x="382.0" y="492.0" fill="#808080" style="font-size:12px">5</text>
<text text-anchor="start" x="382.0" y="472.0" fill="#808080" style="font-size:12px">6</text>
<text text-anchor="start" x="382.0" y="452.0" fill="#808080" style="font-size:12px">7</text>
<text text-anchor="end" x="358.0" y="592.0" fill="#808080" style="font-size:12px">0-7</text>
<path d="M 372,582 L 368,582 L 368,438 L 372,438 Z" stroke="#000000" stroke-width="2.8" fill="#000000" fill-opacity="1.0"/>
</g>
<g>
<path d="M 400,580 L 414,588 L 414,572 Z" stroke="#000000" stroke-width="2.8" fill="none"/>
<text text-anchor="start" x="419.0" y="586.75" fill="#808080" style="font-size:18px">Q0</text>
</g>
<g>
<path d="M 400,540 L 414,548 L 414,532 Z" stroke="#000000" stroke-width="2.8" fill="none"/>
<text text-anchor="start" x="419.0" y="546.75" fill="#808080" style="font-size:18px">Q2</text>
</g>
<g>
<path d="M 400,560 L 414,568 L 414,552 Z" stroke="#000000" stroke-width="2.8" fill="none"/>
<text text-anchor="start" x="419.0" y="566.75" fill="#808080" style="font-size:18px">Q1</text>
</g>
<g>
<path d="M 400,520 L 414,528 L 414,512 Z" stroke="#000000" stroke-width="2.8" fill="none"/>
<text text-anchor="start" x="419.0" y="526.75" fill="#808080" style="font-size:18px">Q3</text>
</g>
<g>
<path d="M 400,500 L 414,508 L 414,492 Z" stroke="#000000" stroke-width="2.8" fill="none"/>
<text text-anchor="start" x="419.0" y="506.75" fill="#808080" style="font-size:18px">Q4</text>
</g>
<g>
<path d="M 400,460 L 414,468 L 414,452 Z" stroke="#000000" stroke-width="2.8" fill="none"/>
<text text-anchor="start" x="419.0" y="466.75" fill="#808080" style="font-size:18px">Q6</text>
</g>
<g>
<path d="M 400,480 L 414,488 L 414,472 Z" stroke="#000000" stroke-width="2.8" fill="none"/>
<text text-anchor="start" x="419.0" y="486.75" fill="#808080" style="font-size:18px">Q5</text>
</g>
<g>
<path d="M 400,440 L 414,448 L 414,432 Z" stroke="#000000" stroke-width="2.8" fill="none"/>
<text text-anchor="start" x="419.0" y="446.75" fill="#808080" style="font-size:18px">Q7</text>
</g>
<g>
<path d="M 680,260 L 688,246 L 672,246 Z" stroke="#000000" stroke-width="2.8" fill="none"/>
<text text-anchor="start" x="680.0" y="247.75" fill="#808080" style="font-size:18px" transform="rotate(-90,680.0,241.0)" >D7</text>
</g>
<g>
<path d="M 720,260 L 728,246 L 712,246 Z" stroke="#000000" stroke-width="2.8" fill="none"/>
<text text-anchor="start" x="720.0" y="247.75" fill="#808080" style="font-size:18px" transform="rotate(-90,720.0,241.0)" >D6</text>
</g>
<g>
<path d="M 840,260 L 848,246 L 832,246 Z" stroke="#000000" stroke-width="2.8" fill="none"/>
<text text-anchor="start" x="840.0" y="247.75" fill="#808080" style="font-size:18px" transform="rotate(-90,840.0,241.0)" >D5</text>
</g>
<g>
<path d="M 880,260 L 888,246 L 872,246 Z" stroke="#000000" stroke-width="2.8" fill="none"/>
<text text-anchor="start" x="880.0" y="247.75" fill="#808080" style="font-size:18px" transform="rotate(-90,880.0,241.0)" >D4</text>
</g>
<g>
<path d="M 880,480 L 872,494 L 888,494 Z" stroke="#000000" stroke-width="2.8" fill="none"/>
<text text-anchor="end" x="880.0" y="505.75" fill="#808080" style="font-size:18px" transform="rotate(-90,880.0,499.0)" >D3</text>
</g>
<g>
<path d="M 840,480 L 832,494 L 848,494 Z" stroke="#000000" stroke-width="2.8" fill="none"/>
<text text-anchor="end" x="840.0" y="505.75" fill="#808080" style="font-size:18px" transform="rotate(-90,840.0,499.0)" >D2</text>
</g>
<g>
<path d="M 720,480 L 712,494 L 728,494 Z" stroke="#000000" stroke-width="2.8" fill="none"/>
<text text-anchor="end" x="720.0" y="505.75" fill="#808080" style="font-size:18px" transform="rotate(-90,720.0,499.0)" >D1</text>
</g>
<g>
<path d="M 680,480 L 672,494 L 688,494 Z" stroke="#000000" stroke-width="2.8" fill="none"/>
<text text-anchor="end" x="680.0" y="505.75" fill="#808080" style="font-size:18px" transform="rotate(-90,680.0,499.0)" >D0</text>
</g>
<g>
<text text-anchor="end" x="358.0" y="257.0" fill="#808080" style="font-size:12px">0-7</text>
<text text-anchor="start" x="382.0" y="257.0" fill="#808080" style="font-size:12px">0</text>
<text text-anchor="start" x="382.0" y="277.0" fill="#808080" style="font-size:12px">1</text>
<text text-anchor="start" x="382.0" y="297.0" fill="#808080" style="font-size:12px">2</text>
<text text-anchor="start" x="382.0" y="317.0" fill="#808080" style="font-size:12px">3</text>
<text text-anchor="start" x="382.0" y="337.0" fill="#808080" style="font-size:12px">4</text>
<text text-anchor="start" x="382.0" y="357.0" fill="#808080" style="font-size:12px">5</text>
<text text-anchor="start" x="382.0" y="377.0" fill="#808080" style="font-size:12px">6</text>
<text text-anchor="start" x="382.0" y="397.0" fill="#808080" style="font-size:12px">7</text>
<path d="M 368,258 L 372,258 L 372,402 L 368,402 Z" stroke="#000000" stroke-width="2.8" fill="#000000" fill-opacity="1.0"/>
</g>
<g>
<path d="M 400,280 L 414,288 L 414,272 Z" stroke="#000000" stroke-width="2.8" fill="none"/>
<text text-anchor="start" x="419.0" y="286.75" fill="#808080" style="font-size:18px">D1</text>
</g>
<g>
<path d="M 400,260 L 414,268 L 414,252 Z" stroke="#000000" stroke-width="2.8" fill="none"/>
<text text-anchor="start" x="419.0" y="266.75" fill="#808080" style="font-size:18px">D0</text>
</g>
<g>
<path d="M 400,320 L 414,328 L 414,312 Z" stroke="#000000" stroke-width="2.8" fill="none"/>
<text text-anchor="start" x="419.0" y="326.75" fill="#808080" style="font-size:18px">D3</text>
</g>
<g>
<path d="M 400,300 L 414,308 L 414,292 Z" stroke="#000000" stroke-width="2.8" fill="none"/>
<text text-anchor="start" x="419.0" y="306.75" fill="#808080" style="font-size:18px">D2</text>
</g>
<g>
<path d="M 400,360 L 414,368 L 414,352 Z" stroke="#000000" stroke-width="2.8" fill="none"/>
<text text-anchor="start" x="419.0" y="366.75" fill="#808080" style="font-size:18px">D5</text>
</g>
<g>
<path d="M 400,340 L 414,348 L 414,332 Z" stroke="#000000" stroke-width="2.8" fill="none"/>
<text text-anchor="start" x="419.0" y="346.75" fill="#808080" style="font-size:18px">D4</text>
</g>
<g>
<path d="M 400,400 L 414,408 L 414,392 Z" stroke="#000000" stroke-width="2.8" fill="none"/>
<text text-anchor="start" x="419.0" y="406.75" fill="#808080" style="font-size:18px">D7</text>
</g>
<g>
<path d="M 400,380 L 414,388 L 414,372 Z" stroke="#000000" stroke-width="2.8" fill="none"/>
<text text-anchor="start" x="419.0" y="386.75" fill="#808080" style="font-size:18px">D6</text>
</g>
</g>
</svg>