<?xml version="1.0" encoding="UTF-8" standalone="no"?>
<!-- Created with Digital by H.Neemann -->
<!-- created: Sat Dec 05 20:33:06 CET 2020 -->

<svg
   xmlns:svg="http://www.w3.org/2000/svg"
   xmlns="http://www.w3.org/2000/svg"
   width="177.75mm"
   height="94.2mm"
   viewBox="-83 103 1185 628">
<g stroke-linecap="square">
<path d="M 100,320 L 120,320" stroke="#0000b2" stroke-width="2.8" fill="none"/>
<path d="M 400,640 L 420,640" stroke="#0000b2" stroke-width="2.8" fill="none"/>
<path d="M 300,580 L 340,580 L 380,580" stroke="#0000b2" stroke-width="2.8" fill="none"/>
<path d="M 400,580 L 420,580" stroke="#0000b2" stroke-width="2.8" fill="none"/>
<path d="M 100,420 L 120,420" stroke="#0000b2" stroke-width="2.8" fill="none"/>
<path d="M 100,360 L 120,360" stroke="#0000b2" stroke-width="2.8" fill="none"/>
<path d="M 360,500 L 360,520 L 380,520" stroke="#0000b2" stroke-width="2.8" fill="none"/>
<path d="M 400,680 L 420,680" stroke="#0000b2" stroke-width="2.8" fill="none"/>
<path d="M 100,300 L 120,300" stroke="#0000b2" stroke-width="2.8" fill="none"/>
<path d="M 400,620 L 420,620" stroke="#0000b2" stroke-width="2.8" fill="none"/>
<path d="M 100,400 L 120,400" stroke="#0000b2" stroke-width="2.8" fill="none"/>
<path d="M 60,240 L 80,240" stroke="#0000b2" stroke-width="2.8" fill="none"/>
<path d="M 400,720 L 420,720" stroke="#0000b2" stroke-width="2.8" fill="none"/>
<path d="M 60,180 L 80,180" stroke="#0000b2" stroke-width="2.8" fill="none"/>
<path d="M 100,340 L 120,340" stroke="#0000b2" stroke-width="2.8" fill="none"/>
<path d="M 400,660 L 420,660" stroke="#0000b2" stroke-width="2.8" fill="none"/>
<path d="M 60,120 L 80,120" stroke="#0000b2" stroke-width="2.8" fill="none"/>
<path d="M 60,440 L 80,440" stroke="#0000b2" stroke-width="2.8" fill="none"/>
<path d="M 100,440 L 120,440" stroke="#0000b2" stroke-width="2.8" fill="none"/>
<path d="M 400,600 L 420,600" stroke="#0000b2" stroke-width="2.8" fill="none"/>
<path d="M 100,380 L 120,380" stroke="#0000b2" stroke-width="2.8" fill="none"/>
<path d="M 400,700 L 420,700" stroke="#0000b2" stroke-width="2.8" fill="none"/>
<path d="M 960,440 L 960,480" stroke="#0000b2" stroke-width="2.8" fill="none"/>
<path d="M 960,280 L 960,320" stroke="#0000b2" stroke-width="2.8" fill="none"/>
<path d="M 800,440 L 800,480" stroke="#0000b2" stroke-width="2.8" fill="none"/>
<path d="M 800,280 L 800,320" stroke="#0000b2" stroke-width="2.8" fill="none"/>
<path d="M 580,300 L 580,320" stroke="#0000b2" stroke-width="2.8" fill="none"/>
<path d="M 580,440 L 580,480" stroke="#0000b2" stroke-width="2.8" fill="none"/>
<path d="M 420,300 L 420,320" stroke="#0000b2" stroke-width="2.8" fill="none"/>
<path d="M 420,440 L 420,480" stroke="#0000b2" stroke-width="2.8" fill="none"/>
<path d="M 840,440 L 840,480" stroke="#0000b2" stroke-width="2.8" fill="none"/>
<path d="M 840,280 L 840,320" stroke="#0000b2" stroke-width="2.8" fill="none"/>
<path d="M 1000,440 L 1000,480" stroke="#0000b2" stroke-width="2.8" fill="none"/>
<path d="M 1000,280 L 1000,320" stroke="#0000b2" stroke-width="2.8" fill="none"/>
<path d="M 460,300 L 460,320" stroke="#0000b2" stroke-width="2.8" fill="none"/>
<path d="M 460,440 L 460,480" stroke="#0000b2" stroke-width="2.8" fill="none"/>
<path d="M 300,300 L 300,320" stroke="#0000b2" stroke-width="2.8" fill="none"/>
<path d="M 300,440 L 300,460" stroke="#0000b2" stroke-width="2.8" fill="none"/>
<path d="M 620,300 L 620,320" stroke="#0000b2" stroke-width="2.8" fill="none"/>
<path d="M 620,440 L 620,480" stroke="#0000b2" stroke-width="2.8" fill="none"/>
<path d="M 720,300 L 720,320" stroke="#0000b2" stroke-width="2.8" fill="none"/>
<path d="M 720,440 L 720,460" stroke="#0000b2" stroke-width="2.8" fill="none"/>
<path d="M 1040,440 L 1040,460" stroke="#0000b2" stroke-width="2.8" fill="none"/>
<path d="M 1040,300 L 1040,320" stroke="#0000b2" stroke-width="2.8" fill="none"/>
<path d="M 880,440 L 880,460" stroke="#0000b2" stroke-width="2.8" fill="none"/>
<path d="M 880,300 L 880,320" stroke="#0000b2" stroke-width="2.8" fill="none"/>
<path d="M 660,440 L 660,460" stroke="#0000b2" stroke-width="2.8" fill="none"/>
<path d="M 660,300 L 660,320" stroke="#0000b2" stroke-width="2.8" fill="none"/>
<path d="M 340,300 L 340,320" stroke="#0000b2" stroke-width="2.8" fill="none"/>
<path d="M 340,440 L 340,480" stroke="#0000b2" stroke-width="2.8" fill="none"/>
<path d="M 340,500 L 340,580" stroke="#0000b2" stroke-width="2.8" fill="none"/>
<path d="M 500,300 L 500,320" stroke="#0000b2" stroke-width="2.8" fill="none"/>
<path d="M 500,440 L 500,480" stroke="#0000b2" stroke-width="2.8" fill="none"/>
<path d="M 920,440 L 920,460" stroke="#0000b2" stroke-width="2.8" fill="none"/>
<path d="M 920,300 L 920,320" stroke="#0000b2" stroke-width="2.8" fill="none"/>
<path d="M 1080,440 L 1080,460" stroke="#0000b2" stroke-width="2.8" fill="none"/>
<path d="M 1080,300 L 1080,320" stroke="#0000b2" stroke-width="2.8" fill="none"/>
<path d="M 760,440 L 760,460" stroke="#0000b2" stroke-width="2.8" fill="none"/>
<path d="M 760,300 L 760,320" stroke="#0000b2" stroke-width="2.8" fill="none"/>
<path d="M 540,300 L 540,320" stroke="#0000b2" stroke-width="2.8" fill="none"/>
<path d="M 540,440 L 540,480" stroke="#0000b2" stroke-width="2.8" fill="none"/>
<path d="M 380,300 L 380,320" stroke="#0000b2" stroke-width="2.8" fill="none"/>
<path d="M 380,440 L 380,480" stroke="#0000b2" stroke-width="2.8" fill="none"/>
<path d="M 300,294 L 300,300" stroke="#000000" stroke-width="2.8" fill="none"/>
<path d="M 720,294 L 720,300" stroke="#000000" stroke-width="2.8" fill="none"/>
<path d="M 100,440 L 90,440 L 80,440" stroke="#000000" stroke-width="2.8" fill="none"/>
<path d="M 100,420 L 90,420" stroke="#000000" stroke-width="2.8" fill="none"/>
<path d="M 100,400 L 90,400" stroke="#000000" stroke-width="2.8" fill="none"/>
<path d="M 100,380 L 90,380" stroke="#000000" stroke-width="2.8" fill="none"/>
<path d="M 100,360 L 90,360" stroke="#000000" stroke-width="2.8" fill="none"/>
<path d="M 100,340 L 90,340" stroke="#000000" stroke-width="2.8" fill="none"/>
<path d="M 100,320 L 90,320" stroke="#000000" stroke-width="2.8" fill="none"/>
<path d="M 100,300 L 90,300" stroke="#000000" stroke-width="2.8" fill="none"/>
<path d="M 380,580 L 390,580 L 400,580" stroke="#000000" stroke-width="2.8" fill="none"/>
<path d="M 400,600 L 390,600" stroke="#000000" stroke-width="2.8" fill="none"/>
<path d="M 400,620 L 390,620" stroke="#000000" stroke-width="2.8" fill="none"/>
<path d="M 400,640 L 390,640" stroke="#000000" stroke-width="2.8" fill="none"/>
<path d="M 400,660 L 390,660" stroke="#000000" stroke-width="2.8" fill="none"/>
<path d="M 400,680 L 390,680" stroke="#000000" stroke-width="2.8" fill="none"/>
<path d="M 400,700 L 390,700" stroke="#000000" stroke-width="2.8" fill="none"/>
<path d="M 400,720 L 390,720" stroke="#000000" stroke-width="2.8" fill="none"/>
<path d="M 340,500 L 340,490 L 340,480" stroke="#000000" stroke-width="2.8" fill="none"/>
<path d="M 360,500 L 360,490" stroke="#000000" stroke-width="2.8" fill="none"/>
<path d="M 380,480 L 380,490" stroke="#000000" stroke-width="2.8" fill="none"/>
<path d="M 420,480 L 420,490" stroke="#000000" stroke-width="2.8" fill="none"/>
<path d="M 460,480 L 460,490" stroke="#000000" stroke-width="2.8" fill="none"/>
<path d="M 500,480 L 500,490" stroke="#000000" stroke-width="2.8" fill="none"/>
<path d="M 540,480 L 540,490" stroke="#000000" stroke-width="2.8" fill="none"/>
<path d="M 580,480 L 580,490" stroke="#000000" stroke-width="2.8" fill="none"/>
<path d="M 620,480 L 620,490" stroke="#000000" stroke-width="2.8" fill="none"/>
<path d="M 650,460 L 670,460" stroke="#000000" stroke-width="4.199999999999999" fill="none"/>
<path d="M 1070,460 L 1090,460" stroke="#000000" stroke-width="4.199999999999999" fill="none"/>
<path d="M 290,460 L 310,460" stroke="#000000" stroke-width="4.199999999999999" fill="none"/>
<g>
<circle cx="340.0" cy="580.0" r="4.0" stroke="#0000b2" stroke-width="2.8" fill="#0000b2" />
</g>
<g>
<path d="M 710,430 L 710,438 L 730,438 L 730,430" stroke="#000000" stroke-width="2.8" fill="none"/>
<text text-anchor="start" x="720.0" y="431.75" fill="#808080" style="font-size:18px" transform="rotate(-90,720.0,425.0)" ><tspan style="text-decoration:overline;">E</tspan></text>
<path d="M 710,330 L 710,322 L 730,322 L 730,330" stroke="#000000" stroke-width="2.8" fill="none"/>
<text text-anchor="end" x="720.0" y="341.75" fill="#808080" style="font-size:18px" transform="rotate(-90,720.0,335.0)" >VCC</text>
<path d="M 750,430 L 750,438 L 770,438 L 770,430" stroke="#000000" stroke-width="2.8" fill="none"/>
<text text-anchor="start" x="760.0" y="431.75" fill="#808080" style="font-size:18px" transform="rotate(-90,760.0,425.0)" >Q0</text>
<path d="M 750,330 L 750,322 L 770,322 L 770,330" stroke="#000000" stroke-width="2.8" fill="none"/>
<text text-anchor="end" x="760.0" y="341.75" fill="#808080" style="font-size:18px" transform="rotate(-90,760.0,335.0)" >Q7</text>
<path d="M 790,430 L 790,438 L 810,438 L 810,430" stroke="#000000" stroke-width="2.8" fill="none"/>
<text text-anchor="start" x="800.0" y="431.75" fill="#808080" style="font-size:18px" transform="rotate(-90,800.0,425.0)" >D0</text>
<path d="M 790,330 L 790,322 L 810,322 L 810,330" stroke="#000000" stroke-width="2.8" fill="none"/>
<text text-anchor="end" x="800.0" y="341.75" fill="#808080" style="font-size:18px" transform="rotate(-90,800.0,335.0)" >D7</text>
<path d="M 830,430 L 830,438 L 850,438 L 850,430" stroke="#000000" stroke-width="2.8" fill="none"/>
<text text-anchor="start" x="840.0" y="431.75" fill="#808080" style="font-size:18px" transform="rotate(-90,840.0,425.0)" >D1</text>
<path d="M 830,330 L 830,322 L 850,322 L 850,330" stroke="#000000" stroke-width="2.8" fill="none"/>
<text text-anchor="end" x="840.0" y="341.75" fill="#808080" style="font-size:18px" transform="rotate(-90,840.0,335.0)" >D6</text>
<path d="M 870,430 L 870,438 L 890,438 L 890,430" stroke="#000000" stroke-width="2.8" fill="none"/>
<text text-anchor="start" x="880.0" y="431.75" fill="#808080" style="font-size:18px" transform="rotate(-90,880.0,425.0)" >Q1</text>
<path d="M 870,330 L 870,322 L 890,322 L 890,330" stroke="#000000" stroke-width="2.8" fill="none"/>
<text text-anchor="end" x="880.0" y="341.75" fill="#808080" style="font-size:18px" transform="rotate(-90,880.0,335.0)" >Q6</text>
<path d="M 910,430 L 910,438 L 930,438 L 930,430" stroke="#000000" stroke-width="2.8" fill="none"/>
<text text-anchor="start" x="920.0" y="431.75" fill="#808080" style="font-size:18px" transform="rotate(-90,920.0,425.0)" >Q2</text>
<path d="M 910,330 L 910,322 L 930,322 L 930,330" stroke="#000000" stroke-width="2.8" fill="none"/>
<text text-anchor="end" x="920.0" y="341.75" fill="#808080" style="font-size:18px" transform="rotate(-90,920.0,335.0)" >Q5</text>
<path d="M 950,430 L 950,438 L 970,438 L 970,430" stroke="#000000" stroke-width="2.8" fill="none"/>
<text text-anchor="start" x="960.0" y="431.75" fill="#808080" style="font-size:18px" transform="rotate(-90,960.0,425.0)" >D2</text>
<path d="M 950,330 L 950,322 L 970,322 L 970,330" stroke="#000000" stroke-width="2.8" fill="none"/>
<text text-anchor="end" x="960.0" y="341.75" fill="#808080" style="font-size:18px" transform="rotate(-90,960.0,335.0)" >D5</text>
<path d="M 990,430 L 990,438 L 1010,438 L 1010,430" stroke="#000000" stroke-width="2.8" fill="none"/>
<text text-anchor="start" x="1000.0" y="431.75" fill="#808080" style="font-size:18px" transform="rotate(-90,1000.0,425.0)" >D3</text>
<path d="M 990,330 L 990,322 L 1010,322 L 1010,330" stroke="#000000" stroke-width="2.8" fill="none"/>
<text text-anchor="end" x="1000.0" y="341.75" fill="#808080" style="font-size:18px" transform="rotate(-90,1000.0,335.0)" >D4</text>
<path d="M 1030,430 L 1030,438 L 1050,438 L 1050,430" stroke="#000000" stroke-width="2.8" fill="none"/>
<text text-anchor="start" x="1040.0" y="431.75" fill="#808080" style="font-size:18px" transform="rotate(-90,1040.0,425.0)" >Q3</text>
<path d="M 1030,330 L 1030,322 L 1050,322 L 1050,330" stroke="#000000" stroke-width="2.8" fill="none"/>
<text text-anchor="end" x="1040.0" y="341.75" fill="#808080" style="font-size:18px" transform="rotate(-90,1040.0,335.0)" >Q4</text>
<path d="M 1070,430 L 1070,438 L 1090,438 L 1090,430" stroke="#000000" stroke-width="2.8" fill="none"/>
<text text-anchor="start" x="1080.0" y="431.75" fill="#808080" style="font-size:18px" transform="rotate(-90,1080.0,425.0)" >GND</text>
<path d="M 1070,330 L 1070,322 L 1090,322 L 1090,330" stroke="#000000" stroke-width="2.8" fill="none"/>
<text text-anchor="end" x="1080.0" y="341.75" fill="#808080" style="font-size:18px" transform="rotate(-90,1080.0,335.0)" >CLK</text>
<path d="M 700,430 L 700,390 C 706,390 710,386 710,380 C 710,374 706,370 700,370 L 700,330 L 1100,330 L 1100,430 Z" stroke="#000000" stroke-width="2.8" fill="none"/>
<text text-anchor="start" x="730.0" y="389.0" fill="#000000" style="font-size:24px">74377</text>
</g>
<g>
<path d="M 290,430 L 290,438 L 310,438 L 310,430" stroke="#000000" stroke-width="2.8" fill="none"/>
<text text-anchor="start" x="300.0" y="431.75" fill="#808080" style="font-size:18px" transform="rotate(-90,300.0,425.0)" >DIR</text>
<path d="M 290,330 L 290,322 L 310,322 L 310,330" stroke="#000000" stroke-width="2.8" fill="none"/>
<text text-anchor="end" x="300.0" y="341.75" fill="#808080" style="font-size:18px" transform="rotate(-90,300.0,335.0)" >VCC</text>
<path d="M 330,430 L 330,438 L 350,438 L 350,430" stroke="#000000" stroke-width="2.8" fill="none"/>
<text text-anchor="start" x="340.0" y="431.75" fill="#808080" style="font-size:18px" transform="rotate(-90,340.0,425.0)" >A1</text>
<path d="M 330,330 L 330,322 L 350,322 L 350,330" stroke="#000000" stroke-width="2.8" fill="none"/>
<text text-anchor="end" x="340.0" y="341.75" fill="#808080" style="font-size:18px" transform="rotate(-90,340.0,335.0)" ><tspan style="text-decoration:overline;">OE</tspan></text>
<path d="M 370,430 L 370,438 L 390,438 L 390,430" stroke="#000000" stroke-width="2.8" fill="none"/>
<text text-anchor="start" x="380.0" y="431.75" fill="#808080" style="font-size:18px" transform="rotate(-90,380.0,425.0)" >A2</text>
<path d="M 370,330 L 370,322 L 390,322 L 390,330" stroke="#000000" stroke-width="2.8" fill="none"/>
<text text-anchor="end" x="380.0" y="341.75" fill="#808080" style="font-size:18px" transform="rotate(-90,380.0,335.0)" >B1</text>
<path d="M 410,430 L 410,438 L 430,438 L 430,430" stroke="#000000" stroke-width="2.8" fill="none"/>
<text text-anchor="start" x="420.0" y="431.75" fill="#808080" style="font-size:18px" transform="rotate(-90,420.0,425.0)" >A3</text>
<path d="M 410,330 L 410,322 L 430,322 L 430,330" stroke="#000000" stroke-width="2.8" fill="none"/>
<text text-anchor="end" x="420.0" y="341.75" fill="#808080" style="font-size:18px" transform="rotate(-90,420.0,335.0)" >B2</text>
<path d="M 450,430 L 450,438 L 470,438 L 470,430" stroke="#000000" stroke-width="2.8" fill="none"/>
<text text-anchor="start" x="460.0" y="431.75" fill="#808080" style="font-size:18px" transform="rotate(-90,460.0,425.0)" >A4</text>
<path d="M 450,330 L 450,322 L 470,322 L 470,330" stroke="#000000" stroke-width="2.8" fill="none"/>
<text text-anchor="end" x="460.0" y="341.75" fill="#808080" style="font-size:18px" transform="rotate(-90,460.0,335.0)" >B3</text>
<path d="M 490,430 L 490,438 L 510,438 L 510,430" stroke="#000000" stroke-width="2.8" fill="none"/>
<text text-anchor="start" x="500.0" y="431.75" fill="#808080" style="font-size:18px" transform="rotate(-90,500.0,425.0)" >A5</text>
<path d="M 490,330 L 490,322 L 510,322 L 510,330" stroke="#000000" stroke-width="2.8" fill="none"/>
<text text-anchor="end" x="500.0" y="341.75" fill="#808080" style="font-size:18px" transform="rotate(-90,500.0,335.0)" >B4</text>
<path d="M 530,430 L 530,438 L 550,438 L 550,430" stroke="#000000" stroke-width="2.8" fill="none"/>
<text text-anchor="start" x="540.0" y="431.75" fill="#808080" style="font-size:18px" transform="rotate(-90,540.0,425.0)" >A6</text>
<path d="M 530,330 L 530,322 L 550,322 L 550,330" stroke="#000000" stroke-width="2.8" fill="none"/>
<text text-anchor="end" x="540.0" y="341.75" fill="#808080" style="font-size:18px" transform="rotate(-90,540.0,335.0)" >B5</text>
<path d="M 570,430 L 570,438 L 590,438 L 590,430" stroke="#000000" stroke-width="2.8" fill="none"/>
<text text-anchor="start" x="580.0" y="431.75" fill="#808080" style="font-size:18px" transform="rotate(-90,580.0,425.0)" >A7</text>
<path d="M 570,330 L 570,322 L 590,322 L 590,330" stroke="#000000" stroke-width="2.8" fill="none"/>
<text text-anchor="end" x="580.0" y="341.75" fill="#808080" style="font-size:18px" transform="rotate(-90,580.0,335.0)" >B6</text>
<path d="M 610,430 L 610,438 L 630,438 L 630,430" stroke="#000000" stroke-width="2.8" fill="none"/>
<text text-anchor="start" x="620.0" y="431.75" fill="#808080" style="font-size:18px" transform="rotate(-90,620.0,425.0)" >A8</text>
<path d="M 610,330 L 610,322 L 630,322 L 630,330" stroke="#000000" stroke-width="2.8" fill="none"/>
<text text-anchor="end" x="620.0" y="341.75" fill="#808080" style="font-size:18px" transform="rotate(-90,620.0,335.0)" >B7</text>
<path d="M 650,430 L 650,438 L 670,438 L 670,430" stroke="#000000" stroke-width="2.8" fill="none"/>
<text text-anchor="start" x="660.0" y="431.75" fill="#808080" style="font-size:18px" transform="rotate(-90,660.0,425.0)" >GND</text>
<path d="M 650,330 L 650,322 L 670,322 L 670,330" stroke="#000000" stroke-width="2.8" fill="none"/>
<text text-anchor="end" x="660.0" y="341.75" fill="#808080" style="font-size:18px" transform="rotate(-90,660.0,335.0)" >B8</text>
<path d="M 280,430 L 280,390 C 286,390 290,386 290,380 C 290,374 286,370 280,370 L 280,330 L 680,330 L 680,430 Z" stroke="#000000" stroke-width="2.8" fill="none"/>
<text text-anchor="start" x="310.0" y="389.0" fill="#000000" style="font-size:24px">74245</text>
</g>
<g>
<path d="M 290,304 L 300,291 L 310,304" stroke="#000000" stroke-width="2.8" fill="none"/>
</g>
<g>
<path d="M 710,304 L 720,291 L 730,304" stroke="#000000" stroke-width="2.8" fill="none"/>
</g>
<g>
</g>
<g>
</g>
<g>
<path d="M 29,105 L 59,105 L 59,135 L 29,135 Z" stroke="#000000" stroke-width="2.8" fill="none"/>
<text text-anchor="end" x="15.0" y="129.0" fill="#000000" style="font-size:24px">CLOCK</text>
<path d="M 35,125 L 40,125 L 40,115 L 45,115 L 45,125 L 50,125 L 50,115 L 55,115" stroke="#000000" stroke-width="1.4" fill="none"/>
</g>
<g>
<path d="M 80,120 L 94,128 L 94,112 Z" stroke="#000000" stroke-width="2.8" fill="none"/>
<text text-anchor="start" x="99.0" y="126.75" fill="#808080" style="font-size:18px">CLOCK</text>
</g>
<g>
<path d="M 1080,300 L 1088,286 L 1072,286 Z" stroke="#000000" stroke-width="2.8" fill="none"/>
<text text-anchor="start" x="1080.0" y="287.75" fill="#808080" style="font-size:18px" transform="rotate(-90,1080.0,281.0)" >CLOCK</text>
</g>
<g>
<path d="M 29,165 L 59,165 L 59,195 L 29,195 Z" stroke="#000000" stroke-width="2.8" fill="none"/>
<circle cx="44.0" cy="180.0" r="9.0" stroke="#000000" stroke-width="2.8" fill="none" />
<text text-anchor="end" x="15.0" y="189.0" fill="#000000" style="font-size:24px"><tspan style="font-style:italic;"><tspan style="text-decoration:overline;">IN</tspan><tspan style="font-size:80%;baseline-shift:sub;">BUS</tspan></tspan></text>
</g>
<g>
<path d="M 80,180 L 94,188 L 94,172 Z" stroke="#000000" stroke-width="2.8" fill="none"/>
<text text-anchor="start" x="99.0" y="186.75" fill="#808080" style="font-size:18px"><tspan style="text-decoration:overline;">IN</tspan><tspan style="font-size:80%;baseline-shift:sub;">BUS</tspan></text>
</g>
<g>
<path d="M 340,300 L 348,286 L 332,286 Z" stroke="#000000" stroke-width="2.8" fill="none"/>
<text text-anchor="start" x="340.0" y="287.75" fill="#808080" style="font-size:18px" transform="rotate(-90,340.0,281.0)" ><tspan style="text-decoration:overline;">OUT</tspan><tspan style="font-size:80%;baseline-shift:sub;">BUS</tspan></text>
</g>
<g>
<circle cx="284.0" cy="580.0" r="9.0" stroke="#000000" stroke-width="2.8" fill="none" />
<circle cx="284.0" cy="580.0" r="15.0" stroke="#000000" stroke-width="2.8" fill="none" />
<text text-anchor="end" x="255.0" y="589.0" fill="#000000" style="font-size:24px"><tspan style="font-style:italic;">BUS</tspan></text>
</g>
<g>
<circle cx="44.0" cy="440.0" r="9.0" stroke="#000000" stroke-width="2.8" fill="none" />
<circle cx="44.0" cy="440.0" r="15.0" stroke="#000000" stroke-width="2.8" fill="none" />
<text text-anchor="end" x="15.0" y="449.0" fill="#000000" style="font-size:24px"><tspan style="font-style:italic;">OUTPUT</tspan></text>
</g>
<g>
<text text-anchor="start" x="102.0" y="452.0" fill="#808080" style="font-size:12px">0</text>
<text text-anchor="start" x="102.0" y="432.0" fill="#808080" style="font-size:12px">1</text>
<text text-anchor="start" x="102.0" y="412.0" fill="#808080" style="font-size:12px">2</text>
<text text-anchor="start" x="102.0" y="392.0" fill="#808080" style="font-size:12px">3</text>
<text text-anchor="start" x="102.0" y="372.0" fill="#808080" style="font-size:12px">4</text>
<text text-anchor="start" x="102.0" y="352.0" fill="#808080" style="font-size:12px">5</text>
<text text-anchor="start" x="102.0" y="332.0" fill="#808080" style="font-size:12px">6</text>
<text text-anchor="start" x="102.0" y="312.0" fill="#808080" style="font-size:12px">7</text>
<text text-anchor="end" x="78.0" y="452.0" fill="#808080" style="font-size:12px">0-7</text>
<path d="M 92,442 L 88,442 L 88,298 L 92,298 Z" stroke="#000000" stroke-width="2.8" fill="#000000" fill-opacity="1.0"/>
</g>
<g>
<path d="M 120,320 L 134,328 L 134,312 Z" stroke="#000000" stroke-width="2.8" fill="none"/>
<text text-anchor="start" x="139.0" y="326.75" fill="#808080" style="font-size:18px">Q6</text>
</g>
<g>
<path d="M 120,340 L 134,348 L 134,332 Z" stroke="#000000" stroke-width="2.8" fill="none"/>
<text text-anchor="start" x="139.0" y="346.75" fill="#808080" style="font-size:18px">Q5</text>
</g>
<g>
<path d="M 120,360 L 134,368 L 134,352 Z" stroke="#000000" stroke-width="2.8" fill="none"/>
<text text-anchor="start" x="139.0" y="366.75" fill="#808080" style="font-size:18px">Q4</text>
</g>
<g>
<path d="M 120,380 L 134,388 L 134,372 Z" stroke="#000000" stroke-width="2.8" fill="none"/>
<text text-anchor="start" x="139.0" y="386.75" fill="#808080" style="font-size:18px">Q3</text>
</g>
<g>
<path d="M 120,400 L 134,408 L 134,392 Z" stroke="#000000" stroke-width="2.8" fill="none"/>
<text text-anchor="start" x="139.0" y="406.75" fill="#808080" style="font-size:18px">Q2</text>
</g>
<g>
<path d="M 120,420 L 134,428 L 134,412 Z" stroke="#000000" stroke-width="2.8" fill="none"/>
<text text-anchor="start" x="139.0" y="426.75" fill="#808080" style="font-size:18px">Q1</text>
</g>
<g>
<path d="M 120,440 L 134,448 L 134,432 Z" stroke="#000000" stroke-width="2.8" fill="none"/>
<text text-anchor="start" x="139.0" y="446.75" fill="#808080" style="font-size:18px">Q0</text>
</g>
<g>
<path d="M 120,300 L 134,308 L 134,292 Z" stroke="#000000" stroke-width="2.8" fill="none"/>
<text text-anchor="start" x="139.0" y="306.75" fill="#808080" style="font-size:18px">Q7</text>
</g>
<g>
<path d="M 880,300 L 888,286 L 872,286 Z" stroke="#000000" stroke-width="2.8" fill="none"/>
<text text-anchor="start" x="880.0" y="287.75" fill="#808080" style="font-size:18px" transform="rotate(-90,880.0,281.0)" >Q6</text>
</g>
<g>
<path d="M 920,300 L 928,286 L 912,286 Z" stroke="#000000" stroke-width="2.8" fill="none"/>
<text text-anchor="start" x="920.0" y="287.75" fill="#808080" style="font-size:18px" transform="rotate(-90,920.0,281.0)" >Q5</text>
</g>
<g>
<path d="M 1040,300 L 1048,286 L 1032,286 Z" stroke="#000000" stroke-width="2.8" fill="none"/>
<text text-anchor="start" x="1040.0" y="287.75" fill="#808080" style="font-size:18px" transform="rotate(-90,1040.0,281.0)" >Q4</text>
</g>
<g>
<path d="M 1040,460 L 1032,474 L 1048,474 Z" stroke="#000000" stroke-width="2.8" fill="none"/>
<text text-anchor="end" x="1040.0" y="485.75" fill="#808080" style="font-size:18px" transform="rotate(-90,1040.0,479.0)" >Q3</text>
</g>
<g>
<path d="M 920,460 L 912,474 L 928,474 Z" stroke="#000000" stroke-width="2.8" fill="none"/>
<text text-anchor="end" x="920.0" y="485.75" fill="#808080" style="font-size:18px" transform="rotate(-90,920.0,479.0)" >Q2</text>
</g>
<g>
<path d="M 880,460 L 872,474 L 888,474 Z" stroke="#000000" stroke-width="2.8" fill="none"/>
<text text-anchor="end" x="880.0" y="485.75" fill="#808080" style="font-size:18px" transform="rotate(-90,880.0,479.0)" >Q1</text>
</g>
<g>
<path d="M 760,460 L 752,474 L 768,474 Z" stroke="#000000" stroke-width="2.8" fill="none"/>
<text text-anchor="end" x="760.0" y="485.75" fill="#808080" style="font-size:18px" transform="rotate(-90,760.0,479.0)" >Q0</text>
</g>
<g>
<path d="M 760,300 L 768,286 L 752,286 Z" stroke="#000000" stroke-width="2.8" fill="none"/>
<text text-anchor="start" x="760.0" y="287.75" fill="#808080" style="font-size:18px" transform="rotate(-90,760.0,281.0)" >Q7</text>
</g>
<g>
</g>
<g>
<text text-anchor="end" x="318.0" y="495.75" fill="#000000" style="font-size:17px">B to A (LOW)</text>
<path d="M 320,480 L 280,480 L 280,380 L 320,380 Z" stroke-dasharray="4.0,4.0" stroke="#000000" stroke-width="0.7" fill="none"/>
</g>
<g>
<path d="M 800,480 L 792,494 L 808,494 Z" stroke="#000000" stroke-width="2.8" fill="none"/>
<text text-anchor="end" x="800.0" y="505.75" fill="#808080" style="font-size:18px" transform="rotate(-90,800.0,499.0)" >D0</text>
</g>
<g>
<path d="M 840,480 L 832,494 L 848,494 Z" stroke="#000000" stroke-width="2.8" fill="none"/>
<text text-anchor="end" x="840.0" y="505.75" fill="#808080" style="font-size:18px" transform="rotate(-90,840.0,499.0)" >D1</text>
</g>
<g>
<path d="M 960,480 L 952,494 L 968,494 Z" stroke="#000000" stroke-width="2.8" fill="none"/>
<text text-anchor="end" x="960.0" y="505.75" fill="#808080" style="font-size:18px" transform="rotate(-90,960.0,499.0)" >D2</text>
</g>
<g>
<path d="M 1000,480 L 992,494 L 1008,494 Z" stroke="#000000" stroke-width="2.8" fill="none"/>
<text text-anchor="end" x="1000.0" y="505.75" fill="#808080" style="font-size:18px" transform="rotate(-90,1000.0,499.0)" >D3</text>
</g>
<g>
<path d="M 1000,280 L 1008,266 L 992,266 Z" stroke="#000000" stroke-width="2.8" fill="none"/>
<text text-anchor="start" x="1000.0" y="267.75" fill="#808080" style="font-size:18px" transform="rotate(-90,1000.0,261.0)" >D4</text>
</g>
<g>
<path d="M 960,280 L 968,266 L 952,266 Z" stroke="#000000" stroke-width="2.8" fill="none"/>
<text text-anchor="start" x="960.0" y="267.75" fill="#808080" style="font-size:18px" transform="rotate(-90,960.0,261.0)" >D5</text>
</g>
<g>
<path d="M 840,280 L 848,266 L 832,266 Z" stroke="#000000" stroke-width="2.8" fill="none"/>
<text text-anchor="start" x="840.0" y="267.75" fill="#808080" style="font-size:18px" transform="rotate(-90,840.0,261.0)" >D6</text>
</g>
<g>
<path d="M 800,280 L 808,266 L 792,266 Z" stroke="#000000" stroke-width="2.8" fill="none"/>
<text text-anchor="start" x="800.0" y="267.75" fill="#808080" style="font-size:18px" transform="rotate(-90,800.0,261.0)" >D7</text>
</g>
<g>
<path d="M 620,300 L 628,286 L 612,286 Z" stroke="#000000" stroke-width="2.8" fill="none"/>
<text text-anchor="start" x="620.0" y="287.75" fill="#808080" style="font-size:18px" transform="rotate(-90,620.0,281.0)" >Q6</text>
</g>
<g>
<path d="M 580,300 L 588,286 L 572,286 Z" stroke="#000000" stroke-width="2.8" fill="none"/>
<text text-anchor="start" x="580.0" y="287.75" fill="#808080" style="font-size:18px" transform="rotate(-90,580.0,281.0)" >Q5</text>
</g>
<g>
<path d="M 540,300 L 548,286 L 532,286 Z" stroke="#000000" stroke-width="2.8" fill="none"/>
<text text-anchor="start" x="540.0" y="287.75" fill="#808080" style="font-size:18px" transform="rotate(-90,540.0,281.0)" >Q4</text>
</g>
<g>
<path d="M 500,300 L 508,286 L 492,286 Z" stroke="#000000" stroke-width="2.8" fill="none"/>
<text text-anchor="start" x="500.0" y="287.75" fill="#808080" style="font-size:18px" transform="rotate(-90,500.0,281.0)" >Q3</text>
</g>
<g>
<path d="M 460,300 L 468,286 L 452,286 Z" stroke="#000000" stroke-width="2.8" fill="none"/>
<text text-anchor="start" x="460.0" y="287.75" fill="#808080" style="font-size:18px" transform="rotate(-90,460.0,281.0)" >Q2</text>
</g>
<g>
<path d="M 420,300 L 428,286 L 412,286 Z" stroke="#000000" stroke-width="2.8" fill="none"/>
<text text-anchor="start" x="420.0" y="287.75" fill="#808080" style="font-size:18px" transform="rotate(-90,420.0,281.0)" >Q1</text>
</g>
<g>
<path d="M 380,300 L 388,286 L 372,286 Z" stroke="#000000" stroke-width="2.8" fill="none"/>
<text text-anchor="start" x="380.0" y="287.75" fill="#808080" style="font-size:18px" transform="rotate(-90,380.0,281.0)" >Q0</text>
</g>
<g>
<path d="M 660,300 L 668,286 L 652,286 Z" stroke="#000000" stroke-width="2.8" fill="none"/>
<text text-anchor="start" x="660.0" y="287.75" fill="#808080" style="font-size:18px" transform="rotate(-90,660.0,281.0)" >Q7</text>
</g>
<g>
<text text-anchor="end" x="378.0" y="577.0" fill="#808080" style="font-size:12px">0-7</text>
<text text-anchor="start" x="402.0" y="577.0" fill="#808080" style="font-size:12px">0</text>
<text text-anchor="start" x="402.0" y="597.0" fill="#808080" style="font-size:12px">1</text>
<text text-anchor="start" x="402.0" y="617.0" fill="#808080" style="font-size:12px">2</text>
<text text-anchor="start" x="402.0" y="637.0" fill="#808080" style="font-size:12px">3</text>
<text text-anchor="start" x="402.0" y="657.0" fill="#808080" style="font-size:12px">4</text>
<text text-anchor="start" x="402.0" y="677.0" fill="#808080" style="font-size:12px">5</text>
<text text-anchor="start" x="402.0" y="697.0" fill="#808080" style="font-size:12px">6</text>
<text text-anchor="start" x="402.0" y="717.0" fill="#808080" style="font-size:12px">7</text>
<path d="M 388,578 L 392,578 L 392,722 L 388,722 Z" stroke="#000000" stroke-width="2.8" fill="#000000" fill-opacity="1.0"/>
</g>
<g>
<text text-anchor="end" x="337.0" y="502.0" fill="#808080" style="font-size:12px" transform="rotate(-90,337.0,502.0)" >D</text>
<text text-anchor="end" x="357.0" y="502.0" fill="#808080" style="font-size:12px" transform="rotate(-90,357.0,502.0)" >OE</text>
<text text-anchor="start" x="337.0" y="478.0" fill="#808080" style="font-size:12px" transform="rotate(-90,337.0,478.0)" >D0</text>
<text text-anchor="start" x="377.0" y="478.0" fill="#808080" style="font-size:12px" transform="rotate(-90,377.0,478.0)" >D1</text>
<text text-anchor="start" x="417.0" y="478.0" fill="#808080" style="font-size:12px" transform="rotate(-90,417.0,478.0)" >D2</text>
<text text-anchor="start" x="457.0" y="478.0" fill="#808080" style="font-size:12px" transform="rotate(-90,457.0,478.0)" >D3</text>
<text text-anchor="start" x="497.0" y="478.0" fill="#808080" style="font-size:12px" transform="rotate(-90,497.0,478.0)" >D4</text>
<text text-anchor="start" x="537.0" y="478.0" fill="#808080" style="font-size:12px" transform="rotate(-90,537.0,478.0)" >D5</text>
<text text-anchor="start" x="577.0" y="478.0" fill="#808080" style="font-size:12px" transform="rotate(-90,577.0,478.0)" >D6</text>
<text text-anchor="start" x="617.0" y="478.0" fill="#808080" style="font-size:12px" transform="rotate(-90,617.0,478.0)" >D7</text>
<path d="M 338,492 L 338,488 L 622,488 L 622,492 Z" stroke="#000000" stroke-width="2.8" fill="#000000" fill-opacity="1.0"/>
</g>
<g>
<path d="M 380,520 L 394,528 L 394,512 Z" stroke="#000000" stroke-width="2.8" fill="none"/>
<text text-anchor="start" x="399.0" y="526.75" fill="#808080" style="font-size:18px"><tspan style="text-decoration:overline;">OUT</tspan><tspan style="font-size:80%;baseline-shift:sub;">BUS</tspan></text>
</g>
<g>
<path d="M 420,580 L 434,588 L 434,572 Z" stroke="#000000" stroke-width="2.8" fill="none"/>
<text text-anchor="start" x="439.0" y="586.75" fill="#808080" style="font-size:18px">D0</text>
</g>
<g>
<path d="M 420,600 L 434,608 L 434,592 Z" stroke="#000000" stroke-width="2.8" fill="none"/>
<text text-anchor="start" x="439.0" y="606.75" fill="#808080" style="font-size:18px">D1</text>
</g>
<g>
<path d="M 420,620 L 434,628 L 434,612 Z" stroke="#000000" stroke-width="2.8" fill="none"/>
<text text-anchor="start" x="439.0" y="626.75" fill="#808080" style="font-size:18px">D2</text>
</g>
<g>
<path d="M 420,640 L 434,648 L 434,632 Z" stroke="#000000" stroke-width="2.8" fill="none"/>
<text text-anchor="start" x="439.0" y="646.75" fill="#808080" style="font-size:18px">D3</text>
</g>
<g>
<path d="M 420,660 L 434,668 L 434,652 Z" stroke="#000000" stroke-width="2.8" fill="none"/>
<text text-anchor="start" x="439.0" y="666.75" fill="#808080" style="font-size:18px">D4</text>
</g>
<g>
<path d="M 420,680 L 434,688 L 434,672 Z" stroke="#000000" stroke-width="2.8" fill="none"/>
<text text-anchor="start" x="439.0" y="686.75" fill="#808080" style="font-size:18px">D5</text>
</g>
<g>
<path d="M 420,700 L 434,708 L 434,692 Z" stroke="#000000" stroke-width="2.8" fill="none"/>
<text text-anchor="start" x="439.0" y="706.75" fill="#808080" style="font-size:18px">D6</text>
</g>
<g>
<path d="M 420,720 L 434,728 L 434,712 Z" stroke="#000000" stroke-width="2.8" fill="none"/>
<text text-anchor="start" x="439.0" y="726.75" fill="#808080" style="font-size:18px">D7</text>
</g>
<g>
<path d="M 29,225 L 59,225 L 59,255 L 29,255 Z" stroke="#000000" stroke-width="2.8" fill="none"/>
<circle cx="44.0" cy="240.0" r="9.0" stroke="#000000" stroke-width="2.8" fill="none" />
<text text-anchor="end" x="15.0" y="249.0" fill="#000000" style="font-size:24px"><tspan style="font-style:italic;"><tspan style="text-decoration:overline;">OUT</tspan><tspan style="font-size:80%;baseline-shift:sub;">BUS</tspan></tspan></text>
</g>
<g>
<path d="M 80,240 L 94,248 L 94,232 Z" stroke="#000000" stroke-width="2.8" fill="none"/>
<text text-anchor="start" x="99.0" y="246.75" fill="#808080" style="font-size:18px"><tspan style="text-decoration:overline;">OUT</tspan><tspan style="font-size:80%;baseline-shift:sub;">BUS</tspan></text>
</g>
<g>
<path d="M 720,460 L 712,474 L 728,474 Z" stroke="#000000" stroke-width="2.8" fill="none"/>
<text text-anchor="end" x="720.0" y="485.75" fill="#808080" style="font-size:18px" transform="rotate(-90,720.0,479.0)" ><tspan style="text-decoration:overline;">IN</tspan><tspan style="font-size:80%;baseline-shift:sub;">BUS</tspan></text>
</g>
<g>
<text text-anchor="start" x="342.0" y="552.0" fill="#000000" style="font-size:12px">Digital workaround for bus sharing</text>
<path d="M 340,480 L 480,480 L 480,540 L 340,540 Z" stroke-dasharray="4.0,4.0" stroke="#000000" stroke-width="0.7" fill="none"/>
</g>
</g>
</svg>